<?xml version="1.0" encoding="utf-8"?>
<!-- Generator: Adobe Illustrator 23.0.1, SVG Export Plug-In . SVG Version: 6.00 Build 0)  -->
<svg version="1.1" id="Capa_1" xmlns="http://www.w3.org/2000/svg" xmlns:xlink="http://www.w3.org/1999/xlink" x="0px" y="0px"
	 viewBox="0 0 293.5 293.3" style="enable-background:new 0 0 293.5 293.3;" xml:space="preserve">
<style type="text/css">
	.st0{fill:#5B9E95;}
	.st1{fill:#FFFFFF;}
	.st2{fill:#00E3BE;}
	.st3{enable-background:new    ;}
	.st4{fill:#D4D1D9;}
	.st5{fill:#0F3E61;}
	.st6{fill:none;stroke:#0F3E61;stroke-width:3;stroke-linecap:round;stroke-miterlimit:10;}
</style>
<g>
	<rect x="15.4" y="29.3" class="st0" width="253.4" height="241.9"/>
	<rect x="15.4" y="197.2" class="st1" width="253.4" height="74"/>
</g>
<g>
	<path d="M107.8,226.4h-1.5v-6.1h-6.8v6.1h-1.5v-12.9h1.5v5.5h6.8v-5.5h1.5V226.4z"/>
	<path d="M117.1,226.4l-0.3-1.4h-0.1c-0.5,0.6-1,1-1.4,1.2s-1.1,0.3-1.8,0.3c-1,0-1.7-0.2-2.2-0.7s-0.8-1.2-0.8-2.1
		c0-1.9,1.6-3,4.7-3.1l1.6-0.1V220c0-0.8-0.2-1.3-0.5-1.7s-0.8-0.5-1.6-0.5c-0.8,0-1.7,0.2-2.7,0.7l-0.4-1.1c0.5-0.3,1-0.5,1.6-0.6
		s1.1-0.2,1.7-0.2c1.2,0,2,0.2,2.6,0.8s0.8,1.3,0.8,2.4v6.6L117.1,226.4L117.1,226.4z M113.8,225.4c0.9,0,1.6-0.2,2.1-0.8
		s0.8-1.2,0.8-2.1v-0.9l-1.5,0.1c-1.2,0-2,0.2-2.5,0.5s-0.8,0.8-0.8,1.5c0,0.5,0.2,0.9,0.5,1.2S113.2,225.4,113.8,225.4z"/>
	<path d="M127.3,226.4h-7v-1l5.3-7.5h-4.9v-1.1h6.5v1.1l-5.2,7.4h5.3V226.4z"/>
	<path d="M138.1,226.6c-1.4,0-2.5-0.4-3.2-1.3s-1.1-2.1-1.1-3.6c0-1.6,0.4-2.9,1.2-3.7s1.9-1.3,3.3-1.3c0.5,0,0.9,0.1,1.4,0.1
		s0.8,0.2,1.1,0.4l-0.4,1.2c-0.3-0.1-0.7-0.2-1.1-0.3s-0.7-0.1-1-0.1c-2,0-2.9,1.2-2.9,3.7c0,1.2,0.2,2.1,0.7,2.7s1.2,0.9,2.1,0.9
		c0.8,0,1.6-0.2,2.5-0.5v1.3C139.9,226.4,139.1,226.6,138.1,226.6z"/>
	<path d="M144.3,226.4h-1.5v-13.7h1.5V226.4z"/>
	<path d="M147.2,214.1c0-0.3,0.1-0.6,0.2-0.7s0.4-0.2,0.6-0.2c0.2,0,0.4,0.1,0.6,0.2s0.2,0.4,0.2,0.7s-0.1,0.6-0.2,0.7
		s-0.4,0.2-0.6,0.2c-0.2,0-0.4-0.1-0.6-0.2S147.2,214.5,147.2,214.1z M148.8,226.4h-1.5v-9.6h1.5V226.4z"/>
	<path d="M155.8,226.6c-1.4,0-2.5-0.4-3.2-1.3s-1.1-2.1-1.1-3.6c0-1.6,0.4-2.9,1.2-3.7s1.9-1.3,3.3-1.3c0.5,0,0.9,0.1,1.4,0.1
		s0.8,0.2,1.1,0.4l-0.4,1.2c-0.3-0.1-0.7-0.2-1.1-0.3s-0.7-0.1-1-0.1c-2,0-2.9,1.2-2.9,3.7c0,1.2,0.2,2.1,0.7,2.7s1.2,0.9,2.1,0.9
		c0.8,0,1.6-0.2,2.5-0.5v1.3C157.6,226.4,156.8,226.6,155.8,226.6z"/>
	<path d="M169.2,226.6c-1.4,0-2.6-0.4-3.4-1.3s-1.2-2.1-1.2-3.6c0-1.6,0.4-2.8,1.1-3.7s1.8-1.4,3.1-1.4c1.2,0,2.2,0.4,2.9,1.2
		s1.1,1.8,1.1,3.1v0.9h-6.6c0,1.1,0.3,2,0.9,2.6s1.3,0.9,2.3,0.9c1,0,2.1-0.2,3.1-0.6v1.3c-0.5,0.2-1,0.4-1.5,0.5
		S169.9,226.6,169.2,226.6z M168.8,217.8c-0.8,0-1.4,0.2-1.9,0.8s-0.7,1.2-0.8,2.1h5c0-0.9-0.2-1.6-0.6-2.1S169.6,217.8,168.8,217.8
		z"/>
	<path d="M181.9,226.4v-6.2c0-0.8-0.2-1.4-0.5-1.8s-0.9-0.6-1.7-0.6c-1,0-1.8,0.3-2.2,0.8s-0.7,1.4-0.7,2.7v5.1h-1.5v-9.6h1.2
		l0.2,1.3h0.1c0.3-0.5,0.7-0.8,1.3-1.1s1.1-0.4,1.8-0.4c1.2,0,2,0.3,2.6,0.8s0.9,1.4,0.9,2.7v6.3L181.9,226.4L181.9,226.4
		L181.9,226.4z"/>
	<path d="M89.3,239.7c0,0.8-0.3,1.2-1.1,1.2c-0.3,0-0.6-0.1-0.8-0.3s-0.3-0.5-0.3-0.9s0.1-0.7,0.3-0.9s0.4-0.3,0.8-0.3
		c0.3,0,0.6,0.1,0.8,0.3S89.3,239.3,89.3,239.7z M87.8,242.4h0.9l0.4,9.3h-1.8L87.8,242.4z"/>
	<path d="M99.7,245c0,1.1-0.4,2-1.2,2.6s-1.9,0.9-3.3,0.9c-1.5,0-2.7-0.2-3.5-0.6v-1.4c0.5,0.2,1.1,0.4,1.7,0.5s1.2,0.2,1.8,0.2
		c1,0,1.8-0.2,2.2-0.6s0.8-0.9,0.8-1.6c0-0.4-0.1-0.8-0.3-1.1s-0.5-0.6-0.9-0.8s-1.1-0.5-1.9-0.8c-1.2-0.4-2.1-0.9-2.6-1.5
		s-0.8-1.4-0.8-2.3c0-1,0.4-1.8,1.1-2.4s1.7-0.9,2.9-0.9c1.3,0,2.4,0.2,3.5,0.7l-0.5,1.3c-1.1-0.4-2.1-0.7-3.1-0.7
		c-0.8,0-1.4,0.2-1.8,0.5s-0.7,0.8-0.7,1.4c0,0.4,0.1,0.8,0.2,1.1s0.4,0.5,0.8,0.8s1,0.5,1.8,0.8c1.3,0.5,2.3,1,2.8,1.6
		S99.7,244.1,99.7,245z"/>
	<path d="M103.5,238.7v6.2c0,0.8,0.2,1.4,0.5,1.8s0.9,0.6,1.7,0.6c1,0,1.7-0.3,2.2-0.8s0.7-1.4,0.7-2.7v-5.1h1.5v9.6h-1.2l-0.2-1.3
		h-0.1c-0.3,0.5-0.7,0.8-1.2,1.1s-1.1,0.4-1.8,0.4c-1.2,0-2.1-0.3-2.6-0.8s-0.9-1.4-0.9-2.7v-6.3L103.5,238.7L103.5,238.7z"/>
	<path d="M119.3,245.8c0,0.9-0.3,1.6-1,2.1s-1.6,0.7-2.8,0.7c-1.3,0-2.3-0.2-3-0.6v-1.4c0.5,0.2,1,0.4,1.5,0.6s1,0.2,1.5,0.2
		c0.8,0,1.3-0.1,1.8-0.4s0.6-0.6,0.6-1.1c0-0.4-0.2-0.7-0.5-1s-1-0.6-1.9-0.9c-0.9-0.3-1.5-0.6-1.9-0.9s-0.7-0.5-0.8-0.9
		s-0.3-0.7-0.3-1.1c0-0.8,0.3-1.4,1-1.9s1.5-0.7,2.6-0.7c1,0,2.1,0.2,3,0.6l-0.5,1.2c-1-0.4-1.8-0.6-2.6-0.6c-0.7,0-1.2,0.1-1.6,0.3
		s-0.5,0.5-0.5,0.9c0,0.3,0.1,0.5,0.2,0.7s0.3,0.4,0.6,0.5s0.9,0.4,1.7,0.7c1.1,0.4,1.9,0.8,2.3,1.3S119.3,245.1,119.3,245.8z"/>
	<path d="M125.6,248.6c-1.4,0-2.5-0.4-3.2-1.3s-1.2-2.1-1.2-3.6c0-1.6,0.4-2.9,1.2-3.7s1.9-1.3,3.3-1.3c0.5,0,0.9,0.1,1.4,0.1
		s0.8,0.2,1.1,0.4l-0.4,1.2c-0.3-0.1-0.7-0.2-1.1-0.3s-0.7-0.1-1-0.1c-2,0-2.9,1.2-2.9,3.7c0,1.2,0.2,2.1,0.7,2.7s1.2,0.9,2.1,0.9
		c0.8,0,1.6-0.2,2.5-0.5v1.3C127.4,248.4,126.6,248.6,125.6,248.6z"/>
	<path d="M134.7,238.6c0.4,0,0.8,0,1.1,0.1l-0.2,1.4c-0.4-0.1-0.8-0.1-1.1-0.1c-0.8,0-1.4,0.3-2,0.9s-0.8,1.4-0.8,2.4v5.2h-1.5v-9.6
		h1.2l0.2,1.8h0.1c0.4-0.6,0.8-1.1,1.3-1.4S134.1,238.6,134.7,238.6z"/>
	<path d="M137.5,236.1c0-0.3,0.1-0.6,0.2-0.7s0.4-0.2,0.6-0.2c0.2,0,0.4,0.1,0.6,0.2s0.2,0.4,0.2,0.7s-0.1,0.6-0.2,0.7
		s-0.4,0.2-0.6,0.2c-0.2,0-0.4-0.1-0.6-0.2S137.5,236.5,137.5,236.1z M139.1,248.4h-1.5v-9.6h1.5V248.4z"/>
	<path d="M146.7,238.6c1.3,0,2.2,0.4,2.9,1.3s1.1,2.1,1.1,3.7s-0.4,2.8-1.1,3.7s-1.7,1.3-2.9,1.3c-0.6,0-1.2-0.1-1.7-0.4
		s-0.9-0.6-1.3-1.1h-0.1l-0.3,1.2h-1.1v-13.7h1.5v3.3c0,0.7,0,1.4-0.1,2h0.1C144.3,239.1,145.3,238.6,146.7,238.6z M146.5,239.8
		c-1,0-1.7,0.3-2.1,0.9s-0.7,1.5-0.7,2.9s0.2,2.3,0.7,2.9s1.2,0.9,2.2,0.9c0.9,0,1.6-0.3,2-1s0.7-1.6,0.7-2.8c0-1.2-0.2-2.2-0.7-2.8
		S147.4,239.8,146.5,239.8z"/>
	<path d="M153.1,236.1c0-0.3,0.1-0.6,0.2-0.7s0.4-0.2,0.6-0.2c0.2,0,0.4,0.1,0.6,0.2s0.2,0.4,0.2,0.7s-0.1,0.6-0.2,0.7
		s-0.4,0.2-0.6,0.2c-0.2,0-0.4-0.1-0.6-0.2S153.1,236.5,153.1,236.1z M154.7,248.4h-1.5v-9.6h1.5V248.4z"/>
	<path d="M162.2,238.6c0.4,0,0.8,0,1.1,0.1l-0.2,1.4c-0.4-0.1-0.8-0.1-1.1-0.1c-0.8,0-1.4,0.3-2,0.9s-0.8,1.4-0.8,2.4v5.2h-1.5v-9.6
		h1.2l0.2,1.8h0.1c0.4-0.6,0.8-1.1,1.3-1.4S161.6,238.6,162.2,238.6z"/>
	<path d="M177.4,248.4v-6.3c0-0.8-0.2-1.3-0.5-1.7s-0.8-0.6-1.5-0.6c-0.9,0-1.6,0.3-2,0.8s-0.6,1.3-0.6,2.4v5.4h-1.5v-6.3
		c0-0.8-0.2-1.3-0.5-1.7s-0.8-0.6-1.5-0.6c-0.9,0-1.6,0.3-2,0.8s-0.6,1.4-0.6,2.7v5.1h-1.5v-9.6h1.2l0.2,1.3h0.1
		c0.3-0.5,0.7-0.8,1.2-1.1s1.1-0.4,1.7-0.4c1.5,0,2.5,0.5,2.9,1.6h0.1c0.3-0.5,0.7-0.9,1.2-1.2s1.2-0.4,1.9-0.4
		c1.1,0,1.9,0.3,2.4,0.8s0.8,1.4,0.8,2.7v6.3L177.4,248.4L177.4,248.4L177.4,248.4z"/>
	<path d="M185.9,248.6c-1.4,0-2.6-0.4-3.4-1.3s-1.2-2.1-1.2-3.6c0-1.6,0.4-2.8,1.1-3.7s1.8-1.4,3.1-1.4c1.2,0,2.2,0.4,2.9,1.2
		s1.1,1.8,1.1,3.1v0.9h-6.6c0,1.1,0.3,2,0.9,2.6s1.3,0.9,2.3,0.9c1,0,2.1-0.2,3.1-0.6v1.3c-0.5,0.2-1,0.4-1.5,0.5
		S186.6,248.6,185.9,248.6z M185.5,239.8c-0.8,0-1.4,0.2-1.9,0.8s-0.7,1.2-0.8,2.1h5c0-0.9-0.2-1.6-0.6-2.1S186.3,239.8,185.5,239.8
		z"/>
	<path d="M191.8,247.4c0-0.8,0.4-1.2,1.1-1.2c0.3,0,0.6,0.1,0.8,0.3s0.3,0.5,0.3,0.9c0,0.4-0.1,0.7-0.3,0.9s-0.4,0.3-0.8,0.3
		c-0.3,0-0.6-0.1-0.8-0.3S191.8,247.9,191.8,247.4z M193.3,244.8h-0.9l-0.4-9.3h1.8L193.3,244.8z"/>
</g>
<circle class="st2" cx="31.6" cy="31.9" r="30.8"/>
<g class="st3">
	<path class="st1" d="M41.8,22.1c0,2.1-0.6,3.9-1.9,5.4c-1.3,1.5-3.1,2.5-5.4,3v0.1c2.7,0.3,4.8,1.2,6.2,2.5
		c1.4,1.3,2.1,3.1,2.1,5.3c0,3.2-1.2,5.7-3.5,7.5c-2.3,1.8-5.7,2.7-10,2.7c-3.6,0-6.9-0.6-9.7-1.8v-6c1.3,0.7,2.7,1.2,4.3,1.6
		c1.6,0.4,3.1,0.6,4.6,0.6c2.3,0,4.1-0.4,5.2-1.2s1.7-2.1,1.7-3.8c0-1.6-0.6-2.7-1.9-3.4s-3.3-1-6.2-1h-2.5v-5.4h2.6
		c2.6,0,4.5-0.3,5.7-1c1.2-0.7,1.8-1.8,1.8-3.5c0-2.5-1.6-3.8-4.8-3.8c-1.1,0-2.2,0.2-3.4,0.6c-1.1,0.4-2.4,1-3.8,1.9l-3.3-4.9
		c3.1-2.2,6.7-3.3,11-3.3c3.5,0,6.2,0.7,8.2,2.1C40.8,17.6,41.8,19.6,41.8,22.1z"/>
</g>
<path class="st4" d="M214.2,120.5H66.6c-10.8,0-19.5-8.8-19.5-19.5l0,0c0-10.8,8.8-19.5,19.5-19.5h147.6c10.8,0,19.5,8.8,19.5,19.5
	l0,0C233.8,111.8,225,120.5,214.2,120.5z"/>
<g>
	<g>
		<path class="st5" d="M163,173.7l-18.4,0.1c-4.2,0-8-2.5-9.6-6.4c0,0,0-0.1-0.1-0.1l-13.3-23.8c-0.6-1.1-0.7-2.3-0.4-3.4
			c0.3-1.1,1.1-2.1,2.1-2.7c1.1-0.6,2.3-0.7,3.4-0.4c0.2,0.1,0.4,0.1,0.6,0.2c0.9,0.4,1.7,1.1,2.1,1.9l2.4,4.3
			c0.3,0.5,0.8,0.7,1.4,0.6c0.5-0.1,0.9-0.6,0.9-1.2l-0.1-26.5c0-2.5,2-4.5,4.5-4.5c2.5,0,4.5,2,4.5,4.5l0,9.2c0,0,0,0.1,0,0.1
			l0,16.3c0,0.5,0.3,0.9,0.7,1.1c0.1,0.1,0.3,0.1,0.5,0.1c0.7,0,1.2-0.5,1.2-1.2l0-15.9c0.8-0.8,1.9-1.3,3.1-1.3
			c2.1,0,3.9,1.5,4.4,3.5l0,14.6c0,0.5,0.3,0.9,0.7,1.1c0.1,0.1,0.3,0.1,0.5,0.1c0.7,0,1.2-0.5,1.2-1.2l-0.1-14.3
			c0.9-0.9,2-1.4,3.2-1.4c2.5,0,4.5,2,4.5,4.5c0,0,0,0,0,0l0,14.1c0,0.5,0.3,0.9,0.7,1.1c0.1,0.1,0.3,0.1,0.5,0.1
			c0.7,0,1.2-0.5,1.2-1.2l0-13.6c0.8-0.8,1.9-1.3,3.1-1.3c2.5,0,4.5,2,4.5,4.5l0.1,28.3C173.3,169,168.7,173.7,163,173.7z"/>
	</g>
</g>
<g>
	<line class="st6" x1="224.8" y1="60.8" x2="222.3" y2="73.3"/>
	<line class="st6" x1="238.1" y1="66.1" x2="231" y2="76.7"/>
	<line class="st6" x1="248.9" y1="76.6" x2="237.5" y2="82.2"/>
</g>
<g>
	<g>
		<path class="st5" d="M72.4,97.7c0,0.6-0.2,1.1-0.5,1.4s-0.8,0.5-1.4,0.5c-0.6,0-1.1-0.2-1.4-0.5c-0.3-0.3-0.5-0.8-0.5-1.4
			c0-0.6,0.2-1.1,0.5-1.4c0.3-0.3,0.8-0.5,1.4-0.5c0.6,0,1.1,0.2,1.4,0.5C72.2,96.6,72.4,97,72.4,97.7z M69.1,101.4h2.7l0.6,10.7
			h-3.8L69.1,101.4z"/>
		<path class="st5" d="M85.2,103.6c0,1.4-0.5,2.6-1.6,3.4c-1.1,0.8-2.5,1.3-4.4,1.3c-1.7,0-3.2-0.3-4.6-1v-3.2c1.1,0.5,2,0.8,2.8,1
			c0.8,0.2,1.4,0.3,2.1,0.3c0.8,0,1.3-0.1,1.7-0.4s0.6-0.7,0.6-1.3c0-0.3-0.1-0.6-0.3-0.8c-0.2-0.2-0.4-0.5-0.8-0.7s-1-0.6-2.1-1.1
			c-1-0.5-1.7-0.9-2.2-1.3s-0.9-0.9-1.2-1.5c-0.3-0.6-0.4-1.2-0.4-2c0-1.4,0.5-2.6,1.4-3.4s2.3-1.2,4-1.2c0.8,0,1.6,0.1,2.4,0.3
			c0.8,0.2,1.6,0.5,2.4,0.8l-1.1,2.7c-0.9-0.3-1.6-0.6-2.1-0.7s-1.1-0.2-1.7-0.2c-0.7,0-1.1,0.2-1.5,0.4c-0.3,0.3-0.5,0.7-0.5,1.2
			c0,0.3,0.1,0.6,0.2,0.8s0.4,0.4,0.7,0.7c0.3,0.2,1,0.6,2.2,1.1c1.5,0.7,2.5,1.4,3.1,2.2C85,101.7,85.2,102.6,85.2,103.6z"/>
		<path class="st5" d="M96.6,108.1l-0.4-1.6H96c-0.4,0.6-0.9,1-1.5,1.3c-0.7,0.3-1.4,0.5-2.3,0.5c-1.4,0-2.5-0.4-3.3-1.2
			c-0.7-0.8-1.1-1.9-1.1-3.3v-8h3.4v7.2c0,0.9,0.2,1.6,0.5,2c0.3,0.4,0.8,0.7,1.5,0.7c0.9,0,1.6-0.3,2-0.9c0.4-0.6,0.6-1.7,0.6-3.1
			v-5.8h3.4v12.3L96.6,108.1C96.6,108.1,96.6,108.1,96.6,108.1z"/>
		<path class="st5" d="M111.3,104.4c0,1.3-0.4,2.2-1.3,2.9c-0.9,0.7-2.2,1-3.9,1c-0.9,0-1.7-0.1-2.3-0.2s-1.2-0.3-1.8-0.5v-2.8
			c0.6,0.3,1.3,0.5,2.1,0.7s1.5,0.3,2.1,0.3c1.2,0,1.8-0.3,1.8-1.1c0-0.3-0.1-0.5-0.2-0.6c-0.2-0.2-0.4-0.3-0.8-0.6
			c-0.4-0.2-0.9-0.4-1.6-0.7c-0.9-0.4-1.6-0.8-2.1-1.1c-0.4-0.3-0.8-0.7-1-1.2c-0.2-0.4-0.3-1-0.3-1.6c0-1.1,0.4-1.9,1.3-2.5
			s2.1-0.9,3.6-0.9c1.5,0,2.9,0.3,4.3,1l-1,2.4c-0.6-0.3-1.2-0.5-1.7-0.7s-1.1-0.2-1.6-0.2c-1,0-1.5,0.3-1.5,0.8
			c0,0.3,0.2,0.6,0.5,0.8s1,0.6,2.1,1c1,0.4,1.7,0.8,2.1,1.1s0.8,0.7,1,1.2C111.2,103.3,111.3,103.8,111.3,104.4z"/>
		<path class="st5" d="M119,108.3c-3.8,0-5.8-2.1-5.8-6.3c0-2.1,0.5-3.7,1.6-4.8s2.5-1.7,4.5-1.7c1.4,0,2.7,0.3,3.8,0.8l-1,2.6
			c-0.5-0.2-1-0.4-1.5-0.5c-0.5-0.1-0.9-0.2-1.4-0.2c-1.8,0-2.6,1.2-2.6,3.7c0,2.4,0.9,3.6,2.6,3.6c0.7,0,1.2-0.1,1.8-0.3
			c0.6-0.2,1.1-0.4,1.7-0.8v2.9c-0.5,0.3-1.1,0.6-1.7,0.7S119.8,108.3,119,108.3z"/>
		<path class="st5" d="M132.4,95.5c0.5,0,0.8,0,1.1,0.1l-0.2,3.2c-0.3-0.1-0.6-0.1-1-0.1c-1.1,0-1.9,0.3-2.5,0.8
			c-0.6,0.6-0.9,1.3-0.9,2.3v6.3h-3.4V95.8h2.6l0.5,2.1h0.2c0.4-0.7,0.9-1.2,1.6-1.7C131,95.8,131.7,95.5,132.4,95.5z"/>
		<path class="st5" d="M135.7,92.6c0-1.1,0.6-1.6,1.8-1.6s1.8,0.6,1.8,1.6c0,0.5-0.1,0.9-0.5,1.2c-0.3,0.3-0.8,0.4-1.4,0.4
			C136.3,94.2,135.7,93.7,135.7,92.6z M139.2,108.1h-3.4V95.8h3.4V108.1z"/>
		<path class="st5" d="M149.6,95.5c1.5,0,2.6,0.6,3.4,1.7c0.8,1.1,1.2,2.7,1.2,4.7c0,2-0.4,3.6-1.3,4.7s-2,1.7-3.5,1.7
			c-1.4,0-2.6-0.5-3.4-1.6h-0.2l-0.6,1.4h-2.6V90.9h3.4v4c0,0.5,0,1.3-0.1,2.4h0.1C146.8,96.2,148,95.5,149.6,95.5z M148.5,98.2
			c-0.8,0-1.4,0.3-1.8,0.8c-0.4,0.5-0.6,1.3-0.6,2.5v0.4c0,1.3,0.2,2.3,0.6,2.8s1,0.9,1.9,0.9c0.7,0,1.2-0.3,1.6-0.9
			c0.4-0.6,0.6-1.6,0.6-2.8s-0.2-2.1-0.6-2.7C149.7,98.5,149.2,98.2,148.5,98.2z"/>
		<path class="st5" d="M156.8,92.6c0-1.1,0.6-1.6,1.8-1.6s1.8,0.6,1.8,1.6c0,0.5-0.1,0.9-0.5,1.2c-0.3,0.3-0.8,0.4-1.4,0.4
			C157.4,94.2,156.8,93.7,156.8,92.6z M160.3,108.1H157V95.8h3.4V108.1z"/>
		<path class="st5" d="M170.7,95.5c0.5,0,0.8,0,1.1,0.1l-0.2,3.2c-0.3-0.1-0.6-0.1-1-0.1c-1.1,0-1.9,0.3-2.5,0.8
			c-0.6,0.6-0.9,1.3-0.9,2.3v6.3h-3.4V95.8h2.6l0.5,2.1h0.2c0.4-0.7,0.9-1.2,1.6-1.7C169.3,95.8,170,95.5,170.7,95.5z"/>
		<path class="st5" d="M185.1,108.1h-3.4v-7.2c0-0.9-0.1-1.6-0.4-2s-0.8-0.7-1.4-0.7c-0.9,0-1.5,0.3-1.9,0.9s-0.6,1.7-0.6,3.1v5.8
			h-3.4V95.8h2.6l0.4,1.6h0.2c0.3-0.6,0.8-1,1.4-1.3s1.3-0.5,2.1-0.5c1.8,0,3.1,0.6,3.8,1.8h0.3c0.3-0.6,0.8-1,1.5-1.3
			c0.6-0.3,1.4-0.5,2.2-0.5c1.4,0,2.4,0.4,3.2,1.1c0.7,0.7,1.1,1.9,1.1,3.4v8h-3.4v-7.2c0-0.9-0.1-1.6-0.4-2s-0.8-0.7-1.4-0.7
			c-0.8,0-1.4,0.3-1.9,0.9s-0.6,1.5-0.6,2.8V108.1z"/>
		<path class="st5" d="M201.9,108.3c-2,0-3.5-0.6-4.6-1.6s-1.7-2.7-1.7-4.7c0-2.1,0.5-3.7,1.6-4.8s2.5-1.7,4.3-1.7
			c1.7,0,3.1,0.5,4.1,1.5s1.5,2.4,1.5,4.1v1.6h-7.9c0,1,0.3,1.7,0.9,2.2s1.3,0.8,2.2,0.8c0.7,0,1.4-0.1,2.1-0.2s1.4-0.4,2.1-0.7v2.6
			c-0.6,0.3-1.2,0.5-1.9,0.7C203.6,108.2,202.8,108.3,201.9,108.3z M201.4,97.9c-0.7,0-1.3,0.2-1.7,0.7s-0.6,1.1-0.7,1.9h4.7
			c0-0.8-0.2-1.5-0.6-1.9C202.6,98.2,202.1,97.9,201.4,97.9z"/>
		<path class="st5" d="M209.1,106.5c0-0.6,0.2-1.1,0.5-1.4s0.8-0.5,1.4-0.5c0.6,0,1.1,0.2,1.4,0.5s0.5,0.8,0.5,1.4
			c0,0.6-0.2,1-0.5,1.4s-0.8,0.5-1.4,0.5c-0.6,0-1.1-0.2-1.4-0.5S209.1,107.1,209.1,106.5z M212.4,102.8h-2.7L209.2,92h3.8
			L212.4,102.8z"/>
	</g>
</g>
</svg>
