<?xml version="1.0" encoding="utf-8"?>
<!-- Generator: Adobe Illustrator 23.0.1, SVG Export Plug-In . SVG Version: 6.00 Build 0)  -->
<svg version="1.1" id="Capa_1" xmlns="http://www.w3.org/2000/svg" xmlns:xlink="http://www.w3.org/1999/xlink" x="0px" y="0px"
	 viewBox="0 0 293.5 293.3" style="enable-background:new 0 0 293.5 293.3;" xml:space="preserve">
<style type="text/css">
	.st0{fill:#D4D1D9;}
	.st1{fill:#FFFFFF;}
	.st2{fill:#00E3BE;}
	.st3{fill:#B0C3D1;}
	.st4{fill:#3B6979;}
	.st5{fill:#6E85C0;}
	.st6{fill:#2A4264;}
</style>
<g>
	<rect x="16.6" y="26" class="st0" width="253.4" height="241.9"/>
	<rect x="16.6" y="194" class="st1" width="253.4" height="74"/>
</g>
<g>
	<path d="M74.4,209.7H76l-4.6,12.9h-1.5l-4.6-12.9h1.6l2.9,8.3c0.3,1,0.6,1.9,0.8,2.8c0.2-0.9,0.5-1.9,0.8-2.8L74.4,209.7z"/>
	<path d="M82.1,222.8c-1.4,0-2.6-0.4-3.4-1.3s-1.2-2.1-1.2-3.6c0-1.6,0.4-2.8,1.2-3.7s1.8-1.4,3.1-1.4c1.2,0,2.2,0.4,2.9,1.2
		s1.1,1.8,1.1,3.1v0.9H79c0,1.1,0.3,2,0.9,2.6s1.3,0.9,2.3,0.9c1,0,2.1-0.2,3.1-0.6v1.3c-0.5,0.2-1,0.4-1.5,0.5
		S82.7,222.8,82.1,222.8z M81.7,214c-0.8,0-1.4,0.2-1.8,0.8s-0.7,1.2-0.8,2.1h5c0-0.9-0.2-1.6-0.6-2.1S82.4,214,81.7,214z"/>
	<path d="M92.9,212.8c0.4,0,0.8,0,1.2,0.1l-0.2,1.4c-0.4-0.1-0.8-0.1-1.1-0.1c-0.8,0-1.4,0.3-2,0.9s-0.8,1.4-0.8,2.4v5.2h-1.5V213
		h1.2l0.2,1.8H90c0.4-0.6,0.8-1.1,1.3-1.4S92.3,212.8,92.9,212.8z"/>
	<path d="M96.2,210.4c0-0.3,0.1-0.6,0.2-0.7s0.4-0.2,0.6-0.2c0.2,0,0.4,0.1,0.6,0.2s0.2,0.4,0.2,0.7s-0.1,0.6-0.2,0.7
		s-0.4,0.2-0.6,0.2c-0.2,0-0.4-0.1-0.6-0.2S96.2,210.7,96.2,210.4z M97.8,222.6h-1.5V213h1.5V222.6z"/>
	<path d="M105.7,214.1h-2.4v8.5h-1.5v-8.5h-1.7v-0.7l1.7-0.5v-0.5c0-2.4,1-3.6,3.1-3.6c0.5,0,1.1,0.1,1.8,0.3l-0.4,1.2
		c-0.6-0.2-1-0.3-1.4-0.3c-0.6,0-1,0.2-1.2,0.6s-0.4,0.9-0.4,1.8v0.6h2.4L105.7,214.1L105.7,214.1L105.7,214.1z M107.3,210.4
		c0-0.3,0.1-0.6,0.2-0.7s0.4-0.2,0.6-0.2c0.2,0,0.4,0.1,0.6,0.2s0.2,0.4,0.2,0.7s-0.1,0.6-0.2,0.7s-0.4,0.2-0.6,0.2
		c-0.2,0-0.4-0.1-0.6-0.2S107.3,210.7,107.3,210.4z M108.9,222.6h-1.5V213h1.5V222.6z"/>
	<path d="M116.3,222.8c-1.4,0-2.5-0.4-3.2-1.3s-1.2-2.1-1.2-3.6c0-1.6,0.4-2.9,1.2-3.7s1.9-1.3,3.3-1.3c0.5,0,0.9,0.1,1.4,0.1
		s0.8,0.2,1.1,0.4l-0.4,1.2c-0.3-0.1-0.7-0.2-1.1-0.3s-0.7-0.1-1-0.1c-2,0-2.9,1.2-2.9,3.7c0,1.2,0.2,2.1,0.7,2.7s1.2,0.9,2.1,0.9
		c0.8,0,1.6-0.2,2.5-0.5v1.3C118.1,222.6,117.3,222.8,116.3,222.8z"/>
	<path d="M127.4,222.6l-0.3-1.4H127c-0.5,0.6-1,1-1.4,1.2s-1.1,0.3-1.8,0.3c-1,0-1.7-0.2-2.2-0.7s-0.8-1.2-0.8-2.1
		c0-1.9,1.6-3,4.7-3.1l1.6-0.1v-0.6c0-0.8-0.2-1.3-0.5-1.7s-0.8-0.5-1.6-0.5c-0.8,0-1.7,0.2-2.7,0.7l-0.4-1.1c0.5-0.3,1-0.5,1.6-0.6
		s1.1-0.2,1.7-0.2c1.2,0,2,0.2,2.6,0.8s0.8,1.3,0.8,2.4v6.6L127.4,222.6L127.4,222.6z M124.1,221.6c0.9,0,1.6-0.2,2.1-0.8
		s0.8-1.2,0.8-2.1v-0.9l-1.5,0.1c-1.2,0-2,0.2-2.5,0.5s-0.8,0.8-0.8,1.5c0,0.5,0.2,0.9,0.5,1.2S123.5,221.6,124.1,221.6z"/>
	<path d="M140.2,221.6c0.3,0,0.5,0,0.8-0.1s0.4-0.1,0.6-0.1v1.1c-0.2,0.1-0.4,0.1-0.7,0.2s-0.6,0.1-0.8,0.1c-1.9,0-2.8-1-2.8-2.9
		v-5.7h-1.4v-0.7l1.4-0.6l0.6-2.1h0.8v2.2h2.8v1.1h-2.8v5.7c0,0.6,0.1,1,0.4,1.3S139.7,221.6,140.2,221.6z"/>
	<path d="M145.2,213v6.2c0,0.8,0.2,1.4,0.5,1.8s0.9,0.6,1.7,0.6c1,0,1.7-0.3,2.2-0.8s0.7-1.4,0.7-2.7V213h1.5v9.6h-1.2l-0.2-1.3
		h-0.1c-0.3,0.5-0.7,0.8-1.2,1.1s-1.1,0.4-1.8,0.4c-1.2,0-2.1-0.3-2.6-0.8s-0.9-1.4-0.9-2.7V213L145.2,213L145.2,213L145.2,213z"/>
	<path d="M164.3,222.8c-1.4,0-2.5-0.4-3.2-1.3s-1.1-2.1-1.1-3.6c0-1.6,0.4-2.9,1.2-3.7s1.9-1.3,3.3-1.3c0.5,0,0.9,0.1,1.4,0.1
		s0.8,0.2,1.1,0.4l-0.4,1.2c-0.3-0.1-0.7-0.2-1.1-0.3s-0.7-0.1-1-0.1c-2,0-2.9,1.2-2.9,3.7c0,1.2,0.2,2.1,0.7,2.7s1.2,0.9,2.1,0.9
		c0.8,0,1.6-0.2,2.5-0.5v1.3C166.1,222.6,165.3,222.8,164.3,222.8z"/>
	<path d="M177.8,217.8c0,1.6-0.4,2.8-1.2,3.7s-1.9,1.3-3.3,1.3c-0.9,0-1.6-0.2-2.3-0.6s-1.2-1-1.6-1.7s-0.5-1.6-0.5-2.6
		c0-1.6,0.4-2.8,1.2-3.7s1.9-1.3,3.3-1.3c1.4,0,2.4,0.4,3.2,1.3S177.8,216.2,177.8,217.8z M170.5,217.8c0,1.2,0.2,2.2,0.7,2.8
		s1.2,1,2.2,1s1.7-0.3,2.2-1s0.7-1.6,0.7-2.8c0-1.2-0.2-2.1-0.7-2.8s-1.2-0.9-2.2-0.9s-1.7,0.3-2.2,0.9S170.5,216.5,170.5,217.8z"/>
	<path d="M185.2,212.8c0.4,0,0.8,0,1.1,0.1l-0.2,1.4c-0.4-0.1-0.8-0.1-1.1-0.1c-0.8,0-1.4,0.3-2,0.9s-0.8,1.4-0.8,2.4v5.2h-1.5V213
		h1.2l0.2,1.8h0.1c0.4-0.6,0.8-1.1,1.3-1.4S184.6,212.8,185.2,212.8z"/>
	<path d="M193,212.8c0.4,0,0.8,0,1.1,0.1l-0.2,1.4c-0.4-0.1-0.8-0.1-1.1-0.1c-0.8,0-1.4,0.3-2,0.9s-0.8,1.4-0.8,2.4v5.2h-1.5V213
		h1.2l0.2,1.8h0.1c0.4-0.6,0.8-1.1,1.3-1.4S192.4,212.8,193,212.8z"/>
	<path d="M200.5,222.8c-1.4,0-2.6-0.4-3.4-1.3s-1.2-2.1-1.2-3.6c0-1.6,0.4-2.8,1.1-3.7s1.8-1.4,3.1-1.4c1.2,0,2.2,0.4,2.9,1.2
		s1.1,1.8,1.1,3.1v0.9h-6.6c0,1.1,0.3,2,0.9,2.6s1.3,0.9,2.3,0.9c1,0,2.1-0.2,3.1-0.6v1.3c-0.5,0.2-1,0.4-1.5,0.5
		S201.1,222.8,200.5,222.8z M200.1,214c-0.8,0-1.4,0.2-1.9,0.8s-0.7,1.2-0.8,2.1h5c0-0.9-0.2-1.6-0.6-2.1S200.9,214,200.1,214z"/>
	<path d="M215.3,217.8c0,1.6-0.4,2.8-1.2,3.7s-1.9,1.3-3.3,1.3c-0.9,0-1.6-0.2-2.3-0.6s-1.2-1-1.6-1.7s-0.5-1.6-0.5-2.6
		c0-1.6,0.4-2.8,1.2-3.7s1.9-1.3,3.3-1.3c1.4,0,2.4,0.4,3.2,1.3S215.3,216.2,215.3,217.8z M207.9,217.8c0,1.2,0.2,2.2,0.7,2.8
		s1.2,1,2.2,1s1.7-0.3,2.2-1s0.7-1.6,0.7-2.8c0-1.2-0.2-2.1-0.7-2.8s-1.2-0.9-2.2-0.9s-1.7,0.3-2.2,0.9S207.9,216.5,207.9,217.8z"/>
	<path d="M218.1,221.7c0-0.4,0.1-0.7,0.3-0.9s0.4-0.3,0.8-0.3c0.3,0,0.6,0.1,0.8,0.3s0.3,0.5,0.3,0.9c0,0.4-0.1,0.7-0.3,0.9
		s-0.5,0.3-0.8,0.3c-0.3,0-0.6-0.1-0.7-0.3S218.1,222.1,218.1,221.7z"/>
	<path d="M33.7,239.8v4.8h-1.3v-11.4h3.1c1.4,0,2.4,0.3,3.1,0.8c0.7,0.5,1,1.3,1,2.4c0,1.5-0.8,2.5-2.3,3.1l3.1,5.1h-1.6l-2.8-4.8
		L33.7,239.8L33.7,239.8z M33.7,238.7h1.8c0.9,0,1.6-0.2,2.1-0.6c0.4-0.4,0.7-0.9,0.7-1.7s-0.2-1.3-0.7-1.6
		c-0.5-0.3-1.2-0.5-2.1-0.5h-1.7C33.7,234.3,33.7,238.7,33.7,238.7z"/>
	<path d="M46,244.8c-1.3,0-2.3-0.4-3-1.2c-0.7-0.8-1.1-1.8-1.1-3.2c0-1.4,0.3-2.5,1-3.3s1.6-1.2,2.7-1.2c1.1,0,1.9,0.4,2.5,1.1
		c0.6,0.7,0.9,1.6,0.9,2.8v0.8h-5.9c0,1,0.3,1.8,0.8,2.3c0.5,0.5,1.2,0.8,2,0.8c0.9,0,1.8-0.2,2.7-0.6v1.2c-0.5,0.2-0.9,0.3-1.3,0.4
		C47.1,244.7,46.6,244.8,46,244.8z M45.7,237c-0.7,0-1.2,0.2-1.6,0.7c-0.4,0.4-0.7,1.1-0.7,1.9h4.5c0-0.8-0.2-1.4-0.5-1.9
		C46.9,237.2,46.4,237,45.7,237z"/>
	<path d="M55.2,244.8c-1.2,0-2.2-0.4-2.9-1.1s-1-1.8-1-3.2c0-1.4,0.3-2.5,1-3.3c0.7-0.8,1.7-1.2,3-1.2c0.4,0,0.8,0,1.2,0.1
		c0.4,0.1,0.7,0.2,1,0.3l-0.4,1.1c-0.3-0.1-0.6-0.2-0.9-0.3c-0.3-0.1-0.6-0.1-0.9-0.1c-1.7,0-2.6,1.1-2.6,3.3c0,1.1,0.2,1.9,0.6,2.4
		c0.4,0.6,1,0.8,1.9,0.8c0.7,0,1.5-0.1,2.2-0.5v1.1C56.8,244.6,56.1,244.8,55.2,244.8z"/>
	<path d="M59.7,233.7c0-0.3,0.1-0.5,0.2-0.6s0.3-0.2,0.5-0.2c0.2,0,0.4,0.1,0.5,0.2s0.2,0.4,0.2,0.6s-0.1,0.5-0.2,0.6
		c-0.2,0.1-0.3,0.2-0.5,0.2c-0.2,0-0.4-0.1-0.5-0.2C59.8,234.2,59.7,234,59.7,233.7z M61.1,244.6h-1.3V236h1.3V244.6z"/>
	<path d="M68.3,235.9c1.1,0,2,0.4,2.6,1.1c0.6,0.8,0.9,1.9,0.9,3.3s-0.3,2.5-0.9,3.3c-0.6,0.8-1.5,1.2-2.6,1.2
		c-0.6,0-1.1-0.1-1.5-0.3s-0.8-0.5-1.2-0.9h-0.1l-0.3,1.1h-0.9v-12.2h1.3v2.9c0,0.7,0,1.3-0.1,1.8h0.1
		C66.2,236.3,67.1,235.9,68.3,235.9z M68.1,237c-0.9,0-1.5,0.2-1.9,0.8s-0.6,1.4-0.6,2.6s0.2,2.1,0.6,2.6s1,0.8,1.9,0.8
		c0.8,0,1.4-0.3,1.8-0.9s0.6-1.4,0.6-2.5c0-1.1-0.2-1.9-0.6-2.5S68.9,237,68.1,237z"/>
	<path d="M74.4,233.7c0-0.3,0.1-0.5,0.2-0.6s0.3-0.2,0.6-0.2c0.2,0,0.4,0.1,0.5,0.2s0.2,0.4,0.2,0.6s-0.1,0.5-0.2,0.6
		s-0.3,0.2-0.5,0.2c-0.2,0-0.4-0.1-0.6-0.2S74.4,234,74.4,233.7z M75.8,244.6h-1.3V236h1.3V244.6z"/>
	<path d="M82.8,235.9c0.4,0,0.7,0,1,0.1l-0.2,1.2c-0.3-0.1-0.7-0.1-0.9-0.1c-0.7,0-1.3,0.3-1.8,0.8s-0.7,1.3-0.7,2.1v4.6h-1.3V236
		H80l0.2,1.6h0.1c0.3-0.6,0.7-1,1.2-1.3C81.8,236,82.3,235.9,82.8,235.9z"/>
	<path d="M91.1,244.6l-0.3-1.2h-0.1c-0.4,0.5-0.8,0.9-1.3,1.1c-0.4,0.2-0.9,0.3-1.6,0.3c-0.8,0-1.5-0.2-2-0.7
		c-0.5-0.4-0.7-1.1-0.7-1.9c0-1.7,1.4-2.6,4.2-2.7l1.4-0.1v-0.5c0-0.7-0.1-1.2-0.4-1.5s-0.8-0.5-1.4-0.5c-0.7,0-1.5,0.2-2.4,0.7
		l-0.4-1c0.4-0.2,0.9-0.4,1.4-0.5c0.5-0.1,1-0.2,1.5-0.2c1,0,1.8,0.2,2.3,0.7s0.7,1.2,0.7,2.2v5.8L91.1,244.6L91.1,244.6z
		 M88.2,243.7c0.8,0,1.4-0.2,1.9-0.7s0.7-1.1,0.7-1.9v-0.8l-1.3,0.1c-1,0-1.8,0.2-2.2,0.5c-0.5,0.3-0.7,0.7-0.7,1.3
		c0,0.5,0.1,0.8,0.4,1.1C87.3,243.6,87.7,243.7,88.2,243.7z M87.9,234.7c0.2-0.3,0.5-0.7,0.8-1.2c0.3-0.5,0.5-0.9,0.7-1.2H91v0.2
		c-0.2,0.3-0.6,0.8-1,1.2c-0.4,0.5-0.8,0.9-1.2,1.1h-0.9V234.7z"/>
	<path d="M100.7,242.3c0,0.8-0.3,1.4-0.9,1.8s-1.4,0.6-2.5,0.6c-1.1,0-2-0.2-2.7-0.5V243c0.4,0.2,0.8,0.4,1.3,0.5
		c0.5,0.1,0.9,0.2,1.4,0.2c0.7,0,1.2-0.1,1.6-0.3c0.4-0.2,0.6-0.6,0.6-1c0-0.3-0.1-0.6-0.4-0.9s-0.8-0.5-1.7-0.8
		c-0.8-0.3-1.4-0.6-1.7-0.8s-0.6-0.5-0.8-0.8s-0.2-0.6-0.2-1c0-0.7,0.3-1.2,0.8-1.6s1.3-0.6,2.3-0.6c0.9,0,1.8,0.2,2.7,0.6l-0.5,1.1
		c-0.9-0.4-1.6-0.5-2.3-0.5c-0.6,0-1.1,0.1-1.4,0.3c-0.3,0.2-0.5,0.5-0.5,0.8c0,0.2,0.1,0.4,0.2,0.6c0.1,0.2,0.3,0.3,0.6,0.5
		c0.3,0.1,0.8,0.4,1.5,0.6c1,0.4,1.7,0.7,2.1,1.1C100.5,241.2,100.7,241.7,100.7,242.3z"/>
	<path d="M109,236v5.6c0,0.7,0.2,1.2,0.5,1.6s0.8,0.5,1.5,0.5c0.9,0,1.6-0.2,2-0.7c0.4-0.5,0.6-1.3,0.6-2.4V236h1.3v8.6h-1.1
		l-0.2-1.1h-0.1c-0.3,0.4-0.6,0.8-1.1,1c-0.5,0.2-1,0.3-1.6,0.3c-1,0-1.8-0.2-2.3-0.7s-0.8-1.3-0.8-2.4V236H109z"/>
	<path d="M123.8,244.6v-5.5c0-0.7-0.2-1.2-0.5-1.6s-0.8-0.5-1.5-0.5c-0.9,0-1.6,0.2-2,0.7c-0.4,0.5-0.6,1.3-0.6,2.4v4.5H118V236h1.1
		l0.2,1.2h0.1c0.3-0.4,0.6-0.8,1.1-1s1-0.4,1.6-0.4c1,0,1.8,0.2,2.3,0.8c0.5,0.5,0.8,1.3,0.8,2.4v5.6L123.8,244.6L123.8,244.6z"/>
	<path d="M133.4,244.6l-0.3-1.2h-0.1c-0.4,0.5-0.9,0.9-1.3,1.1c-0.4,0.2-0.9,0.3-1.6,0.3c-0.9,0-1.5-0.2-2-0.7
		c-0.5-0.4-0.7-1.1-0.7-1.9c0-1.7,1.4-2.6,4.1-2.7l1.4-0.1v-0.5c0-0.7-0.1-1.2-0.4-1.5s-0.8-0.5-1.4-0.5c-0.7,0-1.5,0.2-2.4,0.7
		l-0.4-1c0.4-0.2,0.9-0.4,1.4-0.5c0.5-0.1,1-0.2,1.5-0.2c1,0,1.8,0.2,2.3,0.7s0.7,1.2,0.7,2.2v5.8L133.4,244.6L133.4,244.6
		L133.4,244.6z M130.5,243.7c0.8,0,1.4-0.2,1.9-0.7c0.5-0.4,0.7-1.1,0.7-1.9v-0.8l-1.3,0.1c-1,0-1.8,0.2-2.2,0.5
		c-0.5,0.3-0.7,0.7-0.7,1.3c0,0.5,0.1,0.8,0.4,1.1C129.6,243.6,130,243.7,130.5,243.7z"/>
	<path d="M145.5,244.8c-1.2,0-2.2-0.4-2.9-1.1c-0.7-0.8-1-1.8-1-3.2c0-1.4,0.3-2.5,1-3.3c0.7-0.8,1.7-1.2,2.9-1.2
		c0.4,0,0.8,0,1.2,0.1c0.4,0.1,0.7,0.2,1,0.3l-0.4,1.1c-0.3-0.1-0.6-0.2-0.9-0.3c-0.3-0.1-0.6-0.1-0.9-0.1c-1.7,0-2.6,1.1-2.6,3.3
		c0,1.1,0.2,1.9,0.6,2.4c0.4,0.6,1.1,0.8,1.9,0.8c0.7,0,1.4-0.1,2.2-0.5v1.1C147.1,244.6,146.3,244.8,145.5,244.8z"/>
	<path d="M151.4,244.6h-1.3v-12.2h1.3V244.6z"/>
	<path d="M159.8,244.6l-0.3-1.2h-0.1c-0.4,0.5-0.9,0.9-1.3,1.1c-0.4,0.2-0.9,0.3-1.6,0.3c-0.9,0-1.5-0.2-2-0.7
		c-0.5-0.4-0.7-1.1-0.7-1.9c0-1.7,1.4-2.6,4.1-2.7l1.4-0.1v-0.5c0-0.7-0.1-1.2-0.4-1.5s-0.8-0.5-1.4-0.5c-0.7,0-1.5,0.2-2.4,0.7
		l-0.4-1c0.4-0.2,0.9-0.4,1.4-0.5c0.5-0.1,1-0.2,1.5-0.2c1,0,1.8,0.2,2.3,0.7s0.7,1.2,0.7,2.2v5.8L159.8,244.6L159.8,244.6
		L159.8,244.6z M156.8,243.7c0.8,0,1.4-0.2,1.9-0.7c0.5-0.4,0.7-1.1,0.7-1.9v-0.8l-1.3,0.1c-1,0-1.8,0.2-2.2,0.5
		c-0.5,0.3-0.7,0.7-0.7,1.3c0,0.5,0.1,0.8,0.4,1.1C155.9,243.6,156.3,243.7,156.8,243.7z"/>
	<path d="M165.7,244.6l-3.2-8.6h1.4l1.8,5.1c0.4,1.2,0.7,2,0.7,2.3h0.1c0.1-0.3,0.2-0.9,0.5-1.7s1-2.8,2.1-5.7h1.4l-3.2,8.6H165.7z"
		/>
	<path d="M175.8,244.8c-1.3,0-2.3-0.4-3-1.2c-0.7-0.8-1.1-1.8-1.1-3.2c0-1.4,0.3-2.5,1-3.3s1.6-1.2,2.7-1.2c1.1,0,1.9,0.4,2.6,1.1
		c0.6,0.7,0.9,1.6,0.9,2.8v0.8h-5.9c0,1,0.3,1.8,0.8,2.3c0.5,0.5,1.2,0.8,2,0.8c0.9,0,1.8-0.2,2.7-0.6v1.2c-0.5,0.2-0.9,0.3-1.3,0.4
		C176.9,244.7,176.4,244.8,175.8,244.8z M175.5,237c-0.7,0-1.2,0.2-1.6,0.7c-0.4,0.4-0.6,1.1-0.7,1.9h4.5c0-0.8-0.2-1.4-0.6-1.9
		C176.7,237.2,176.2,237,175.5,237z"/>
	<path d="M188.9,243.7c0.2,0,0.4,0,0.7-0.1s0.4-0.1,0.5-0.1v1c-0.1,0.1-0.4,0.1-0.6,0.2c-0.3,0-0.5,0.1-0.7,0.1
		c-1.7,0-2.5-0.9-2.5-2.6V237H185v-0.6l1.2-0.5l0.6-1.8h0.8v2h2.5v1h-2.5v5c0,0.5,0.1,0.9,0.4,1.2
		C188.2,243.5,188.5,243.7,188.9,243.7z"/>
	<path d="M195.8,244.8c-1.3,0-2.3-0.4-3-1.2c-0.7-0.8-1.1-1.8-1.1-3.2c0-1.4,0.3-2.5,1-3.3s1.6-1.2,2.7-1.2c1.1,0,1.9,0.4,2.6,1.1
		c0.6,0.7,0.9,1.6,0.9,2.8v0.8h-5.9c0,1,0.3,1.8,0.8,2.3c0.5,0.5,1.2,0.8,2,0.8c0.9,0,1.8-0.2,2.7-0.6v1.2c-0.5,0.2-0.9,0.3-1.3,0.4
		C196.9,244.7,196.4,244.8,195.8,244.8z M195.5,237c-0.7,0-1.2,0.2-1.6,0.7c-0.4,0.4-0.6,1.1-0.7,1.9h4.5c0-0.8-0.2-1.4-0.6-1.9
		C196.7,237.2,196.1,237,195.5,237z"/>
	<path d="M212.5,244.6V239c0-0.7-0.1-1.2-0.4-1.5c-0.3-0.3-0.8-0.5-1.4-0.5c-0.8,0-1.4,0.2-1.8,0.7c-0.4,0.5-0.6,1.2-0.6,2.1v4.8
		H207V239c0-0.7-0.1-1.2-0.4-1.5c-0.3-0.3-0.8-0.5-1.4-0.5c-0.8,0-1.4,0.2-1.8,0.7c-0.4,0.5-0.6,1.3-0.6,2.4v4.5h-1.3V236h1.1
		l0.2,1.2h0.1c0.2-0.4,0.6-0.7,1-1s0.9-0.4,1.5-0.4c1.3,0,2.2,0.5,2.6,1.4h0.1c0.2-0.4,0.6-0.8,1.1-1.1c0.5-0.3,1-0.4,1.7-0.4
		c1,0,1.7,0.2,2.2,0.8c0.5,0.5,0.7,1.3,0.7,2.4v5.6H212.5z"/>
	<path d="M220.9,244.8c-0.6,0-1.1-0.1-1.5-0.3s-0.9-0.5-1.2-0.9h-0.1c0.1,0.5,0.1,1,0.1,1.4v3.5h-1.3V236h1.1l0.2,1.2h0.1
		c0.3-0.5,0.7-0.8,1.2-1s0.9-0.3,1.5-0.3c1.1,0,2,0.4,2.6,1.2c0.6,0.8,0.9,1.9,0.9,3.3s-0.3,2.5-0.9,3.3
		C222.8,244.4,222,244.8,220.9,244.8z M220.7,237c-0.9,0-1.5,0.2-1.9,0.7s-0.6,1.3-0.6,2.3v0.3c0,1.2,0.2,2.1,0.6,2.6
		c0.4,0.5,1,0.8,1.9,0.8c0.7,0,1.3-0.3,1.7-0.9c0.4-0.6,0.6-1.4,0.6-2.5c0-1.1-0.2-1.9-0.6-2.5C222,237.3,221.4,237,220.7,237z"/>
	<path d="M234.5,240.3c0,1.4-0.4,2.5-1.1,3.3s-1.7,1.2-2.9,1.2c-0.8,0-1.4-0.2-2-0.5s-1.1-0.9-1.4-1.6c-0.3-0.7-0.5-1.5-0.5-2.4
		c0-1.4,0.4-2.5,1.1-3.3s1.7-1.2,2.9-1.2c1.2,0,2.1,0.4,2.9,1.2C234.1,237.9,234.5,238.9,234.5,240.3z M227.9,240.3
		c0,1.1,0.2,1.9,0.7,2.5s1.1,0.9,1.9,0.9c0.9,0,1.5-0.3,1.9-0.9c0.4-0.6,0.7-1.4,0.7-2.5c0-1.1-0.2-1.9-0.7-2.5s-1.1-0.9-1.9-0.9
		c-0.9,0-1.5,0.3-1.9,0.8S227.9,239.2,227.9,240.3z"/>
	<path d="M241,235.9c0.4,0,0.7,0,1,0.1l-0.2,1.2c-0.4-0.1-0.7-0.1-0.9-0.1c-0.7,0-1.3,0.3-1.8,0.8s-0.7,1.3-0.7,2.1v4.6h-1.3V236
		h1.1l0.1,1.6h0.1c0.3-0.6,0.7-1,1.1-1.3C240,236,240.5,235.9,241,235.9z"/>
	<path d="M249.3,244.6l-0.3-1.2H249c-0.4,0.5-0.9,0.9-1.3,1.1c-0.4,0.2-0.9,0.3-1.6,0.3c-0.9,0-1.5-0.2-2-0.7
		c-0.5-0.4-0.7-1.1-0.7-1.9c0-1.7,1.4-2.6,4.1-2.7l1.4-0.1v-0.5c0-0.7-0.1-1.2-0.4-1.5s-0.8-0.5-1.4-0.5c-0.7,0-1.5,0.2-2.4,0.7
		l-0.4-1c0.4-0.2,0.9-0.4,1.4-0.5c0.5-0.1,1-0.2,1.5-0.2c1,0,1.8,0.2,2.3,0.7s0.7,1.2,0.7,2.2v5.8L249.3,244.6L249.3,244.6
		L249.3,244.6z M246.4,243.7c0.8,0,1.4-0.2,1.9-0.7c0.5-0.4,0.7-1.1,0.7-1.9v-0.8l-1.3,0.1c-1,0-1.8,0.2-2.2,0.5
		c-0.5,0.3-0.7,0.7-0.7,1.3c0,0.5,0.1,0.8,0.4,1.1C245.5,243.6,245.9,243.7,246.4,243.7z"/>
	<path d="M254.7,244.6h-1.3v-12.2h1.3V244.6z"/>
</g>
<circle class="st2" cx="31.9" cy="30.5" r="30.8"/>
<g>
	<path class="st1" d="M44.2,39.8h-4v7h-6.9v-7H18.9v-4.9l14.7-21.7h6.5v21.1h4L44.2,39.8L44.2,39.8z M33.2,34.3v-5.7
		c0-1,0-2.3,0.1-4.1c0.1-1.8,0.1-2.9,0.2-3.1h-0.2c-0.6,1.3-1.2,2.5-2,3.7l-6.1,9.3L33.2,34.3L33.2,34.3z"/>
</g>
<polygon class="st3" points="206.7,99.2 150.6,141.7 95,99.2 "/>
<polygon class="st4" points="95,99.2 151.1,46.4 206.7,99.2 "/>
<rect x="105.8" y="51.6" class="st1" width="88.1" height="108.9"/>
<polygon class="st5" points="206.7,99.2 206.7,172.1 94.8,172.1 94.8,99.2 150.6,141.7 "/>
<circle class="st1" cx="201.6" cy="160.4" r="19.3"/>
<g>
	<path d="M205.1,170.6h-4.4v-12.1l0-2l0.1-2.2c-0.7,0.7-1.2,1.2-1.5,1.4l-2.4,1.9l-2.1-2.7l6.8-5.4h3.6L205.1,170.6L205.1,170.6
		L205.1,170.6z"/>
</g>
<g>
	<path class="st0" d="M176.6,97.1h-53.2c-5.8,0-10.5-4.7-10.5-10.5l0,0c0-5.8,4.7-10.5,10.5-10.5h53.2c5.8,0,10.5,4.7,10.5,10.5l0,0
		C187.1,92.3,182.4,97.1,176.6,97.1z"/>
	<g>
		<g>
			<path class="st6" d="M127.4,82l-3,3.9V86l4.8-0.6v2.2l-4.8-0.6V87l3,3.8l-2,1.1l-1.9-4.4h-0.1l-2.1,4.4l-1.8-1.1l3-3.8v-0.1
				l-4.7,0.6v-2.2l4.6,0.6v-0.1l-3-3.8l1.9-1.1l2,4.4h0.1l1.9-4.4L127.4,82z"/>
		</g>
		<g>
			<path class="st6" d="M145,82l-3,3.9V86l4.8-0.6v2.2L142,87V87l3,3.8l-2,1.1l-1.9-4.4h-0.1l-2.1,4.4l-1.8-1.1l3-3.8v-0.1l-4.7,0.6
				v-2.2l4.6,0.6v-0.1l-3-3.8l1.9-1.1l2,4.4h0.1l1.9-4.4L145,82z"/>
		</g>
		<g>
			<path class="st6" d="M180.3,82l-3,3.9V86l4.8-0.6v2.2l-4.8-0.6V87l3,3.8l-2,1.1l-1.9-4.4h-0.1l-2.1,4.4l-1.8-1.1l3-3.8v-0.1
				l-4.7,0.6v-2.2l4.6,0.6v-0.1l-3-3.8l1.9-1.1l2,4.4h0.1l1.9-4.4L180.3,82z"/>
		</g>
		<g>
			<path class="st6" d="M162.7,82l-3,3.9V86l4.8-0.6v2.2l-4.8-0.6V87l3,3.8l-2,1.1l-1.9-4.4h-0.1l-2.1,4.4l-1.8-1.1l3-3.8v-0.1
				l-4.7,0.6v-2.2l4.6,0.6v-0.1l-3-3.8l1.9-1.1l2,4.4h0.1l1.9-4.4L162.7,82z"/>
		</g>
	</g>
</g>
</svg>
