<?xml version="1.0" encoding="utf-8"?>
<!-- Generator: Adobe Illustrator 23.0.1, SVG Export Plug-In . SVG Version: 6.00 Build 0)  -->
<svg version="1.1" id="Capa_1" xmlns="http://www.w3.org/2000/svg" xmlns:xlink="http://www.w3.org/1999/xlink" x="0px" y="0px"
	 viewBox="0 0 293.5 293.3" style="enable-background:new 0 0 293.5 293.3;" xml:space="preserve">
<style type="text/css">
	.st0{fill:#D4D1D9;}
	.st1{fill:#FFFFFF;}
	.st2{fill:#5B9E95;}
	.st3{fill:#0F3E61;}
	.st4{fill:#00E3BE;}
	.st5{enable-background:new    ;}
	.st6{fill:none;stroke:#0F3E61;stroke-width:3;stroke-linecap:round;stroke-miterlimit:10;}
</style>
<g>
	<rect x="17" y="27.7" class="st0" width="253.4" height="241.9"/>
	<rect x="17" y="195.7" class="st1" width="253.4" height="74"/>
</g>
<g>
	<path d="M104.7,225.4h-1.5v-6.1h-6.8v6.1h-1.5v-12.9h1.5v5.5h6.8v-5.5h1.5L104.7,225.4L104.7,225.4z"/>
	<path d="M113.9,225.4l-0.3-1.4h-0.1c-0.5,0.6-1,1-1.4,1.2s-1.1,0.3-1.8,0.3c-1,0-1.7-0.2-2.2-0.7s-0.8-1.2-0.8-2.1
		c0-1.9,1.6-3,4.7-3.1l1.6-0.1V219c0-0.8-0.2-1.3-0.5-1.7s-0.8-0.5-1.6-0.5c-0.8,0-1.7,0.2-2.7,0.7l-0.4-1.1c0.5-0.3,1-0.5,1.6-0.6
		s1.1-0.2,1.7-0.2c1.2,0,2,0.2,2.6,0.8s0.8,1.3,0.8,2.4v6.6L113.9,225.4L113.9,225.4z M110.6,224.4c0.9,0,1.6-0.2,2.1-0.8
		s0.8-1.2,0.8-2.1v-0.9l-1.5,0.1c-1.2,0-2,0.2-2.5,0.5s-0.8,0.8-0.8,1.5c0,0.5,0.2,0.9,0.5,1.2S110,224.4,110.6,224.4z"/>
	<path d="M124.1,225.4h-7v-1l5.3-7.5h-4.9v-1.1h6.5v1.1l-5.2,7.4h5.3V225.4z"/>
	<path d="M134.9,225.6c-1.4,0-2.5-0.4-3.2-1.3s-1.1-2.1-1.1-3.6c0-1.6,0.4-2.9,1.2-3.7s1.9-1.3,3.3-1.3c0.5,0,0.9,0.1,1.4,0.1
		s0.8,0.2,1.1,0.4l-0.4,1.2c-0.3-0.1-0.7-0.2-1.1-0.3s-0.7-0.1-1-0.1c-2,0-2.9,1.2-2.9,3.7c0,1.2,0.2,2.1,0.7,2.7s1.2,0.9,2.1,0.9
		c0.8,0,1.6-0.2,2.5-0.5v1.3C136.7,225.4,135.9,225.6,134.9,225.6z"/>
	<path d="M141.1,225.4h-1.5v-13.7h1.5V225.4z"/>
	<path d="M144.1,213.1c0-0.3,0.1-0.6,0.2-0.7s0.4-0.2,0.6-0.2c0.2,0,0.4,0.1,0.6,0.2s0.2,0.4,0.2,0.7s-0.1,0.6-0.2,0.7
		s-0.4,0.2-0.6,0.2c-0.2,0-0.4-0.1-0.6-0.2S144.1,213.5,144.1,213.1z M145.6,225.4h-1.5v-9.6h1.5V225.4z"/>
	<path d="M152.6,225.6c-1.4,0-2.5-0.4-3.2-1.3s-1.1-2.1-1.1-3.6c0-1.6,0.4-2.9,1.2-3.7s1.9-1.3,3.3-1.3c0.5,0,0.9,0.1,1.4,0.1
		s0.8,0.2,1.1,0.4l-0.4,1.2c-0.3-0.1-0.7-0.2-1.1-0.3s-0.7-0.1-1-0.1c-2,0-2.9,1.2-2.9,3.7c0,1.2,0.2,2.1,0.7,2.7s1.2,0.9,2.1,0.9
		c0.8,0,1.6-0.2,2.5-0.5v1.3C154.4,225.4,153.6,225.6,152.6,225.6z"/>
	<path d="M158.8,220.4c0.2-0.4,0.6-0.8,1.1-1.4l3.1-3.3h1.7l-3.9,4.1l4.2,5.5h-1.8l-3.4-4.6l-1.1,0.9v3.6h-1.4v-13.7h1.4v7.2
		C158.7,219.3,158.7,219.8,158.8,220.4L158.8,220.4L158.8,220.4z"/>
	<path d="M175.5,225.6c-1.4,0-2.6-0.4-3.4-1.3s-1.2-2.1-1.2-3.6c0-1.6,0.4-2.8,1.1-3.7s1.8-1.4,3.1-1.4c1.2,0,2.2,0.4,2.9,1.2
		s1.1,1.8,1.1,3.1v0.9h-6.6c0,1.1,0.3,2,0.9,2.6s1.3,0.9,2.3,0.9c1,0,2.1-0.2,3.1-0.6v1.3c-0.5,0.2-1,0.4-1.5,0.5
		S176.2,225.6,175.5,225.6z M175.1,216.8c-0.8,0-1.4,0.2-1.9,0.8s-0.7,1.2-0.8,2.1h5c0-0.9-0.2-1.6-0.6-2.1S175.9,216.8,175.1,216.8
		z"/>
	<path d="M188.1,225.4v-6.2c0-0.8-0.2-1.4-0.5-1.8s-0.9-0.6-1.7-0.6c-1,0-1.8,0.3-2.2,0.8s-0.7,1.4-0.7,2.7v5.1h-1.5v-9.6h1.2
		l0.2,1.3h0.1c0.3-0.5,0.7-0.8,1.3-1.1s1.1-0.4,1.8-0.4c1.2,0,2,0.3,2.6,0.8s0.9,1.4,0.9,2.7v6.3L188.1,225.4L188.1,225.4
		L188.1,225.4z"/>
	<path d="M101.1,240.8c0,2.1-0.6,3.7-1.7,4.9s-2.8,1.7-5,1.7h-3.6v-12.9h3.9c2,0,3.6,0.6,4.7,1.7S101.1,238.8,101.1,240.8z
		 M99.5,240.9c0-1.7-0.4-2.9-1.3-3.8s-2.1-1.3-3.8-1.3h-2.2v10.3h1.8c1.8,0,3.1-0.4,4-1.3S99.5,242.6,99.5,240.9z"/>
	<path d="M112.1,242.6c0,1.6-0.4,2.8-1.2,3.7s-1.9,1.3-3.3,1.3c-0.9,0-1.6-0.2-2.3-0.6s-1.2-1-1.6-1.7s-0.5-1.6-0.5-2.6
		c0-1.6,0.4-2.8,1.2-3.7s1.9-1.3,3.3-1.3c1.3,0,2.4,0.4,3.2,1.3S112.1,241,112.1,242.6z M104.7,242.6c0,1.2,0.2,2.2,0.7,2.8
		s1.2,1,2.2,1s1.7-0.3,2.2-1s0.7-1.6,0.7-2.8c0-1.2-0.2-2.1-0.7-2.8s-1.2-0.9-2.2-0.9s-1.7,0.3-2.2,0.9S104.7,241.3,104.7,242.6z"/>
	<path d="M121.2,247.4v-6.2c0-0.8-0.2-1.4-0.5-1.8s-0.9-0.6-1.7-0.6c-1,0-1.8,0.3-2.2,0.8s-0.7,1.4-0.7,2.7v5.1h-1.5v-9.6h1.2
		l0.2,1.3h0.1c0.3-0.5,0.7-0.8,1.3-1.1s1.1-0.4,1.8-0.4c1.2,0,2,0.3,2.6,0.8s0.9,1.4,0.9,2.7v6.3L121.2,247.4
		C121.2,247.4,121.2,247.4,121.2,247.4z"/>
	<path d="M131.6,247.4l-0.3-1.4h-0.1c-0.5,0.6-1,1-1.4,1.2s-1.1,0.3-1.8,0.3c-1,0-1.7-0.2-2.2-0.7s-0.8-1.2-0.8-2.1
		c0-1.9,1.6-3,4.7-3.1l1.6-0.1V241c0-0.8-0.2-1.3-0.5-1.7s-0.9-0.5-1.6-0.5c-0.8,0-1.7,0.2-2.7,0.7l-0.4-1.1c0.5-0.3,1-0.5,1.6-0.6
		c0.6-0.1,1.1-0.2,1.7-0.2c1.1,0,2,0.2,2.6,0.8s0.8,1.3,0.8,2.4v6.6L131.6,247.4L131.6,247.4z M128.3,246.4c0.9,0,1.6-0.2,2.1-0.8
		s0.8-1.2,0.8-2.1v-0.9l-1.5,0.1c-1.2,0-2,0.2-2.5,0.5s-0.8,0.8-0.8,1.5c0,0.5,0.2,0.9,0.5,1.2S127.7,246.4,128.3,246.4z"/>
	<path d="M143.5,246.4c0.3,0,0.5,0,0.8-0.1s0.4-0.1,0.6-0.1v1.1c-0.2,0.1-0.4,0.1-0.7,0.2s-0.6,0.1-0.8,0.1c-1.9,0-2.8-1-2.8-2.9
		v-5.7h-1.4v-0.7l1.4-0.6l0.6-2.1h0.8v2.2h2.8v1.1h-2.8v5.7c0,0.6,0.1,1,0.4,1.3S143,246.4,143.5,246.4z"/>
	<path d="M148.1,237.7v6.2c0,0.8,0.2,1.4,0.5,1.8s0.9,0.6,1.7,0.6c1,0,1.7-0.3,2.2-0.8s0.7-1.4,0.7-2.7v-5.1h1.5v9.6h-1.2l-0.2-1.3
		h-0.1c-0.3,0.5-0.7,0.8-1.2,1.1s-1.1,0.4-1.8,0.4c-1.2,0-2.1-0.3-2.6-0.8s-0.9-1.4-0.9-2.7v-6.3L148.1,237.7L148.1,237.7
		L148.1,237.7z"/>
	<path d="M163.9,247.4h-1.5v-13.7h1.5V247.4z"/>
	<path d="M168.4,237.7v6.2c0,0.8,0.2,1.4,0.5,1.8s0.9,0.6,1.7,0.6c1,0,1.7-0.3,2.2-0.8s0.7-1.4,0.7-2.7v-5.1h1.5v9.6h-1.2l-0.2-1.3
		h-0.1c-0.3,0.5-0.7,0.8-1.2,1.1s-1.1,0.4-1.8,0.4c-1.2,0-2.1-0.3-2.6-0.8s-0.9-1.4-0.9-2.7v-6.3L168.4,237.7L168.4,237.7
		L168.4,237.7z"/>
	<path d="M181.9,247.6c-1.4,0-2.5-0.4-3.2-1.3s-1.1-2.1-1.1-3.6c0-1.6,0.4-2.9,1.2-3.7s1.9-1.3,3.3-1.3c0.5,0,0.9,0.1,1.4,0.1
		s0.8,0.2,1.1,0.4l-0.4,1.2c-0.3-0.1-0.7-0.2-1.1-0.3s-0.7-0.1-1-0.1c-2,0-2.9,1.2-2.9,3.7c0,1.2,0.2,2.1,0.7,2.7s1.2,0.9,2.1,0.9
		c0.8,0,1.6-0.2,2.5-0.5v1.3C183.7,247.4,182.9,247.6,181.9,247.6z"/>
	<path d="M192.5,247.4l-0.3-1.4h-0.1c-0.5,0.6-1,1-1.4,1.2s-1.1,0.3-1.8,0.3c-1,0-1.7-0.2-2.2-0.7s-0.8-1.2-0.8-2.1
		c0-1.9,1.6-3,4.7-3.1l1.6-0.1V241c0-0.8-0.2-1.3-0.5-1.7s-0.9-0.5-1.6-0.5c-0.8,0-1.7,0.2-2.7,0.7l-0.4-1.1c0.5-0.3,1-0.5,1.6-0.6
		s1.1-0.2,1.7-0.2c1.1,0,2,0.2,2.6,0.8s0.8,1.3,0.8,2.4v6.6L192.5,247.4L192.5,247.4z M189.2,246.4c0.9,0,1.6-0.2,2.1-0.8
		s0.8-1.2,0.8-2.1v-0.9l-1.5,0.1c-1.2,0-2,0.2-2.5,0.5s-0.8,0.8-0.8,1.5c0,0.5,0.2,0.9,0.5,1.2S188.7,246.4,189.2,246.4z"/>
</g>
<path class="st2" d="M213.4,119.5H65.8c-10.8,0-19.5-8.8-19.5-19.5l0,0c0-10.8,8.8-19.5,19.5-19.5h147.6c10.8,0,19.5,8.8,19.5,19.5
	l0,0C233,110.8,224.2,119.5,213.4,119.5z"/>
<g>
	<path class="st1" d="M75.2,97.6c0,2.3-0.7,4.2-2,5.4s-3.3,1.9-5.8,1.9h-4V90.6h4.5c2.3,0,4.1,0.6,5.4,1.8S75.2,95.4,75.2,97.6z
		 M72.1,97.7c0-3.1-1.3-4.6-4.1-4.6h-1.6v9.3h1.3C70.6,102.4,72.1,100.8,72.1,97.7z"/>
	<path class="st1" d="M87.5,99.4c0,1.8-0.5,3.2-1.4,4.2s-2.2,1.5-3.9,1.5c-1.1,0-2-0.2-2.8-0.7s-1.4-1.1-1.8-2s-0.6-1.9-0.6-3
		c0-1.8,0.5-3.2,1.4-4.2c0.9-1,2.2-1.5,3.9-1.5c1.1,0,2,0.2,2.8,0.7c0.8,0.5,1.4,1.1,1.8,2C87.3,97.2,87.5,98.2,87.5,99.4z
		 M79.9,99.4c0,1.1,0.2,1.9,0.5,2.4c0.3,0.6,0.9,0.8,1.7,0.8c0.8,0,1.4-0.3,1.7-0.8c0.3-0.6,0.5-1.4,0.5-2.5c0-1.1-0.2-1.9-0.5-2.4
		s-0.9-0.8-1.7-0.8c-0.8,0-1.4,0.3-1.7,0.8S79.9,98.3,79.9,99.4z"/>
	<path class="st1" d="M99.6,104.9h-3v-6.4c0-0.8-0.1-1.4-0.4-1.8s-0.7-0.6-1.3-0.6c-0.8,0-1.4,0.3-1.8,0.8s-0.6,1.5-0.6,2.8v5.1h-3
		V93.9h2.3l0.4,1.4h0.2c0.3-0.5,0.8-0.9,1.4-1.2s1.2-0.4,2-0.4c1.3,0,2.2,0.3,2.9,1c0.7,0.7,1,1.7,1,3V104.9z"/>
	<path class="st1" d="M109.2,104.9l-0.6-1.5h-0.1c-0.5,0.6-1,1.1-1.6,1.3c-0.5,0.2-1.2,0.4-2.1,0.4c-1.1,0-1.9-0.3-2.5-0.9
		c-0.6-0.6-0.9-1.4-0.9-2.6c0-1.2,0.4-2,1.2-2.6c0.8-0.6,2-0.8,3.7-0.9l1.9-0.1v-0.5c0-1.1-0.6-1.7-1.7-1.7c-0.9,0-1.9,0.3-3.1,0.8
		l-1-2c1.3-0.7,2.7-1,4.2-1c1.5,0,2.6,0.3,3.4,1c0.8,0.6,1.2,1.6,1.2,2.9v7.3L109.2,104.9L109.2,104.9z M108.3,99.8l-1.2,0
		c-0.9,0-1.5,0.2-1.9,0.5s-0.6,0.7-0.6,1.3c0,0.8,0.5,1.3,1.4,1.3c0.7,0,1.2-0.2,1.7-0.6c0.4-0.4,0.6-0.9,0.6-1.6L108.3,99.8
		L108.3,99.8z"/>
	<path class="st1" d="M128.5,104.9h-3v-6.4c0-0.8-0.1-1.4-0.4-1.8c-0.3-0.4-0.7-0.6-1.2-0.6c-0.8,0-1.3,0.3-1.7,0.8
		c-0.3,0.6-0.5,1.5-0.5,2.8v5.1h-3V93.9h2.3l0.4,1.4h0.2c0.3-0.5,0.7-0.9,1.3-1.2c0.6-0.3,1.2-0.4,1.9-0.4c1.6,0,2.7,0.5,3.3,1.6
		h0.3c0.3-0.5,0.7-0.9,1.3-1.2c0.6-0.3,1.2-0.4,1.9-0.4c1.2,0,2.2,0.3,2.8,0.9s0.9,1.7,0.9,3.1v7.1h-3v-6.4c0-0.8-0.1-1.4-0.4-1.8
		c-0.3-0.4-0.7-0.6-1.2-0.6c-0.7,0-1.3,0.3-1.6,0.8c-0.4,0.5-0.5,1.3-0.5,2.5L128.5,104.9L128.5,104.9L128.5,104.9z"/>
	<path class="st1" d="M142.9,105.1c-1.8,0-3.1-0.5-4.1-1.5c-1-1-1.5-2.3-1.5-4.1c0-1.8,0.5-3.2,1.4-4.2c0.9-1,2.2-1.5,3.8-1.5
		c1.5,0,2.7,0.4,3.6,1.3s1.3,2.1,1.3,3.6v1.4h-7c0,0.8,0.3,1.5,0.8,2c0.5,0.5,1.1,0.7,2,0.7c0.7,0,1.3-0.1,1.9-0.2s1.2-0.3,1.8-0.7
		v2.3c-0.5,0.3-1.1,0.4-1.7,0.6C144.5,105,143.8,105.1,142.9,105.1z M142.5,95.9c-0.6,0-1.1,0.2-1.5,0.6c-0.4,0.4-0.6,1-0.6,1.7h4.2
		c0-0.7-0.2-1.3-0.6-1.7S143.2,95.9,142.5,95.9z"/>
	<path class="st1" d="M157,101.6c0,1.1-0.4,2-1.2,2.6s-1.9,0.9-3.5,0.9c-0.8,0-1.5-0.1-2-0.2s-1.1-0.3-1.6-0.5V102
		c0.6,0.3,1.2,0.5,1.9,0.7s1.3,0.3,1.8,0.3c1.1,0,1.6-0.3,1.6-0.9c0-0.2-0.1-0.4-0.2-0.6s-0.4-0.3-0.7-0.5s-0.8-0.4-1.4-0.7
		c-0.8-0.3-1.5-0.7-1.9-1s-0.7-0.6-0.9-1c-0.2-0.4-0.3-0.9-0.3-1.4c0-1,0.4-1.7,1.1-2.2s1.8-0.8,3.2-0.8c1.3,0,2.6,0.3,3.8,0.9
		l-0.9,2.2c-0.6-0.2-1.1-0.4-1.5-0.6c-0.5-0.2-1-0.2-1.5-0.2c-0.9,0-1.3,0.2-1.3,0.7c0,0.3,0.1,0.5,0.4,0.7s0.9,0.5,1.9,0.9
		c0.9,0.3,1.5,0.7,1.9,1c0.4,0.3,0.7,0.6,0.9,1C156.9,100.6,157,101.1,157,101.6z"/>
	<path class="st1" d="M170.7,104.9l-0.6-1.5H170c-0.5,0.6-1,1.1-1.6,1.3s-1.2,0.4-2.1,0.4c-1.1,0-1.9-0.3-2.5-0.9
		c-0.6-0.6-0.9-1.4-0.9-2.6c0-1.2,0.4-2,1.2-2.6c0.8-0.6,2-0.8,3.7-0.9l1.9-0.1v-0.5c0-1.1-0.6-1.7-1.7-1.7c-0.9,0-1.9,0.3-3.1,0.8
		l-1-2c1.3-0.7,2.6-1,4.2-1c1.5,0,2.6,0.3,3.4,1s1.2,1.6,1.2,2.9v7.3L170.7,104.9L170.7,104.9z M169.8,99.8l-1.1,0
		c-0.9,0-1.5,0.2-1.9,0.5s-0.6,0.7-0.6,1.3c0,0.8,0.5,1.3,1.4,1.3c0.7,0,1.2-0.2,1.7-0.6c0.4-0.4,0.6-0.9,0.6-1.6L169.8,99.8
		L169.8,99.8z"/>
	<path class="st1" d="M190,104.9h-3v-6.4c0-0.8-0.1-1.4-0.4-1.8c-0.3-0.4-0.7-0.6-1.2-0.6c-0.8,0-1.3,0.3-1.7,0.8
		c-0.4,0.6-0.5,1.5-0.5,2.8v5.1h-3V93.9h2.3l0.4,1.4h0.2c0.3-0.5,0.7-0.9,1.3-1.2c0.6-0.3,1.2-0.4,1.9-0.4c1.6,0,2.7,0.5,3.3,1.6
		h0.3c0.3-0.5,0.7-0.9,1.3-1.2c0.6-0.3,1.2-0.4,1.9-0.4c1.2,0,2.2,0.3,2.8,0.9s0.9,1.7,0.9,3.1v7.1h-3v-6.4c0-0.8-0.1-1.4-0.4-1.8
		c-0.3-0.4-0.7-0.6-1.2-0.6c-0.7,0-1.3,0.3-1.6,0.8c-0.4,0.5-0.5,1.3-0.5,2.5L190,104.9L190,104.9L190,104.9z"/>
	<path class="st1" d="M204.4,105.1c-1.8,0-3.1-0.5-4.1-1.5c-1-1-1.5-2.3-1.5-4.1c0-1.8,0.5-3.2,1.4-4.2c0.9-1,2.2-1.5,3.8-1.5
		c1.5,0,2.7,0.4,3.6,1.3s1.3,2.1,1.3,3.6v1.4h-7c0,0.8,0.3,1.5,0.8,2c0.5,0.5,1.1,0.7,2,0.7c0.7,0,1.3-0.1,1.9-0.2s1.2-0.3,1.8-0.7
		v2.3c-0.5,0.3-1.1,0.4-1.7,0.6C206,105,205.3,105.1,204.4,105.1z M204,95.9c-0.6,0-1.1,0.2-1.5,0.6c-0.4,0.4-0.6,1-0.6,1.7h4.2
		c0-0.7-0.2-1.3-0.6-1.7S204.6,95.9,204,95.9z"/>
	<path class="st1" d="M218.5,101.6c0,1.1-0.4,2-1.2,2.6s-1.9,0.9-3.5,0.9c-0.8,0-1.5-0.1-2-0.2s-1.1-0.3-1.6-0.5V102
		c0.6,0.3,1.2,0.5,1.9,0.7s1.3,0.3,1.8,0.3c1.1,0,1.6-0.3,1.6-0.9c0-0.2-0.1-0.4-0.2-0.6s-0.4-0.3-0.7-0.5s-0.8-0.4-1.4-0.7
		c-0.8-0.3-1.5-0.7-1.9-1s-0.7-0.6-0.9-1c-0.2-0.4-0.3-0.9-0.3-1.4c0-1,0.4-1.7,1.1-2.2s1.8-0.8,3.2-0.8c1.3,0,2.6,0.3,3.8,0.9
		l-0.9,2.2c-0.6-0.2-1.1-0.4-1.5-0.6c-0.5-0.2-1-0.2-1.5-0.2c-0.9,0-1.3,0.2-1.3,0.7c0,0.3,0.1,0.5,0.4,0.7s0.9,0.5,1.9,0.9
		c0.9,0.3,1.5,0.7,1.9,1c0.4,0.3,0.7,0.6,0.9,1C218.4,100.6,218.5,101.1,218.5,101.6z"/>
</g>
<g>
	<g>
		<path class="st3" d="M162.2,172.7l-18.4,0.1c-4.2,0-8-2.5-9.6-6.4c0,0,0-0.1-0.1-0.1l-13.3-23.8c-0.6-1.1-0.7-2.3-0.4-3.4
			c0.3-1.1,1.1-2.1,2.1-2.7c1.1-0.6,2.3-0.7,3.4-0.4c0.2,0.1,0.4,0.1,0.6,0.2c0.9,0.4,1.7,1.1,2.1,1.9l2.4,4.3
			c0.3,0.5,0.8,0.7,1.4,0.6c0.5-0.1,0.9-0.6,0.9-1.2l-0.1-26.5c0-2.5,2-4.5,4.5-4.5c2.5,0,4.5,2,4.5,4.5l0,9.2c0,0,0,0.1,0,0.1
			l0,16.3c0,0.5,0.3,0.9,0.7,1.1c0.1,0.1,0.3,0.1,0.5,0.1c0.7,0,1.2-0.5,1.2-1.2l0-15.9c0.8-0.8,1.9-1.3,3.1-1.3
			c2.1,0,3.9,1.5,4.4,3.5l0,14.6c0,0.5,0.3,0.9,0.7,1.1c0.1,0.1,0.3,0.1,0.5,0.1c0.7,0,1.2-0.5,1.2-1.2l-0.1-14.3
			c0.9-0.9,2-1.4,3.2-1.4c2.5,0,4.5,2,4.5,4.5c0,0,0,0,0,0l0,14.1c0,0.5,0.3,0.9,0.7,1.1c0.1,0.1,0.3,0.1,0.5,0.1
			c0.7,0,1.2-0.5,1.2-1.2l0-13.6c0.8-0.8,1.9-1.3,3.1-1.3c2.5,0,4.5,2,4.5,4.5l0.1,28.3C172.5,168,167.9,172.7,162.2,172.7z"/>
	</g>
</g>
<circle class="st4" cx="32.3" cy="32.2" r="30.8"/>
<g class="st5">
	<path class="st1" d="M37.9,48.5h-7.1V29l0.1-3.2l0.1-3.5c-1.2,1.2-2,2-2.5,2.3l-3.9,3.1l-3.4-4.3l10.8-8.6h5.8V48.5z"/>
</g>
<g>
	<line class="st6" x1="223.4" y1="59.8" x2="220.9" y2="72.3"/>
	<line class="st6" x1="236.7" y1="65.1" x2="229.6" y2="75.7"/>
	<line class="st6" x1="247.5" y1="75.6" x2="236.1" y2="81.2"/>
</g>
</svg>
