<?xml version="1.0" encoding="utf-8"?>
<!-- Generator: Adobe Illustrator 23.0.1, SVG Export Plug-In . SVG Version: 6.00 Build 0)  -->
<svg version="1.1" id="Capa_1" xmlns="http://www.w3.org/2000/svg" xmlns:xlink="http://www.w3.org/1999/xlink" x="0px" y="0px"
	 viewBox="0 0 293.5 293.3" style="enable-background:new 0 0 293.5 293.3;" xml:space="preserve">
<style type="text/css">
	.st0{fill:#D4D1D9;}
	.st1{fill:#FFFFFF;}
	.st2{fill:#00E3BE;}
	.st3{enable-background:new    ;}
	.st4{fill:#A5BFCC;}
	.st5{fill:#006475;}
	.st6{fill:#070308;}
	.st7{fill:#0F3E61;}
</style>
<g>
	<rect x="15.6" y="26.4" class="st0" width="253.4" height="242"/>
	<rect x="15.6" y="194.3" class="st1" width="253.4" height="74"/>
</g>
<g>
	<path d="M77.2,210.1h1.6l-4.6,12.9h-1.5l-4.6-12.9h1.6l2.9,8.3c0.3,1,0.6,1.9,0.8,2.8c0.2-0.9,0.5-1.9,0.8-2.8L77.2,210.1z"/>
	<path d="M84.4,223.1c-1.4,0-2.6-0.4-3.4-1.3s-1.2-2.1-1.2-3.6c0-1.6,0.4-2.8,1.2-3.7s1.8-1.4,3.1-1.4c1.2,0,2.2,0.4,2.9,1.2
		s1.1,1.8,1.1,3.1v0.9h-6.6c0,1.1,0.3,2,0.9,2.6s1.3,0.9,2.3,0.9c1,0,2.1-0.2,3.1-0.6v1.3c-0.5,0.2-1,0.4-1.5,0.5
		S85.1,223.1,84.4,223.1z M84,214.4c-0.8,0-1.4,0.2-1.8,0.8s-0.7,1.2-0.8,2.1h5c0-0.9-0.2-1.6-0.6-2.1S84.8,214.4,84,214.4z"/>
	<path d="M94.8,213.1c0.4,0,0.8,0,1.2,0.1l-0.2,1.4c-0.4-0.1-0.8-0.1-1.1-0.1c-0.8,0-1.4,0.3-2,0.9s-0.8,1.4-0.8,2.4v5.2h-1.5v-9.6
		h1.2l0.2,1.8h0.1c0.4-0.6,0.8-1.1,1.3-1.4S94.2,213.1,94.8,213.1z"/>
	<path d="M97.7,210.7c0-0.3,0.1-0.6,0.2-0.7s0.4-0.2,0.6-0.2c0.2,0,0.4,0.1,0.6,0.2s0.2,0.4,0.2,0.7s-0.1,0.6-0.2,0.7
		s-0.4,0.2-0.6,0.2c-0.2,0-0.4-0.1-0.6-0.2S97.7,211,97.7,210.7z M99.2,222.9h-1.5v-9.6h1.5V222.9z"/>
	<path d="M106.7,214.4h-2.4v8.5h-1.5v-8.5h-1.7v-0.7l1.7-0.5v-0.5c0-2.4,1-3.6,3.1-3.6c0.5,0,1.1,0.1,1.8,0.3l-0.4,1.2
		c-0.6-0.2-1-0.3-1.4-0.3c-0.6,0-1,0.2-1.2,0.6s-0.4,0.9-0.4,1.8v0.6h2.4L106.7,214.4L106.7,214.4L106.7,214.4z M108.3,210.7
		c0-0.3,0.1-0.6,0.2-0.7s0.4-0.2,0.6-0.2c0.2,0,0.4,0.1,0.6,0.2s0.2,0.4,0.2,0.7s-0.1,0.6-0.2,0.7s-0.4,0.2-0.6,0.2
		c-0.2,0-0.4-0.1-0.6-0.2S108.3,211,108.3,210.7z M109.9,222.9h-1.5v-9.6h1.5V222.9z"/>
	<path d="M116.8,223.1c-1.4,0-2.5-0.4-3.2-1.3s-1.2-2.1-1.2-3.6c0-1.6,0.4-2.9,1.2-3.7s1.9-1.3,3.3-1.3c0.5,0,0.9,0.1,1.4,0.1
		s0.8,0.2,1.1,0.4l-0.4,1.2c-0.3-0.1-0.7-0.2-1.1-0.3s-0.7-0.1-1-0.1c-2,0-2.9,1.2-2.9,3.7c0,1.2,0.2,2.1,0.7,2.7s1.2,0.9,2.1,0.9
		c0.8,0,1.6-0.2,2.5-0.5v1.3C118.6,222.9,117.8,223.1,116.8,223.1z"/>
	<path d="M127.5,222.9l-0.3-1.4h-0.1c-0.5,0.6-1,1-1.4,1.2s-1.1,0.3-1.8,0.3c-1,0-1.7-0.2-2.2-0.7s-0.8-1.2-0.8-2.1
		c0-1.9,1.6-3,4.7-3.1l1.6-0.1v-0.6c0-0.8-0.2-1.3-0.5-1.7s-0.8-0.5-1.6-0.5c-0.8,0-1.7,0.2-2.7,0.7l-0.4-1.1c0.5-0.3,1-0.5,1.6-0.6
		s1.1-0.2,1.7-0.2c1.2,0,2,0.2,2.6,0.8s0.8,1.3,0.8,2.4v6.6L127.5,222.9L127.5,222.9z M124.2,221.9c0.9,0,1.6-0.2,2.1-0.8
		s0.8-1.2,0.8-2.1v-0.9l-1.5,0.1c-1.2,0-2,0.2-2.5,0.5s-0.8,0.8-0.8,1.5c0,0.5,0.2,0.9,0.5,1.2S123.6,221.9,124.2,221.9z"/>
	<path d="M139.4,221.9c0.3,0,0.5,0,0.8-0.1s0.4-0.1,0.6-0.1v1.1c-0.2,0.1-0.4,0.1-0.7,0.2s-0.6,0.1-0.8,0.1c-1.9,0-2.8-1-2.8-2.9
		v-5.7H135v-0.7l1.4-0.6l0.6-2.1h0.8v2.2h2.8v1.1h-2.8v5.7c0,0.6,0.1,1,0.4,1.3S138.9,221.9,139.4,221.9z"/>
	<path d="M144,213.3v6.2c0,0.8,0.2,1.4,0.5,1.8s0.9,0.6,1.7,0.6c1,0,1.7-0.3,2.2-0.8s0.7-1.4,0.7-2.7v-5.1h1.5v9.6h-1.2l-0.2-1.3
		h-0.1c-0.3,0.5-0.7,0.8-1.2,1.1s-1.1,0.4-1.8,0.4c-1.2,0-2.1-0.3-2.6-0.8s-0.9-1.4-0.9-2.7v-6.3L144,213.3L144,213.3L144,213.3z"/>
	<path d="M162.2,223.1c-1.4,0-2.5-0.4-3.2-1.3s-1.1-2.1-1.1-3.6c0-1.6,0.4-2.9,1.2-3.7s1.9-1.3,3.3-1.3c0.5,0,0.9,0.1,1.4,0.1
		s0.8,0.2,1.1,0.4l-0.4,1.2c-0.3-0.1-0.7-0.2-1.1-0.3s-0.7-0.1-1-0.1c-2,0-2.9,1.2-2.9,3.7c0,1.2,0.2,2.1,0.7,2.7s1.2,0.9,2.1,0.9
		c0.8,0,1.6-0.2,2.5-0.5v1.3C164,222.9,163.1,223.1,162.2,223.1z"/>
	<path d="M175.2,218.1c0,1.6-0.4,2.8-1.2,3.7s-1.9,1.3-3.3,1.3c-0.9,0-1.6-0.2-2.3-0.6s-1.2-1-1.6-1.7s-0.5-1.6-0.5-2.6
		c0-1.6,0.4-2.8,1.2-3.7s1.9-1.3,3.3-1.3c1.4,0,2.4,0.4,3.2,1.3S175.2,216.6,175.2,218.1z M167.9,218.1c0,1.2,0.2,2.2,0.7,2.8
		s1.2,1,2.2,1s1.7-0.3,2.2-1s0.7-1.6,0.7-2.8c0-1.2-0.2-2.1-0.7-2.8s-1.2-0.9-2.2-0.9s-1.7,0.3-2.2,0.9S167.9,216.9,167.9,218.1z"/>
	<path d="M182.2,213.1c0.4,0,0.8,0,1.1,0.1l-0.2,1.4c-0.4-0.1-0.8-0.1-1.1-0.1c-0.8,0-1.4,0.3-2,0.9s-0.8,1.4-0.8,2.4v5.2h-1.5v-9.6
		h1.2l0.2,1.8h0.1c0.4-0.6,0.8-1.1,1.3-1.4S181.6,213.1,182.2,213.1z"/>
	<path d="M189.5,213.1c0.4,0,0.8,0,1.1,0.1l-0.2,1.4c-0.4-0.1-0.8-0.1-1.1-0.1c-0.8,0-1.4,0.3-2,0.9s-0.8,1.4-0.8,2.4v5.2h-1.5v-9.6
		h1.2l0.2,1.8h0.1c0.4-0.6,0.8-1.1,1.3-1.4S188.9,213.1,189.5,213.1z"/>
	<path d="M196.5,223.1c-1.4,0-2.6-0.4-3.4-1.3s-1.2-2.1-1.2-3.6c0-1.6,0.4-2.8,1.1-3.7s1.8-1.4,3.1-1.4c1.2,0,2.2,0.4,2.9,1.2
		s1.1,1.8,1.1,3.1v0.9h-6.6c0,1.1,0.3,2,0.9,2.6s1.3,0.9,2.3,0.9c1,0,2.1-0.2,3.1-0.6v1.3c-0.5,0.2-1,0.4-1.5,0.5
		S197.2,223.1,196.5,223.1z M196.1,214.4c-0.8,0-1.4,0.2-1.9,0.8s-0.7,1.2-0.8,2.1h5c0-0.9-0.2-1.6-0.6-2.1S196.9,214.4,196.1,214.4
		z"/>
	<path d="M210.9,218.1c0,1.6-0.4,2.8-1.2,3.7s-1.9,1.3-3.3,1.3c-0.9,0-1.6-0.2-2.3-0.6s-1.2-1-1.6-1.7s-0.5-1.6-0.5-2.6
		c0-1.6,0.4-2.8,1.2-3.7s1.9-1.3,3.3-1.3c1.4,0,2.4,0.4,3.2,1.3S210.9,216.6,210.9,218.1z M203.5,218.1c0,1.2,0.2,2.2,0.7,2.8
		s1.2,1,2.2,1s1.7-0.3,2.2-1s0.7-1.6,0.7-2.8c0-1.2-0.2-2.1-0.7-2.8s-1.2-0.9-2.2-0.9s-1.7,0.3-2.2,0.9S203.5,216.9,203.5,218.1z"/>
	<path d="M213.2,222c0-0.4,0.1-0.7,0.3-0.9s0.4-0.3,0.8-0.3c0.3,0,0.6,0.1,0.8,0.3s0.3,0.5,0.3,0.9c0,0.4-0.1,0.7-0.3,0.9
		s-0.5,0.3-0.8,0.3c-0.3,0-0.6-0.1-0.7-0.3S213.2,222.4,213.2,222z"/>
	<path d="M38,240.2v4.8h-1.3v-11.4h3.1c1.4,0,2.4,0.3,3.1,0.8c0.7,0.5,1,1.3,1,2.4c0,1.5-0.8,2.5-2.3,3.1l3.1,5.1h-1.6l-2.8-4.8
		L38,240.2L38,240.2z M38,239.1h1.8c0.9,0,1.6-0.2,2.1-0.6c0.4-0.4,0.7-0.9,0.7-1.7s-0.2-1.3-0.7-1.6c-0.5-0.3-1.2-0.5-2.1-0.5H38
		C38,234.7,38,239.1,38,239.1z"/>
	<path d="M50,245.1c-1.3,0-2.3-0.4-3-1.2c-0.7-0.8-1.1-1.8-1.1-3.2c0-1.4,0.3-2.5,1-3.3s1.6-1.2,2.7-1.2c1.1,0,1.9,0.4,2.5,1.1
		c0.6,0.7,0.9,1.6,0.9,2.8v0.8h-5.9c0,1,0.3,1.8,0.8,2.3c0.5,0.5,1.2,0.8,2,0.8c0.9,0,1.8-0.2,2.7-0.6v1.2c-0.5,0.2-0.9,0.3-1.3,0.4
		C51.1,245.1,50.6,245.1,50,245.1z M49.7,237.3c-0.7,0-1.2,0.2-1.6,0.7c-0.4,0.4-0.7,1.1-0.7,1.9h4.5c0-0.8-0.2-1.4-0.5-1.9
		C50.9,237.5,50.3,237.3,49.7,237.3z"/>
	<path d="M58.8,245.1c-1.2,0-2.2-0.4-2.9-1.1s-1-1.8-1-3.2c0-1.4,0.3-2.5,1-3.3c0.7-0.8,1.7-1.2,3-1.2c0.4,0,0.8,0,1.2,0.1
		c0.4,0.1,0.7,0.2,1,0.3l-0.4,1.1c-0.3-0.1-0.6-0.2-0.9-0.3c-0.3-0.1-0.6-0.1-0.9-0.1c-1.7,0-2.6,1.1-2.6,3.3c0,1.1,0.2,1.9,0.6,2.4
		c0.4,0.6,1,0.8,1.9,0.8c0.7,0,1.5-0.1,2.2-0.5v1.1C60.4,244.9,59.7,245.1,58.8,245.1z"/>
	<path d="M62.9,234.1c0-0.3,0.1-0.5,0.2-0.6s0.3-0.2,0.5-0.2c0.2,0,0.4,0.1,0.5,0.2c0.2,0.1,0.2,0.4,0.2,0.6s-0.1,0.5-0.2,0.6
		s-0.3,0.2-0.5,0.2c-0.2,0-0.4-0.1-0.5-0.2C63,234.6,62.9,234.4,62.9,234.1z M64.3,244.9H63v-8.6h1.3V244.9z"/>
	<path d="M71,236.2c1.1,0,2,0.4,2.6,1.1c0.6,0.8,0.9,1.9,0.9,3.3s-0.3,2.5-0.9,3.3c-0.6,0.8-1.5,1.2-2.6,1.2c-0.6,0-1.1-0.1-1.5-0.3
		s-0.8-0.5-1.2-0.9h-0.1l-0.3,1.1h-0.9v-12.2h1.3v2.9c0,0.7,0,1.3-0.1,1.8h0.1C68.9,236.7,69.8,236.2,71,236.2z M70.8,237.3
		c-0.9,0-1.5,0.2-1.9,0.8s-0.6,1.4-0.6,2.6s0.2,2.1,0.6,2.6s1,0.8,1.9,0.8c0.8,0,1.4-0.3,1.8-0.9s0.6-1.4,0.6-2.5
		c0-1.1-0.2-1.9-0.6-2.5S71.7,237.3,70.8,237.3z"/>
	<path d="M76.7,234.1c0-0.3,0.1-0.5,0.2-0.6s0.3-0.2,0.6-0.2c0.2,0,0.4,0.1,0.5,0.2s0.2,0.4,0.2,0.6s-0.1,0.5-0.2,0.6
		s-0.3,0.2-0.5,0.2c-0.2,0-0.4-0.1-0.6-0.2C76.8,234.6,76.7,234.4,76.7,234.1z M78.2,244.9h-1.3v-8.6h1.3V244.9z"/>
	<path d="M84.8,236.2c0.4,0,0.7,0,1,0.1l-0.2,1.2c-0.3-0.1-0.7-0.1-0.9-0.1c-0.7,0-1.3,0.3-1.8,0.8s-0.7,1.3-0.7,2.1v4.6h-1.3v-8.6
		H82l0.2,1.6h0.1c0.3-0.6,0.7-1,1.2-1.3C83.8,236.4,84.3,236.2,84.8,236.2z"/>
	<path d="M92.7,244.9l-0.3-1.2h-0.1c-0.4,0.5-0.8,0.9-1.3,1.1c-0.4,0.2-0.9,0.3-1.6,0.3c-0.8,0-1.5-0.2-2-0.7
		c-0.5-0.4-0.7-1.1-0.7-1.9c0-1.7,1.4-2.6,4.2-2.7l1.4-0.1v-0.5c0-0.7-0.1-1.2-0.4-1.5s-0.8-0.5-1.4-0.5c-0.7,0-1.5,0.2-2.4,0.7
		l-0.4-1c0.4-0.2,0.9-0.4,1.4-0.5c0.5-0.1,1-0.2,1.5-0.2c1,0,1.8,0.2,2.3,0.7s0.7,1.2,0.7,2.2v5.8L92.7,244.9L92.7,244.9z M89.8,244
		c0.8,0,1.4-0.2,1.9-0.7s0.7-1.1,0.7-1.9v-0.8l-1.3,0.1c-1,0-1.8,0.2-2.2,0.5c-0.5,0.3-0.7,0.7-0.7,1.3c0,0.5,0.1,0.8,0.4,1.1
		C88.9,243.9,89.3,244,89.8,244z M89.5,235.1c0.2-0.3,0.5-0.7,0.8-1.2c0.3-0.5,0.5-0.9,0.7-1.2h1.6v0.2c-0.2,0.3-0.6,0.8-1,1.2
		c-0.4,0.5-0.8,0.9-1.2,1.1h-0.9V235.1z"/>
	<path d="M101.8,242.6c0,0.8-0.3,1.4-0.9,1.8s-1.4,0.6-2.5,0.6c-1.1,0-2-0.2-2.7-0.5v-1.2c0.4,0.2,0.8,0.4,1.3,0.5
		c0.5,0.1,0.9,0.2,1.4,0.2c0.7,0,1.2-0.1,1.6-0.3c0.4-0.2,0.6-0.6,0.6-1c0-0.3-0.1-0.6-0.4-0.9s-0.8-0.5-1.7-0.8
		c-0.8-0.3-1.4-0.6-1.7-0.8s-0.6-0.5-0.8-0.8s-0.2-0.6-0.2-1c0-0.7,0.3-1.2,0.8-1.6s1.3-0.6,2.3-0.6c0.9,0,1.8,0.2,2.7,0.6l-0.5,1.1
		c-0.9-0.4-1.6-0.5-2.3-0.5c-0.6,0-1.1,0.1-1.4,0.3c-0.3,0.2-0.5,0.5-0.5,0.8c0,0.2,0.1,0.4,0.2,0.6c0.1,0.2,0.3,0.3,0.6,0.5
		c0.3,0.1,0.8,0.4,1.5,0.6c1,0.4,1.7,0.7,2.1,1.1C101.7,241.6,101.8,242,101.8,242.6z"/>
	<path d="M109.3,236.4v5.6c0,0.7,0.2,1.2,0.5,1.6s0.8,0.5,1.5,0.5c0.9,0,1.6-0.2,2-0.7c0.4-0.5,0.6-1.3,0.6-2.4v-4.5h1.3v8.6h-1.1
		l-0.2-1.1h-0.1c-0.3,0.4-0.6,0.8-1.1,1c-0.5,0.2-1,0.3-1.6,0.3c-1,0-1.8-0.2-2.3-0.7s-0.8-1.3-0.8-2.4v-5.6H109.3z"/>
	<path d="M123.8,244.9v-5.5c0-0.7-0.2-1.2-0.5-1.6s-0.8-0.5-1.5-0.5c-0.9,0-1.6,0.2-2,0.7c-0.4,0.5-0.6,1.3-0.6,2.4v4.5h-1.3v-8.6
		h1.1l0.2,1.2h0.1c0.3-0.4,0.6-0.8,1.1-1s1-0.4,1.6-0.4c1,0,1.8,0.2,2.3,0.8c0.5,0.5,0.8,1.3,0.8,2.4v5.6L123.8,244.9L123.8,244.9z"
		/>
	<path d="M133,244.9l-0.3-1.2h-0.1c-0.4,0.5-0.9,0.9-1.3,1.1c-0.4,0.2-0.9,0.3-1.6,0.3c-0.9,0-1.5-0.2-2-0.7
		c-0.5-0.4-0.7-1.1-0.7-1.9c0-1.7,1.4-2.6,4.1-2.7l1.4-0.1v-0.5c0-0.7-0.1-1.2-0.4-1.5s-0.8-0.5-1.4-0.5c-0.7,0-1.5,0.2-2.4,0.7
		l-0.4-1c0.4-0.2,0.9-0.4,1.4-0.5c0.5-0.1,1-0.2,1.5-0.2c1,0,1.8,0.2,2.3,0.7s0.7,1.2,0.7,2.2v5.8L133,244.9L133,244.9L133,244.9z
		 M130.1,244c0.8,0,1.4-0.2,1.9-0.7c0.5-0.4,0.7-1.1,0.7-1.9v-0.8l-1.3,0.1c-1,0-1.8,0.2-2.2,0.5c-0.5,0.3-0.7,0.7-0.7,1.3
		c0,0.5,0.1,0.8,0.4,1.1C129.2,243.9,129.6,244,130.1,244z"/>
	<path d="M144.2,245.1c-1.2,0-2.2-0.4-2.9-1.1c-0.7-0.8-1-1.8-1-3.2c0-1.4,0.3-2.5,1-3.3c0.7-0.8,1.7-1.2,2.9-1.2
		c0.4,0,0.8,0,1.2,0.1c0.4,0.1,0.7,0.2,1,0.3l-0.4,1.1c-0.3-0.1-0.6-0.2-0.9-0.3c-0.3-0.1-0.6-0.1-0.9-0.1c-1.7,0-2.6,1.1-2.6,3.3
		c0,1.1,0.2,1.9,0.6,2.4c0.4,0.6,1.1,0.8,1.9,0.8c0.7,0,1.4-0.1,2.2-0.5v1.1C145.8,244.9,145.1,245.1,144.2,245.1z"/>
	<path d="M149.7,244.9h-1.3v-12.2h1.3V244.9z"/>
	<path d="M157.7,244.9l-0.3-1.2h-0.1c-0.4,0.5-0.9,0.9-1.3,1.1c-0.4,0.2-0.9,0.3-1.6,0.3c-0.9,0-1.5-0.2-2-0.7
		c-0.5-0.4-0.7-1.1-0.7-1.9c0-1.7,1.4-2.6,4.1-2.7l1.4-0.1v-0.5c0-0.7-0.1-1.2-0.4-1.5s-0.8-0.5-1.4-0.5c-0.7,0-1.5,0.2-2.4,0.7
		l-0.4-1c0.4-0.2,0.9-0.4,1.4-0.5c0.5-0.1,1-0.2,1.5-0.2c1,0,1.8,0.2,2.3,0.7s0.7,1.2,0.7,2.2v5.8L157.7,244.9L157.7,244.9
		L157.7,244.9z M154.8,244c0.8,0,1.4-0.2,1.9-0.7c0.5-0.4,0.7-1.1,0.7-1.9v-0.8l-1.3,0.1c-1,0-1.8,0.2-2.2,0.5
		c-0.5,0.3-0.7,0.7-0.7,1.3c0,0.5,0.1,0.8,0.4,1.1C153.9,243.9,154.3,244,154.8,244z"/>
	<path d="M163.2,244.9l-3.2-8.6h1.4l1.8,5.1c0.4,1.2,0.7,2,0.7,2.3h0.1c0.1-0.3,0.2-0.9,0.5-1.7s1-2.8,2.1-5.7h1.4l-3.2,8.6H163.2z"
		/>
	<path d="M173,245.1c-1.3,0-2.3-0.4-3-1.2c-0.7-0.8-1.1-1.8-1.1-3.2c0-1.4,0.3-2.5,1-3.3s1.6-1.2,2.7-1.2c1.1,0,1.9,0.4,2.6,1.1
		c0.6,0.7,0.9,1.6,0.9,2.8v0.8h-5.9c0,1,0.3,1.8,0.8,2.3c0.5,0.5,1.2,0.8,2,0.8c0.9,0,1.8-0.2,2.7-0.6v1.2c-0.5,0.2-0.9,0.3-1.3,0.4
		C174.1,245.1,173.6,245.1,173,245.1z M172.7,237.3c-0.7,0-1.2,0.2-1.6,0.7c-0.4,0.4-0.6,1.1-0.7,1.9h4.5c0-0.8-0.2-1.4-0.6-1.9
		C173.9,237.5,173.3,237.3,172.7,237.3z"/>
	<path d="M185.3,244c0.2,0,0.4,0,0.7-0.1s0.4-0.1,0.5-0.1v1c-0.1,0.1-0.4,0.1-0.6,0.2c-0.3,0-0.5,0.1-0.7,0.1
		c-1.7,0-2.5-0.9-2.5-2.6v-5.1h-1.2v-0.6l1.2-0.5l0.6-1.8h0.8v2h2.5v1h-2.5v5c0,0.5,0.1,0.9,0.4,1.2
		C184.5,243.9,184.9,244,185.3,244z"/>
	<path d="M191.8,245.1c-1.3,0-2.3-0.4-3-1.2c-0.7-0.8-1.1-1.8-1.1-3.2c0-1.4,0.3-2.5,1-3.3s1.6-1.2,2.7-1.2c1.1,0,1.9,0.4,2.6,1.1
		c0.6,0.7,0.9,1.6,0.9,2.8v0.8H189c0,1,0.3,1.8,0.8,2.3c0.5,0.5,1.2,0.8,2,0.8c0.9,0,1.8-0.2,2.7-0.6v1.2c-0.5,0.2-0.9,0.3-1.3,0.4
		C192.9,245.1,192.4,245.1,191.8,245.1z M191.4,237.3c-0.7,0-1.2,0.2-1.6,0.7c-0.4,0.4-0.6,1.1-0.7,1.9h4.5c0-0.8-0.2-1.4-0.6-1.9
		C192.6,237.5,192.1,237.3,191.4,237.3z"/>
	<path d="M208.1,244.9v-5.6c0-0.7-0.1-1.2-0.4-1.5c-0.3-0.3-0.8-0.5-1.4-0.5c-0.8,0-1.4,0.2-1.8,0.7c-0.4,0.5-0.6,1.2-0.6,2.1v4.8
		h-1.3v-5.6c0-0.7-0.1-1.2-0.4-1.5c-0.3-0.3-0.8-0.5-1.4-0.5c-0.8,0-1.4,0.2-1.8,0.7c-0.4,0.5-0.6,1.3-0.6,2.4v4.5h-1.3v-8.6h1.1
		l0.2,1.2h0.1c0.2-0.4,0.6-0.7,1-1s0.9-0.4,1.5-0.4c1.3,0,2.2,0.5,2.6,1.4h0.1c0.2-0.4,0.6-0.8,1.1-1.1c0.5-0.3,1-0.4,1.7-0.4
		c1,0,1.7,0.2,2.2,0.8c0.5,0.5,0.7,1.3,0.7,2.4v5.6H208.1z"/>
	<path d="M216,245.1c-0.6,0-1.1-0.1-1.5-0.3s-0.9-0.5-1.2-0.9h-0.1c0.1,0.5,0.1,1,0.1,1.4v3.5H212v-12.4h1.1l0.2,1.2h0.1
		c0.3-0.5,0.7-0.8,1.2-1s0.9-0.3,1.5-0.3c1.1,0,2,0.4,2.6,1.2c0.6,0.8,0.9,1.9,0.9,3.3s-0.3,2.5-0.9,3.3
		C218,244.7,217.1,245.1,216,245.1z M215.8,237.3c-0.9,0-1.5,0.2-1.9,0.7s-0.6,1.3-0.6,2.3v0.3c0,1.2,0.2,2.1,0.6,2.6
		c0.4,0.5,1,0.8,1.9,0.8c0.7,0,1.3-0.3,1.7-0.9c0.4-0.6,0.6-1.4,0.6-2.5c0-1.1-0.2-1.9-0.6-2.5C217.2,237.6,216.6,237.3,215.8,237.3
		z"/>
	<path d="M229.2,240.6c0,1.4-0.4,2.5-1.1,3.3s-1.7,1.2-2.9,1.2c-0.8,0-1.4-0.2-2-0.5s-1.1-0.9-1.4-1.6c-0.3-0.7-0.5-1.5-0.5-2.4
		c0-1.4,0.4-2.5,1.1-3.3s1.7-1.2,2.9-1.2c1.2,0,2.1,0.4,2.9,1.2C228.9,238.2,229.2,239.3,229.2,240.6z M222.7,240.6
		c0,1.1,0.2,1.9,0.7,2.5s1.1,0.9,1.9,0.9c0.9,0,1.5-0.3,1.9-0.9c0.4-0.6,0.7-1.4,0.7-2.5c0-1.1-0.2-1.9-0.7-2.5s-1.1-0.9-1.9-0.9
		c-0.9,0-1.5,0.3-1.9,0.8C222.9,238.7,222.7,239.6,222.7,240.6z"/>
	<path d="M235.4,236.2c0.4,0,0.7,0,1,0.1l-0.2,1.2c-0.4-0.1-0.7-0.1-0.9-0.1c-0.7,0-1.3,0.3-1.8,0.8s-0.7,1.3-0.7,2.1v4.6h-1.3v-8.6
		h1.1l0.1,1.6h0.1c0.3-0.6,0.7-1,1.1-1.3C234.4,236.4,234.9,236.2,235.4,236.2z"/>
	<path d="M243.3,244.9l-0.3-1.2H243c-0.4,0.5-0.9,0.9-1.3,1.1c-0.4,0.2-0.9,0.3-1.6,0.3c-0.9,0-1.5-0.2-2-0.7
		c-0.5-0.4-0.7-1.1-0.7-1.9c0-1.7,1.4-2.6,4.1-2.7l1.4-0.1v-0.5c0-0.7-0.1-1.2-0.4-1.5s-0.8-0.5-1.4-0.5c-0.7,0-1.5,0.2-2.4,0.7
		l-0.4-1c0.4-0.2,0.9-0.4,1.4-0.5c0.5-0.1,1-0.2,1.5-0.2c1,0,1.8,0.2,2.3,0.7s0.7,1.2,0.7,2.2v5.8L243.3,244.9L243.3,244.9
		L243.3,244.9z M240.4,244c0.8,0,1.4-0.2,1.9-0.7c0.5-0.4,0.7-1.1,0.7-1.9v-0.8l-1.3,0.1c-1,0-1.8,0.2-2.2,0.5
		c-0.5,0.3-0.7,0.7-0.7,1.3c0,0.5,0.1,0.8,0.4,1.1C239.5,243.9,239.9,244,240.4,244z"/>
	<path d="M248.2,244.9h-1.3v-12.2h1.3V244.9z"/>
</g>
<circle class="st2" cx="30.8" cy="30.8" r="30.8"/>
<g class="st3">
	<path class="st1" d="M43.1,40.1h-4v7h-6.9v-7H17.8v-4.9l14.7-21.7h6.5v21.1h4V40.1z M32.2,34.6v-5.7c0-0.9,0-2.3,0.1-4.1
		s0.1-2.9,0.2-3.1h-0.2c-0.6,1.3-1.2,2.5-2,3.7l-6.2,9.3H32.2z"/>
</g>
<polygon class="st4" points="205.7,99.6 149.6,142 94,99.6 "/>
<polygon class="st5" points="94,99.6 150,46.7 205.7,99.6 "/>
<rect x="104.8" y="51.9" class="st1" width="88.1" height="108.9"/>
<polygon class="st5" points="205.7,99.6 205.7,172.5 93.8,172.5 93.8,99.6 149.6,142 "/>
<circle class="st1" cx="200.6" cy="160.8" r="19.3"/>
<g>
	<path class="st6" d="M203.1,170.9h-4.4v-12.1l0-2l0.1-2.2c-0.7,0.7-1.2,1.2-1.5,1.4l-2.4,1.9l-2.1-2.7l6.8-5.4h3.6L203.1,170.9
		L203.1,170.9L203.1,170.9z"/>
</g>
<g>
	<path class="st0" d="M175.6,97.4h-53.2c-5.8,0-10.5-4.7-10.5-10.5l0,0c0-5.8,4.7-10.5,10.5-10.5h53.2c5.8,0,10.5,4.7,10.5,10.5l0,0
		C186,92.7,181.3,97.4,175.6,97.4z"/>
	<g>
		<g>
			<path class="st7" d="M126.4,82.3l-3,3.9v0.1l4.8-0.6v2.2l-4.8-0.6v0.1l3,3.8l-2,1.1l-1.9-4.4h-0.1l-2.1,4.4l-1.8-1.1l3-3.8v-0.1
				l-4.7,0.6v-2.2l4.6,0.6v-0.1l-3-3.8l1.9-1.1l2,4.4h0.1l1.9-4.4L126.4,82.3z"/>
		</g>
		<g>
			<path class="st7" d="M144,82.3l-3,3.9v0.1l4.8-0.6v2.2l-4.8-0.6v0.1l3,3.8l-2,1.1l-1.9-4.4h-0.1l-2.1,4.4l-1.8-1.1l3-3.8v-0.1
				l-4.7,0.6v-2.2l4.6,0.6v-0.1l-3-3.8l1.9-1.1l2,4.4h0.1l1.9-4.4L144,82.3z"/>
		</g>
		<g>
			<path class="st7" d="M179.3,82.3l-3,3.9v0.1l4.8-0.6v2.2l-4.8-0.6v0.1l3,3.8l-2,1.1l-1.9-4.4h-0.1l-2.1,4.4l-1.8-1.1l3-3.8v-0.1
				l-4.7,0.6v-2.2l4.6,0.6v-0.1l-3-3.8l1.9-1.1l2,4.4h0.1l1.9-4.4L179.3,82.3z"/>
		</g>
		<g>
			<path class="st7" d="M161.6,82.3l-3,3.9v0.1l4.8-0.6v2.2l-4.8-0.6v0.1l3,3.8l-2,1.1l-1.9-4.4h-0.1l-2.1,4.4l-1.8-1.1l3-3.8v-0.1
				l-4.7,0.6v-2.2l4.6,0.6v-0.1l-3-3.8l1.9-1.1l2,4.4h0.1l1.9-4.4L161.6,82.3z"/>
		</g>
	</g>
</g>
</svg>
