<?xml version="1.0" encoding="utf-8"?>
<!-- Generator: Adobe Illustrator 23.0.1, SVG Export Plug-In . SVG Version: 6.00 Build 0)  -->
<svg version="1.1" id="Capa_1" xmlns="http://www.w3.org/2000/svg" xmlns:xlink="http://www.w3.org/1999/xlink" x="0px" y="0px"
	 viewBox="0 0 293.5 293.3" style="enable-background:new 0 0 293.5 293.3;" xml:space="preserve">
<style type="text/css">
	.st0{fill:#219A92;}
	.st1{fill:#FFFFFF;}
	.st2{fill:#0F3E61;}
	.st3{fill:#40A097;}
	.st4{fill:#006475;}
	.st5{fill:#00E3BE;}
	.st6{enable-background:new    ;}
	.st7{fill:none;stroke:#FFFFFF;stroke-width:5.8172;stroke-miterlimit:10;}
</style>
<g>
	<rect x="14.3" y="26.4" class="st0" width="253.4" height="242"/>
	<rect x="14.3" y="194.3" class="st1" width="253.4" height="74"/>
</g>
<rect x="15.1" y="167.6" class="st2" width="253.9" height="26.7"/>
<g>
	
		<rect x="100" y="48.5" transform="matrix(6.819808e-02 -0.9977 0.9977 6.819808e-02 18.3092 222.4884)" class="st2" width="56.5" height="105.8"/>
	<path class="st3" d="M179,86.2l-2.5,37.2c-0.2,0-0.3-0.1-0.5-0.1c-3.2-0.2-5.9,2.2-6.1,5.4c0,0.3,0,0.5,0,0.8l-86.6-5.9
		c0.1-0.2,0.1-0.5,0.1-0.8c0.2-3.2-2.2-5.9-5.4-6.2c-0.2,0-0.3,0-0.5,0l2.5-37.2c0.2,0,0.3,0.1,0.5,0.1c3.2,0.2,5.9-2.2,6.2-5.3
		c0-0.3,0-0.5,0-0.8l86.6,5.9c-0.1,0.2-0.1,0.5-0.1,0.8c-0.2,3.2,2.2,5.9,5.4,6.1C178.7,86.2,178.8,86.2,179,86.2z"/>
	
		<ellipse transform="matrix(6.819808e-02 -0.9977 0.9977 6.819808e-02 18.3227 222.4964)" class="st4" cx="128.3" cy="101.4" rx="18.3" ry="15.5"/>
	<g>
		<path class="st1" d="M128.8,109.9l-0.2,3.3l-2.2-0.2l0.2-3.2c-2.8-0.4-5.1-1.4-5.8-1.9l0.2-3.2c1.4,1,4.4,2.2,6.8,2.3
			c2.1,0.1,3.3-0.5,3.4-1.6c0.1-1.5-1.8-2-4-2.7c-2.8-0.8-5.8-2-5.6-5.4c0.2-2.7,2.4-4.3,6.1-4.3l0.2-3.2l2.2,0.2l-0.2,3.2
			c1.6,0.2,3.3,0.6,4.6,1.1l-0.2,3.2c-1.5-0.7-3.9-1.4-5.7-1.5c-1.8-0.1-3.1,0.2-3.2,1.4c-0.1,1.5,1.6,1.9,4,2.6
			c2.6,0.8,5.9,1.8,5.6,5.3C134.9,107.7,133.2,109.8,128.8,109.9z"/>
	</g>
</g>
<circle class="st5" cx="30.8" cy="30.8" r="30.8"/>
<g class="st6">
	<path class="st1" d="M18.7,32.8c0-6.6,1.4-11.6,4.2-14.8s7-4.9,12.6-4.9c1.9,0,3.4,0.1,4.5,0.3v5.7c-1.4-0.3-2.7-0.5-4-0.5
		c-2.4,0-4.4,0.4-6,1.1c-1.5,0.7-2.7,1.8-3.5,3.3s-1.2,3.5-1.4,6.1h0.3c1.5-2.6,3.9-3.9,7.3-3.9c3,0,5.4,0.9,7.1,2.8
		c1.7,1.9,2.5,4.5,2.5,7.8c0,3.6-1,6.4-3,8.5s-4.8,3.1-8.4,3.1c-2.5,0-4.6-0.6-6.5-1.7c-1.8-1.1-3.3-2.8-4.3-5
		C19.2,38.6,18.7,35.9,18.7,32.8z M30.8,41.9c1.5,0,2.7-0.5,3.5-1.5s1.2-2.5,1.2-4.4c0-1.6-0.4-2.9-1.1-3.9s-1.9-1.4-3.4-1.4
		c-1.4,0-2.7,0.5-3.7,1.4c-1,0.9-1.5,2-1.5,3.3c0,1.8,0.5,3.4,1.4,4.6C28.1,41.3,29.3,41.9,30.8,41.9z"/>
</g>
<g>
	<path d="M37.5,222H36v-11.5h-4.1v-1.3h9.6v1.3h-4.1L37.5,222L37.5,222z"/>
	<path d="M47.3,222.2c-1.4,0-2.5-0.4-3.4-1.3s-1.2-2.1-1.2-3.6c0-1.6,0.4-2.8,1.2-3.7s1.8-1.4,3.1-1.4c1.2,0,2.2,0.4,2.9,1.2
		s1,1.8,1,3.1v0.9h-6.6c0,1.1,0.3,2,0.9,2.6s1.3,0.9,2.3,0.9c1,0,2.1-0.2,3.1-0.6v1.3c-0.5,0.2-1,0.4-1.5,0.5S48,222.2,47.3,222.2z
		 M46.9,213.4c-0.8,0-1.4,0.2-1.8,0.8s-0.7,1.2-0.8,2.1h5c0-0.9-0.2-1.6-0.6-2.1S47.7,213.4,46.9,213.4z"/>
	<path d="M64,222l-0.3-1.4h-0.1c-0.5,0.6-1,1-1.4,1.2s-1.1,0.3-1.8,0.3c-1,0-1.7-0.2-2.2-0.7s-0.8-1.2-0.8-2.1c0-1.9,1.6-3,4.7-3.1
		l1.6-0.1v-0.6c0-0.8-0.2-1.3-0.5-1.7s-0.8-0.5-1.6-0.5c-0.8,0-1.7,0.2-2.7,0.7l-0.5-1.1c0.5-0.3,1-0.5,1.6-0.6s1.1-0.2,1.7-0.2
		c1.2,0,2,0.2,2.6,0.8s0.8,1.3,0.8,2.4v6.6L64,222L64,222z M60.7,221c0.9,0,1.6-0.2,2.1-0.8s0.8-1.2,0.8-2.1v-0.9l-1.5,0.1
		c-1.2,0-2,0.2-2.5,0.5s-0.8,0.8-0.8,1.5c0,0.5,0.2,0.9,0.5,1.2S60.1,221,60.7,221z"/>
	<path d="M70.1,222l-3.7-9.6H68l2.1,5.7c0.5,1.3,0.7,2.2,0.8,2.6H71c0.1-0.3,0.3-0.9,0.6-1.9s1.1-3.1,2.3-6.4h1.6l-3.7,9.6L70.1,222
		L70.1,222z"/>
	<path d="M76.9,209.8c0-0.3,0.1-0.6,0.2-0.7s0.4-0.2,0.6-0.2c0.2,0,0.4,0.1,0.6,0.2s0.2,0.4,0.2,0.7s-0.1,0.6-0.2,0.7
		s-0.4,0.2-0.6,0.2c-0.2,0-0.4-0.1-0.6-0.2S76.9,210.1,76.9,209.8z M78.5,222h-1.5v-9.6h1.5V222z"/>
	<path d="M87.8,219.4c0,0.9-0.3,1.6-1,2.1s-1.6,0.7-2.8,0.7c-1.3,0-2.3-0.2-3-0.6v-1.4c0.5,0.2,1,0.4,1.5,0.6s1,0.2,1.5,0.2
		c0.8,0,1.3-0.1,1.8-0.4s0.6-0.6,0.6-1.1c0-0.4-0.2-0.7-0.5-1s-1-0.6-1.9-0.9c-0.9-0.3-1.5-0.6-1.9-0.9s-0.7-0.5-0.8-0.9
		s-0.3-0.7-0.3-1.1c0-0.8,0.3-1.4,1-1.9s1.5-0.7,2.6-0.7c1,0,2.1,0.2,3,0.6l-0.5,1.2c-1-0.4-1.8-0.6-2.6-0.6c-0.7,0-1.2,0.1-1.6,0.3
		s-0.5,0.5-0.5,0.9c0,0.3,0.1,0.5,0.2,0.7s0.3,0.4,0.6,0.5s0.9,0.4,1.7,0.7c1.1,0.4,1.9,0.8,2.3,1.3S87.8,218.7,87.8,219.4z"/>
	<path d="M96.1,222l-0.3-1.4h-0.1c-0.5,0.6-1,1-1.4,1.2s-1.1,0.3-1.8,0.3c-1,0-1.7-0.2-2.2-0.7s-0.8-1.2-0.8-2.1
		c0-1.9,1.6-3,4.7-3.1l1.6-0.1v-0.6c0-0.8-0.2-1.3-0.5-1.7s-0.8-0.5-1.6-0.5c-0.8,0-1.7,0.2-2.7,0.7l-0.4-1.1c0.5-0.3,1-0.5,1.6-0.6
		s1.1-0.2,1.7-0.2c1.2,0,2,0.2,2.6,0.8s0.8,1.3,0.8,2.4v6.6L96.1,222L96.1,222z M92.8,221c0.9,0,1.6-0.2,2.1-0.8s0.8-1.2,0.8-2.1
		v-0.9l-1.5,0.1c-1.2,0-2,0.2-2.5,0.5s-0.8,0.8-0.8,1.5c0,0.5,0.2,0.9,0.5,1.2S92.2,221,92.8,221z"/>
	<path d="M104.6,212.2c0.4,0,0.8,0,1.2,0.1l-0.2,1.4c-0.4-0.1-0.8-0.1-1.1-0.1c-0.8,0-1.4,0.3-2,0.9s-0.8,1.4-0.8,2.4v5.2h-1.5v-9.6
		h1.2l0.2,1.8h0.1c0.4-0.6,0.8-1.1,1.3-1.4S104,212.2,104.6,212.2z"/>
	<path d="M111.6,222.2c-1.4,0-2.6-0.4-3.4-1.3s-1.2-2.1-1.2-3.6c0-1.6,0.4-2.8,1.2-3.7s1.8-1.4,3.1-1.4c1.2,0,2.2,0.4,2.9,1.2
		s1.1,1.8,1.1,3.1v0.9h-6.6c0,1.1,0.3,2,0.9,2.6s1.3,0.9,2.3,0.9c1,0,2.1-0.2,3.1-0.6v1.3c-0.5,0.2-1,0.4-1.5,0.5
		S112.3,222.2,111.6,222.2z M111.2,213.4c-0.8,0-1.4,0.2-1.8,0.8s-0.7,1.2-0.8,2.1h5c0-0.9-0.2-1.6-0.6-2.1S112,213.4,111.2,213.4z"
		/>
	<path d="M129.9,222v-6.3c0-0.8-0.2-1.3-0.5-1.7s-0.8-0.6-1.5-0.6c-0.9,0-1.6,0.3-2,0.8s-0.7,1.3-0.7,2.4v5.4h-1.5v-6.3
		c0-0.8-0.2-1.3-0.5-1.7s-0.8-0.6-1.5-0.6c-0.9,0-1.6,0.3-2,0.8s-0.6,1.4-0.6,2.7v5.1h-1.5v-9.6h1.2l0.2,1.3h0.1
		c0.3-0.5,0.7-0.8,1.2-1.1s1.1-0.4,1.7-0.4c1.5,0,2.5,0.5,2.9,1.6h0.1c0.3-0.5,0.7-0.9,1.2-1.2s1.2-0.4,1.9-0.4
		c1.1,0,1.9,0.3,2.4,0.8s0.8,1.4,0.8,2.7v6.3L129.9,222L129.9,222L129.9,222z"/>
	<path d="M142.7,217.2c0,1.6-0.4,2.8-1.2,3.7s-1.9,1.3-3.3,1.3c-0.9,0-1.6-0.2-2.3-0.6s-1.2-1-1.6-1.7s-0.5-1.6-0.5-2.6
		c0-1.6,0.4-2.8,1.2-3.7s1.9-1.3,3.3-1.3c1.4,0,2.4,0.4,3.2,1.3S142.7,215.6,142.7,217.2z M135.4,217.2c0,1.2,0.2,2.2,0.7,2.8
		s1.2,1,2.2,1s1.7-0.3,2.2-1s0.7-1.6,0.7-2.8c0-1.2-0.2-2.1-0.7-2.8s-1.2-0.9-2.2-0.9s-1.7,0.3-2.2,0.9S135.4,215.9,135.4,217.2z"/>
	<path d="M151.5,219.4c0,0.9-0.3,1.6-1,2.1s-1.6,0.7-2.8,0.7c-1.3,0-2.3-0.2-3-0.6v-1.4c0.5,0.2,1,0.4,1.5,0.6s1,0.2,1.5,0.2
		c0.8,0,1.4-0.1,1.8-0.4s0.6-0.6,0.6-1.1c0-0.4-0.2-0.7-0.5-1s-1-0.6-1.9-0.9c-0.9-0.3-1.5-0.6-1.9-0.9s-0.7-0.5-0.8-0.9
		s-0.3-0.7-0.3-1.1c0-0.8,0.3-1.4,1-1.9s1.5-0.7,2.6-0.7c1,0,2.1,0.2,3,0.6l-0.5,1.2c-1-0.4-1.8-0.6-2.6-0.6c-0.7,0-1.2,0.1-1.6,0.3
		s-0.5,0.5-0.5,0.9c0,0.3,0.1,0.5,0.2,0.7s0.3,0.4,0.6,0.5s0.9,0.4,1.7,0.7c1.1,0.4,1.9,0.8,2.3,1.3S151.5,218.7,151.5,219.4z"/>
	<path d="M162.4,222.2c-1.4,0-2.5-0.4-3.2-1.3s-1.1-2.1-1.1-3.6c0-1.6,0.4-2.9,1.2-3.7s1.9-1.3,3.3-1.3c0.5,0,0.9,0.1,1.4,0.1
		s0.8,0.2,1.1,0.4l-0.4,1.2c-0.3-0.1-0.7-0.2-1.1-0.3s-0.7-0.1-1-0.1c-2,0-2.9,1.2-2.9,3.7c0,1.2,0.2,2.1,0.7,2.7s1.2,0.9,2.1,0.9
		c0.8,0,1.6-0.2,2.5-0.5v1.3C164.2,222,163.4,222.2,162.4,222.2z"/>
	<path d="M168.5,212.4v6.2c0,0.8,0.2,1.4,0.5,1.8s0.9,0.6,1.7,0.6c1,0,1.7-0.3,2.2-0.8s0.7-1.4,0.7-2.7v-5.1h1.5v9.6h-1.2l-0.2-1.3
		h-0.1c-0.3,0.5-0.7,0.8-1.2,1.1s-1.1,0.4-1.8,0.4c-1.2,0-2.1-0.3-2.6-0.8s-0.9-1.4-0.9-2.7v-6.3L168.5,212.4L168.5,212.4
		L168.5,212.4z"/>
	<path d="M184.1,222l-0.3-1.4h-0.1c-0.5,0.6-1,1-1.4,1.2s-1.1,0.3-1.8,0.3c-1,0-1.7-0.2-2.2-0.7s-0.8-1.2-0.8-2.1
		c0-1.9,1.6-3,4.7-3.1l1.6-0.1v-0.6c0-0.8-0.2-1.3-0.5-1.7s-0.9-0.5-1.6-0.5c-0.8,0-1.7,0.2-2.7,0.7l-0.4-1.1c0.5-0.3,1-0.5,1.6-0.6
		s1.1-0.2,1.7-0.2c1.1,0,2,0.2,2.6,0.8s0.8,1.3,0.8,2.4v6.6L184.1,222L184.1,222z M180.8,221c0.9,0,1.6-0.2,2.1-0.8s0.8-1.2,0.8-2.1
		v-0.9l-1.5,0.1c-1.2,0-2,0.2-2.5,0.5s-0.8,0.8-0.8,1.5c0,0.5,0.2,0.9,0.5,1.2S180.2,221,180.8,221z"/>
	<path d="M194.8,222v-6.2c0-0.8-0.2-1.4-0.5-1.8s-0.9-0.6-1.7-0.6c-1,0-1.8,0.3-2.2,0.8s-0.7,1.4-0.7,2.7v5.1h-1.5v-9.6h1.2l0.2,1.3
		h0.1c0.3-0.5,0.7-0.8,1.3-1.1s1.1-0.4,1.8-0.4c1.2,0,2,0.3,2.6,0.8s0.9,1.4,0.9,2.7v6.3L194.8,222L194.8,222L194.8,222z"/>
	<path d="M205.8,220.7L205.8,220.7c-0.8,1-1.8,1.5-3.1,1.5c-1.3,0-2.2-0.4-2.9-1.3s-1.1-2.1-1.1-3.7s0.4-2.8,1.1-3.7
		s1.7-1.3,2.9-1.3c1.3,0,2.3,0.5,3,1.4h0.1l-0.1-0.7l0-0.7v-3.9h1.5V222h-1.2L205.8,220.7z M202.8,221c1,0,1.7-0.3,2.2-0.8
		s0.7-1.4,0.7-2.6v-0.3c0-1.4-0.2-2.3-0.7-2.9s-1.2-0.9-2.2-0.9c-0.9,0-1.5,0.3-2,1s-0.7,1.6-0.7,2.8c0,1.2,0.2,2.2,0.7,2.8
		S202,221,202.8,221z"/>
	<path d="M218.6,217.2c0,1.6-0.4,2.8-1.2,3.7s-1.9,1.3-3.3,1.3c-0.9,0-1.6-0.2-2.3-0.6s-1.2-1-1.6-1.7s-0.5-1.6-0.5-2.6
		c0-1.6,0.4-2.8,1.2-3.7s1.9-1.3,3.3-1.3c1.4,0,2.4,0.4,3.2,1.3S218.6,215.6,218.6,217.2z M211.2,217.2c0,1.2,0.2,2.2,0.7,2.8
		s1.2,1,2.2,1s1.7-0.3,2.2-1s0.7-1.6,0.7-2.8c0-1.2-0.2-2.1-0.7-2.8s-1.2-0.9-2.2-0.9s-1.7,0.3-2.2,0.9S211.2,215.9,211.2,217.2z"/>
	<path d="M228.9,221c0.3,0,0.5,0,0.8-0.1s0.4-0.1,0.6-0.1v1.1c-0.2,0.1-0.4,0.1-0.7,0.2s-0.6,0.1-0.8,0.1c-1.9,0-2.8-1-2.8-2.9v-5.7
		h-1.4v-0.7l1.4-0.6l0.6-2.1h0.8v2.2h2.8v1.1h-2.8v5.7c0,0.6,0.1,1,0.4,1.3S228.4,221,228.9,221z"/>
	<path d="M233.5,212.4v6.2c0,0.8,0.2,1.4,0.5,1.8s0.9,0.6,1.7,0.6c1,0,1.7-0.3,2.2-0.8s0.7-1.4,0.7-2.7v-5.1h1.5v9.6h-1.2l-0.2-1.3
		h-0.1c-0.3,0.5-0.7,0.8-1.2,1.1s-1.1,0.4-1.8,0.4c-1.2,0-2.1-0.3-2.6-0.8s-0.9-1.4-0.9-2.7v-6.3L233.5,212.4L233.5,212.4
		L233.5,212.4z"/>
	<path d="M249.4,219.4c0,0.9-0.3,1.6-1,2.1s-1.6,0.7-2.8,0.7c-1.3,0-2.3-0.2-3-0.6v-1.4c0.5,0.2,1,0.4,1.5,0.6s1,0.2,1.5,0.2
		c0.8,0,1.4-0.1,1.8-0.4s0.6-0.6,0.6-1.1c0-0.4-0.2-0.7-0.5-1s-1-0.6-1.9-0.9c-0.9-0.3-1.5-0.6-1.9-0.9s-0.7-0.5-0.8-0.9
		s-0.3-0.7-0.3-1.1c0-0.8,0.3-1.4,1-1.9s1.5-0.7,2.6-0.7c1,0,2.1,0.2,3,0.6l-0.5,1.2c-1-0.4-1.8-0.6-2.6-0.6c-0.7,0-1.2,0.1-1.6,0.3
		s-0.5,0.5-0.5,0.9c0,0.3,0.1,0.5,0.2,0.7s0.3,0.4,0.6,0.5s0.9,0.4,1.7,0.7c1.1,0.4,1.9,0.8,2.3,1.3S249.4,218.7,249.4,219.4z"/>
	<path d="M46.9,244h-1.5v-13.7h1.5V244z"/>
	<path d="M51.3,234.4v6.2c0,0.8,0.2,1.4,0.5,1.8s0.9,0.6,1.7,0.6c1,0,1.7-0.3,2.2-0.8s0.7-1.4,0.7-2.7v-5.1h1.5v9.6h-1.2l-0.2-1.3
		h-0.1c-0.3,0.5-0.7,0.8-1.2,1.1s-1.1,0.4-1.8,0.4c-1.2,0-2-0.3-2.6-0.8s-0.9-1.4-0.9-2.7v-6.3L51.3,234.4
		C51.3,234.4,51.3,234.4,51.3,234.4z"/>
	<path d="M64.9,244.2c-1.4,0-2.5-0.4-3.2-1.3s-1.2-2.1-1.2-3.6c0-1.6,0.4-2.9,1.2-3.7s1.9-1.3,3.3-1.3c0.5,0,0.9,0.1,1.4,0.1
		s0.8,0.2,1.1,0.4l-0.4,1.2c-0.3-0.1-0.7-0.2-1.1-0.3s-0.7-0.1-1-0.1c-2,0-2.9,1.2-2.9,3.7c0,1.2,0.2,2.1,0.7,2.7s1.2,0.9,2.1,0.9
		c0.8,0,1.6-0.2,2.5-0.5v1.3C66.7,244,65.8,244.2,64.9,244.2z"/>
	<path d="M75.5,244l-0.3-1.4h-0.1c-0.5,0.6-1,1-1.4,1.2s-1.1,0.3-1.8,0.3c-1,0-1.7-0.2-2.2-0.7s-0.8-1.2-0.8-2.1
		c0-1.9,1.6-3,4.7-3.1l1.6-0.1v-0.6c0-0.8-0.2-1.3-0.5-1.7s-0.8-0.5-1.6-0.5c-0.8,0-1.7,0.2-2.7,0.7l-0.4-1.1c0.5-0.3,1-0.5,1.6-0.6
		s1.1-0.2,1.7-0.2c1.2,0,2,0.2,2.6,0.8s0.8,1.3,0.8,2.4v6.6L75.5,244L75.5,244z M72.2,243c0.9,0,1.6-0.2,2.1-0.8s0.8-1.2,0.8-2.1
		v-0.9l-1.5,0.1c-1.2,0-2,0.2-2.5,0.5s-0.8,0.8-0.8,1.5c0,0.5,0.2,0.9,0.5,1.2S71.6,243,72.2,243z"/>
	<path d="M85.8,241.4c0,0.9-0.3,1.6-1,2.1s-1.6,0.7-2.8,0.7c-1.3,0-2.3-0.2-3-0.6v-1.4c0.5,0.2,1,0.4,1.5,0.6s1,0.2,1.5,0.2
		c0.8,0,1.3-0.1,1.8-0.4s0.6-0.6,0.6-1.1c0-0.4-0.2-0.7-0.5-1s-1-0.6-1.9-0.9c-0.9-0.3-1.5-0.6-1.9-0.9s-0.7-0.5-0.8-0.9
		s-0.3-0.7-0.3-1.1c0-0.8,0.3-1.4,1-1.9s1.5-0.7,2.6-0.7c1,0,2.1,0.2,3,0.6l-0.5,1.2c-1-0.4-1.8-0.6-2.6-0.6c-0.7,0-1.2,0.1-1.6,0.3
		s-0.5,0.5-0.5,0.9c0,0.3,0.1,0.5,0.2,0.7s0.3,0.4,0.6,0.5s0.9,0.4,1.7,0.7c1.1,0.4,1.9,0.8,2.3,1.3S85.8,240.7,85.8,241.4z"/>
	<path d="M96.9,244.2c-1.4,0-2.6-0.4-3.4-1.3s-1.2-2.1-1.2-3.6c0-1.6,0.4-2.8,1.2-3.7s1.8-1.4,3.1-1.4c1.2,0,2.2,0.4,2.9,1.2
		s1.1,1.8,1.1,3.1v0.9h-6.6c0,1.1,0.3,2,0.9,2.6s1.3,0.9,2.3,0.9c1,0,2.1-0.2,3.1-0.6v1.3c-0.5,0.2-1,0.4-1.5,0.5
		S97.6,244.2,96.9,244.2z M96.5,235.4c-0.8,0-1.4,0.2-1.8,0.8s-0.7,1.2-0.8,2.1h5c0-0.9-0.2-1.6-0.6-2.1S97.3,235.4,96.5,235.4z"/>
	<path d="M109.2,241.4c0,0.9-0.3,1.6-1,2.1s-1.6,0.7-2.8,0.7c-1.3,0-2.3-0.2-3-0.6v-1.4c0.5,0.2,1,0.4,1.5,0.6s1,0.2,1.5,0.2
		c0.8,0,1.3-0.1,1.8-0.4s0.6-0.6,0.6-1.1c0-0.4-0.2-0.7-0.5-1s-1-0.6-1.9-0.9c-0.9-0.3-1.5-0.6-1.9-0.9s-0.7-0.5-0.8-0.9
		s-0.3-0.7-0.3-1.1c0-0.8,0.3-1.4,1-1.9s1.5-0.7,2.6-0.7c1,0,2.1,0.2,3,0.6l-0.5,1.2c-1-0.4-1.8-0.6-2.6-0.6c-0.7,0-1.2,0.1-1.6,0.3
		s-0.5,0.5-0.5,0.9c0,0.3,0.1,0.5,0.2,0.7s0.3,0.4,0.6,0.5s0.9,0.4,1.7,0.7c1.1,0.4,1.9,0.8,2.3,1.3S109.2,240.7,109.2,241.4z"/>
	<path d="M114.7,243c0.3,0,0.5,0,0.8-0.1s0.4-0.1,0.6-0.1v1.1c-0.2,0.1-0.4,0.1-0.7,0.2s-0.6,0.1-0.8,0.1c-1.9,0-2.8-1-2.8-2.9v-5.7
		h-1.4v-0.7l1.4-0.6l0.6-2.1h0.8v2.2h2.8v1.1h-2.8v5.7c0,0.6,0.1,1,0.4,1.3S114.2,243,114.7,243z"/>
	<path d="M122,244.2c-1.4,0-2.6-0.4-3.4-1.3s-1.2-2.1-1.2-3.6c0-1.6,0.4-2.8,1.2-3.7s1.8-1.4,3.1-1.4c1.2,0,2.2,0.4,2.9,1.2
		s1.1,1.8,1.1,3.1v0.9h-6.6c0,1.1,0.3,2,0.9,2.6s1.3,0.9,2.3,0.9c1,0,2.1-0.2,3.1-0.6v1.3c-0.5,0.2-1,0.4-1.5,0.5
		S122.6,244.2,122,244.2z M121.6,235.4c-0.8,0-1.4,0.2-1.8,0.8s-0.7,1.2-0.8,2.1h5c0-0.9-0.2-1.6-0.6-2.1S122.3,235.4,121.6,235.4z
		 M120.5,232.9c0.3-0.4,0.6-0.8,0.9-1.3s0.6-1,0.8-1.3h1.8v0.2c-0.3,0.4-0.6,0.9-1.2,1.4s-0.9,1-1.3,1.3h-1
		C120.5,233.1,120.5,232.9,120.5,232.9z"/>
	<path d="M134.6,244v-6.2c0-0.8-0.2-1.4-0.5-1.8s-0.9-0.6-1.7-0.6c-1,0-1.8,0.3-2.2,0.8s-0.7,1.4-0.7,2.7v5.1H128v-9.6h1.2l0.2,1.3
		h0.1c0.3-0.5,0.7-0.8,1.3-1.1s1.1-0.4,1.8-0.4c1.2,0,2,0.3,2.6,0.8s0.9,1.4,0.9,2.7v6.3L134.6,244L134.6,244L134.6,244z"/>
	<path d="M150.3,242.7L150.3,242.7c-0.8,1-1.8,1.5-3.1,1.5c-1.3,0-2.2-0.4-2.9-1.3s-1.1-2.1-1.1-3.7s0.4-2.8,1.1-3.7
		s1.7-1.3,2.9-1.3c1.3,0,2.3,0.5,3,1.4h0.1l-0.1-0.7l0-0.7v-3.9h1.5V244h-1.2L150.3,242.7z M147.4,243c1,0,1.7-0.3,2.2-0.8
		s0.7-1.4,0.7-2.6v-0.3c0-1.4-0.2-2.3-0.7-2.9s-1.2-0.9-2.2-0.9c-0.9,0-1.5,0.3-2,1s-0.7,1.6-0.7,2.8c0,1.2,0.2,2.2,0.7,2.8
		S146.5,243,147.4,243z"/>
	<path d="M154.6,231.8c0-0.3,0.1-0.6,0.2-0.7s0.4-0.2,0.6-0.2c0.2,0,0.4,0.1,0.6,0.2s0.2,0.4,0.2,0.7s-0.1,0.6-0.2,0.7
		s-0.4,0.2-0.6,0.2c-0.2,0-0.4-0.1-0.6-0.2S154.6,232.1,154.6,231.8z M156.2,244h-1.5v-9.6h1.5V244z"/>
	<path d="M165.5,241.4c0,0.9-0.3,1.6-1,2.1s-1.6,0.7-2.8,0.7c-1.3,0-2.3-0.2-3-0.6v-1.4c0.5,0.2,1,0.4,1.5,0.6s1,0.2,1.5,0.2
		c0.8,0,1.4-0.1,1.8-0.4s0.6-0.6,0.6-1.1c0-0.4-0.2-0.7-0.5-1s-1-0.6-1.9-0.9c-0.9-0.3-1.5-0.6-1.9-0.9s-0.7-0.5-0.8-0.9
		s-0.3-0.7-0.3-1.1c0-0.8,0.3-1.4,1-1.9s1.5-0.7,2.6-0.7c1,0,2.1,0.2,3,0.6l-0.5,1.2c-1-0.4-1.8-0.6-2.6-0.6c-0.7,0-1.2,0.1-1.6,0.3
		s-0.5,0.5-0.5,0.9c0,0.3,0.1,0.5,0.2,0.7s0.3,0.4,0.6,0.5s0.9,0.4,1.7,0.7c1.1,0.4,1.9,0.8,2.3,1.3S165.5,240.7,165.5,241.4z"/>
	<path d="M172.4,244.2c-0.6,0-1.2-0.1-1.7-0.4s-0.9-0.6-1.3-1.1h-0.1c0.1,0.6,0.1,1.1,0.1,1.6v4h-1.5v-14h1.2l0.2,1.3h0.1
		c0.4-0.5,0.8-0.9,1.3-1.1s1.1-0.4,1.7-0.4c1.3,0,2.3,0.4,3,1.3s1,2.1,1,3.7c0,1.6-0.4,2.8-1.1,3.7S173.6,244.2,172.4,244.2z
		 M172.1,235.4c-1,0-1.7,0.3-2.1,0.8s-0.7,1.4-0.7,2.6v0.3c0,1.4,0.2,2.3,0.7,2.9s1.2,0.9,2.2,0.9c0.8,0,1.5-0.3,2-1
		s0.7-1.6,0.7-2.8c0-1.2-0.2-2.1-0.7-2.8S173,235.4,172.1,235.4z"/>
	<path d="M187.2,239.2c0,1.6-0.4,2.8-1.2,3.7s-1.9,1.3-3.3,1.3c-0.9,0-1.6-0.2-2.3-0.6s-1.2-1-1.6-1.7s-0.5-1.6-0.5-2.6
		c0-1.6,0.4-2.8,1.2-3.7s1.9-1.3,3.3-1.3c1.4,0,2.4,0.4,3.2,1.3S187.2,237.6,187.2,239.2z M179.9,239.2c0,1.2,0.2,2.2,0.7,2.8
		s1.2,1,2.2,1s1.7-0.3,2.2-1s0.7-1.6,0.7-2.8c0-1.2-0.2-2.1-0.7-2.8s-1.2-0.9-2.2-0.9s-1.7,0.3-2.2,0.9S179.9,237.9,179.9,239.2z"/>
	<path d="M196.4,244v-6.2c0-0.8-0.2-1.4-0.5-1.8s-0.9-0.6-1.7-0.6c-1,0-1.8,0.3-2.2,0.8s-0.7,1.4-0.7,2.7v5.1h-1.5v-9.6h1.2l0.2,1.3
		h0.1c0.3-0.5,0.7-0.8,1.3-1.1s1.1-0.4,1.8-0.4c1.2,0,2,0.3,2.6,0.8s0.9,1.4,0.9,2.7v6.3L196.4,244L196.4,244L196.4,244z"/>
	<path d="M200.7,231.8c0-0.3,0.1-0.6,0.2-0.7s0.4-0.2,0.6-0.2c0.2,0,0.4,0.1,0.6,0.2s0.2,0.4,0.2,0.7s-0.1,0.6-0.2,0.7
		s-0.4,0.2-0.6,0.2c-0.2,0-0.4-0.1-0.6-0.2S200.7,232.1,200.7,231.8z M202.3,244h-1.5v-9.6h1.5V244z"/>
	<path d="M209.9,234.2c1.3,0,2.2,0.4,2.9,1.3s1.1,2.1,1.1,3.7s-0.4,2.8-1.1,3.7s-1.7,1.3-2.9,1.3c-0.6,0-1.2-0.1-1.7-0.4
		s-0.9-0.6-1.3-1.1h-0.1l-0.3,1.2h-1.1v-13.7h1.5v3.3c0,0.7,0,1.4-0.1,2h0.1C207.5,234.7,208.5,234.2,209.9,234.2z M209.7,235.4
		c-1,0-1.7,0.3-2.1,0.9s-0.7,1.5-0.7,2.9s0.2,2.3,0.7,2.9s1.2,0.9,2.2,0.9c0.9,0,1.6-0.3,2-1s0.7-1.6,0.7-2.8c0-1.2-0.2-2.2-0.7-2.8
		S210.6,235.4,209.7,235.4z"/>
	<path d="M217.9,244h-1.5v-13.7h1.5V244z"/>
	<path d="M225,244.2c-1.4,0-2.6-0.4-3.4-1.3s-1.2-2.1-1.2-3.6c0-1.6,0.4-2.8,1.1-3.7s1.8-1.4,3.1-1.4c1.2,0,2.2,0.4,2.9,1.2
		s1.1,1.8,1.1,3.1v0.9h-6.6c0,1.1,0.3,2,0.9,2.6s1.3,0.9,2.3,0.9c1,0,2.1-0.2,3.1-0.6v1.3c-0.5,0.2-1,0.4-1.5,0.5
		S225.7,244.2,225,244.2z M224.6,235.4c-0.8,0-1.4,0.2-1.9,0.8s-0.7,1.2-0.8,2.1h5c0-0.9-0.2-1.6-0.6-2.1S225.4,235.4,224.6,235.4z"
		/>
	<path d="M237.3,241.4c0,0.9-0.3,1.6-1,2.1s-1.6,0.7-2.8,0.7c-1.3,0-2.3-0.2-3-0.6v-1.4c0.5,0.2,1,0.4,1.5,0.6s1,0.2,1.5,0.2
		c0.8,0,1.4-0.1,1.8-0.4s0.6-0.6,0.6-1.1c0-0.4-0.2-0.7-0.5-1s-1-0.6-1.9-0.9c-0.9-0.3-1.5-0.6-1.9-0.9s-0.7-0.5-0.8-0.9
		s-0.3-0.7-0.3-1.1c0-0.8,0.3-1.4,1-1.9s1.5-0.7,2.6-0.7c1,0,2.1,0.2,3,0.6l-0.5,1.2c-1-0.4-1.8-0.6-2.6-0.6c-0.7,0-1.2,0.1-1.6,0.3
		s-0.5,0.5-0.5,0.9c0,0.3,0.1,0.5,0.2,0.7s0.3,0.4,0.6,0.5s0.9,0.4,1.7,0.7c1.1,0.4,1.9,0.8,2.3,1.3S237.3,240.7,237.3,241.4z"/>
</g>
<g>
	<rect x="86" y="62.7" class="st2" width="105.8" height="56.5"/>
	<path class="st3" d="M188.5,72.3v37.3c-0.2,0-0.3,0-0.5,0c-3.2,0-5.8,2.6-5.8,5.8c0,0.3,0,0.5,0.1,0.8H95.5c0-0.2,0.1-0.5,0.1-0.8
		c0-3.2-2.6-5.8-5.8-5.8c-0.2,0-0.3,0-0.5,0V72.3c0.2,0,0.3,0,0.5,0c3.2,0,5.8-2.6,5.8-5.8c0-0.3,0-0.5-0.1-0.8h86.8
		c0,0.2-0.1,0.5-0.1,0.8c0,3.2,2.6,5.8,5.8,5.8C188.2,72.3,188.3,72.3,188.5,72.3z"/>
	<ellipse class="st2" cx="138.9" cy="90.9" rx="15.5" ry="18.3"/>
	<g>
		<path class="st1" d="M140,99.3v3.3h-2.2v-3.2c-2.8-0.2-5.1-1.1-5.9-1.5l0-3.2c1.5,0.9,4.6,1.8,6.9,1.8c2.1,0,3.3-0.7,3.3-1.8
			c0-1.5-1.9-1.9-4.2-2.4c-2.8-0.6-6-1.6-6-5c0-2.7,2.1-4.5,5.8-4.8v-3.2h2.2v3.2c1.6,0.1,3.3,0.4,4.6,0.8v3.2
			c-1.6-0.6-4-1.2-5.8-1.2c-1.8,0-3.1,0.4-3.1,1.7c0,1.5,1.7,1.8,4.2,2.3c2.6,0.6,6,1.4,6,4.9C145.9,96.6,144.4,98.9,140,99.3z"/>
	</g>
</g>
<g>
	
		<rect x="120.1" y="37.4" transform="matrix(0.2141 -0.9768 0.9768 0.2141 28.3564 215.8851)" class="st2" width="56.5" height="105.8"/>
	<path class="st3" d="M200.8,82.7l-8,36.4c-0.1-0.1-0.3-0.1-0.4-0.1c-3.1-0.7-6.2,1.3-6.9,4.4c-0.1,0.3-0.1,0.5-0.1,0.8l-84.8-18.6
		c0.1-0.2,0.2-0.5,0.2-0.7c0.7-3.1-1.3-6.2-4.4-6.9c-0.2,0-0.3-0.1-0.5-0.1l8-36.4c0.2,0,0.3,0.1,0.4,0.1c3.1,0.7,6.2-1.3,6.9-4.4
		c0.1-0.2,0.1-0.5,0.1-0.8L196.1,75c-0.1,0.2-0.2,0.5-0.2,0.7c-0.7,3.1,1.3,6.2,4.4,6.9C200.4,82.7,200.6,82.7,200.8,82.7z"/>
	
		<ellipse transform="matrix(0.2141 -0.9768 0.9768 0.2141 28.339 215.8751)" class="st2" cx="148.3" cy="90.3" rx="18.3" ry="15.5"/>
	<g>
		<path class="st1" d="M147.6,98.7l-0.7,3.2l-2.1-0.5l0.7-3.2c-2.7-0.8-4.8-2.2-5.4-2.8l0.7-3.1c1.3,1.2,4.1,2.8,6.4,3.3
			c2,0.4,3.3,0,3.6-1.1c0.3-1.5-1.5-2.3-3.6-3.2c-2.6-1.2-5.5-2.8-4.8-6.2c0.6-2.6,3.1-3.9,6.7-3.4l0.7-3.1l2.1,0.5l-0.7,3.1
			c1.5,0.5,3.2,1.1,4.4,1.8l-0.7,3.1c-1.4-1-3.7-2-5.4-2.4c-1.8-0.4-3.1-0.2-3.4,1c-0.3,1.5,1.3,2.1,3.6,3.2
			c2.5,1.1,5.5,2.7,4.8,6.1C154,97.4,152,99.3,147.6,98.7z"/>
	</g>
</g>
<g>
	<g>
		<path class="st2" d="M198.1,94c-13.8,0-24.9-11.2-24.9-24.9s11.2-24.9,24.9-24.9S223,55.3,223,69.1C223.1,82.8,211.9,94,198.1,94z
			"/>
		<path class="st0" d="M198.1,45.8c12.9,0,23.3,10.4,23.3,23.3S211,92.3,198.1,92.3s-23.3-10.4-23.3-23.3S185.3,45.8,198.1,45.8
			 M198.1,42.5c-14.7,0-26.6,11.9-26.6,26.6s11.9,26.6,26.6,26.6s26.6-11.9,26.6-26.6S212.8,42.5,198.1,42.5L198.1,42.5z"/>
	</g>
	<polyline class="st7" points="186.9,67.1 194.3,77.1 208.7,58.3 	"/>
</g>
<g>
	<g>
		<path class="st1" d="M67.2,178.4c0,0.6-0.3,0.9-0.8,0.9c-0.3,0-0.5-0.1-0.6-0.2s-0.2-0.4-0.2-0.7s0.1-0.5,0.2-0.7s0.3-0.2,0.6-0.2
			c0.2,0,0.4,0.1,0.6,0.2C67.1,177.8,67.2,178.1,67.2,178.4z M66,180.4h0.7l0.3,7.2h-1.4L66,180.4z"/>
		<path class="st1" d="M74,179.9h3.4v4.9c-0.5,0.2-1.1,0.3-1.6,0.4s-1.2,0.1-1.9,0.1c-1.5,0-2.7-0.4-3.5-1.4
			c-0.8-0.9-1.3-2.2-1.3-3.8c0-1,0.2-1.9,0.6-2.7s1-1.4,1.8-1.8c0.8-0.4,1.7-0.6,2.8-0.6c1.1,0,2.1,0.2,3,0.6l-0.4,1
			c-0.9-0.4-1.8-0.6-2.6-0.6c-1.2,0-2.2,0.4-2.8,1.1s-1,1.7-1,3c0,1.4,0.3,2.4,1,3.1c0.7,0.7,1.6,1.1,2.9,1.1c0.7,0,1.4-0.1,2-0.2
			v-3.1H74L74,179.9L74,179.9z"/>
		<path class="st1" d="M83,177.5c0.3,0,0.6,0,0.9,0.1l-0.2,1.1c-0.3-0.1-0.6-0.1-0.8-0.1c-0.6,0-1.1,0.2-1.6,0.7s-0.7,1.1-0.7,1.8v4
			h-1.1v-7.5h0.9l0.1,1.4h0.1c0.3-0.5,0.6-0.9,1-1.1C82.1,177.6,82.6,177.5,83,177.5z"/>
		<path class="st1" d="M89.9,185.1l-0.2-1.1h-0.1c-0.4,0.5-0.8,0.8-1.1,0.9c-0.4,0.2-0.8,0.2-1.4,0.2c-0.7,0-1.3-0.2-1.8-0.6
			s-0.6-0.9-0.6-1.6c0-1.5,1.2-2.3,3.6-2.4l1.3,0v-0.5c0-0.6-0.1-1-0.4-1.3s-0.7-0.4-1.2-0.4c-0.6,0-1.3,0.2-2.1,0.6l-0.3-0.9
			c0.4-0.2,0.8-0.4,1.2-0.5s0.9-0.2,1.3-0.2c0.9,0,1.6,0.2,2,0.6s0.7,1,0.7,1.9v5.1L89.9,185.1L89.9,185.1z M87.4,184.3
			c0.7,0,1.3-0.2,1.7-0.6s0.6-0.9,0.6-1.6v-0.7l-1.1,0.1c-0.9,0-1.6,0.2-1.9,0.4c-0.4,0.2-0.6,0.6-0.6,1.2c0,0.4,0.1,0.7,0.4,0.9
			C86.6,184.2,86.9,184.3,87.4,184.3z"/>
		<path class="st1" d="M96.1,185.3c-1.1,0-1.9-0.3-2.5-1s-0.9-1.6-0.9-2.8c0-1.2,0.3-2.2,0.9-2.9c0.6-0.7,1.5-1,2.6-1
			c0.4,0,0.7,0,1.1,0.1s0.6,0.2,0.8,0.3l-0.3,1c-0.2-0.1-0.5-0.2-0.8-0.2s-0.6-0.1-0.8-0.1c-1.5,0-2.3,1-2.3,2.9
			c0,0.9,0.2,1.6,0.6,2.1c0.4,0.5,0.9,0.7,1.7,0.7c0.6,0,1.3-0.1,1.9-0.4v1C97.5,185.1,96.9,185.3,96.1,185.3z"/>
		<path class="st1" d="M99.7,175.6c0-0.3,0.1-0.4,0.2-0.6c0.1-0.1,0.3-0.2,0.5-0.2c0.2,0,0.3,0.1,0.5,0.2c0.1,0.1,0.2,0.3,0.2,0.6
			s-0.1,0.4-0.2,0.6c-0.1,0.1-0.3,0.2-0.5,0.2c-0.2,0-0.3-0.1-0.5-0.2C99.7,176,99.7,175.9,99.7,175.6z M100.9,185.1h-1.1v-7.5h1.1
			V185.1z"/>
		<path class="st1" d="M107.9,185.1l-0.2-1.1h-0.1c-0.4,0.5-0.8,0.8-1.1,0.9c-0.4,0.2-0.8,0.2-1.4,0.2c-0.7,0-1.3-0.2-1.8-0.6
			s-0.6-0.9-0.6-1.6c0-1.5,1.2-2.3,3.6-2.4l1.3,0v-0.5c0-0.6-0.1-1-0.4-1.3s-0.7-0.4-1.2-0.4c-0.6,0-1.3,0.2-2.1,0.6l-0.3-0.9
			c0.4-0.2,0.8-0.4,1.2-0.5s0.9-0.2,1.3-0.2c0.9,0,1.6,0.2,2,0.6s0.7,1,0.7,1.9v5.1L107.9,185.1L107.9,185.1z M105.3,184.3
			c0.7,0,1.3-0.2,1.7-0.6s0.6-0.9,0.6-1.6v-0.7l-1.1,0.1c-0.9,0-1.6,0.2-1.9,0.4c-0.4,0.2-0.6,0.6-0.6,1.2c0,0.4,0.1,0.7,0.4,0.9
			C104.6,184.2,104.9,184.3,105.3,184.3z"/>
		<path class="st1" d="M115.9,183.1c0,0.7-0.3,1.2-0.8,1.6s-1.2,0.6-2.2,0.6c-1,0-1.8-0.2-2.3-0.5v-1.1c0.4,0.2,0.8,0.3,1.2,0.4
			c0.4,0.1,0.8,0.2,1.2,0.2c0.6,0,1.1-0.1,1.4-0.3s0.5-0.5,0.5-0.9c0-0.3-0.1-0.5-0.4-0.8s-0.8-0.4-1.5-0.7
			c-0.7-0.3-1.2-0.5-1.5-0.7s-0.5-0.4-0.7-0.7s-0.2-0.5-0.2-0.9c0-0.6,0.2-1.1,0.8-1.4c0.5-0.4,1.2-0.5,2-0.5c0.8,0,1.6,0.2,2.4,0.5
			l-0.4,0.9c-0.8-0.3-1.4-0.5-2-0.5c-0.5,0-0.9,0.1-1.2,0.2s-0.4,0.4-0.4,0.7c0,0.2,0.1,0.4,0.2,0.5s0.3,0.3,0.5,0.4
			c0.2,0.1,0.7,0.3,1.3,0.6c0.9,0.3,1.5,0.6,1.8,1C115.8,182.2,115.9,182.6,115.9,183.1z"/>
		<path class="st1" d="M124.9,185.3c-0.5,0-0.9-0.1-1.3-0.3s-0.7-0.5-1-0.8h-0.1c0.1,0.4,0.1,0.9,0.1,1.2v3.1h-1.1v-10.9h0.9l0.2,1
			h0.1c0.3-0.4,0.6-0.7,1-0.9s0.8-0.3,1.3-0.3c1,0,1.8,0.3,2.3,1s0.8,1.6,0.8,2.9s-0.3,2.2-0.8,2.9
			C126.6,184.9,125.9,185.3,124.9,185.3z M124.7,178.4c-0.8,0-1.3,0.2-1.7,0.6s-0.5,1.1-0.5,2v0.2c0,1.1,0.2,1.8,0.5,2.3
			s0.9,0.7,1.7,0.7c0.7,0,1.2-0.3,1.5-0.8c0.4-0.5,0.6-1.2,0.6-2.2c0-0.9-0.2-1.6-0.6-2.1C125.9,178.7,125.4,178.4,124.7,178.4z"/>
		<path class="st1" d="M136.5,181.4c0,1.2-0.3,2.2-0.9,2.9s-1.5,1-2.6,1c-0.7,0-1.3-0.2-1.8-0.5s-0.9-0.8-1.2-1.4
			c-0.3-0.6-0.4-1.3-0.4-2.1c0-1.2,0.3-2.2,0.9-2.9c0.6-0.7,1.5-1,2.5-1c1.1,0,1.9,0.4,2.5,1.1C136.1,179.2,136.5,180.2,136.5,181.4
			z M130.8,181.4c0,1,0.2,1.7,0.6,2.2s0.9,0.8,1.7,0.8s1.3-0.2,1.7-0.8c0.4-0.5,0.6-1.2,0.6-2.2c0-0.9-0.2-1.7-0.6-2.2
			s-0.9-0.7-1.7-0.7c-0.7,0-1.3,0.2-1.7,0.7C130.9,179.7,130.8,180.4,130.8,181.4z"/>
		<path class="st1" d="M141.9,177.5c0.3,0,0.6,0,0.9,0.1l-0.2,1.1c-0.3-0.1-0.6-0.1-0.8-0.1c-0.6,0-1.1,0.2-1.6,0.7
			s-0.6,1.1-0.6,1.8v4h-1.1v-7.5h0.9l0.1,1.4h0.1c0.3-0.5,0.6-0.9,1-1.1C141,177.6,141.4,177.5,141.9,177.5z"/>
		<path class="st1" d="M152.6,183.1c0,0.7-0.3,1.2-0.8,1.6s-1.2,0.6-2.2,0.6c-1,0-1.8-0.2-2.3-0.5v-1.1c0.4,0.2,0.8,0.3,1.2,0.4
			c0.4,0.1,0.8,0.2,1.2,0.2c0.6,0,1.1-0.1,1.4-0.3c0.3-0.2,0.5-0.5,0.5-0.9c0-0.3-0.1-0.5-0.4-0.8s-0.8-0.4-1.5-0.7
			c-0.7-0.3-1.2-0.5-1.5-0.7s-0.5-0.4-0.7-0.7s-0.2-0.5-0.2-0.9c0-0.6,0.2-1.1,0.8-1.4c0.5-0.4,1.2-0.5,2-0.5c0.8,0,1.6,0.2,2.4,0.5
			l-0.4,0.9c-0.8-0.3-1.4-0.5-2-0.5c-0.5,0-0.9,0.1-1.2,0.2s-0.4,0.4-0.4,0.7c0,0.2,0.1,0.4,0.1,0.5s0.3,0.3,0.5,0.4
			c0.2,0.1,0.7,0.3,1.3,0.6c0.9,0.3,1.5,0.6,1.8,1C152.5,182.2,152.6,182.6,152.6,183.1z"/>
		<path class="st1" d="M155.5,177.6v4.9c0,0.6,0.1,1.1,0.4,1.4c0.3,0.3,0.7,0.4,1.3,0.4c0.8,0,1.4-0.2,1.7-0.6s0.5-1.1,0.5-2.1v-3.9
			h1.1v7.5h-0.9l-0.2-1h-0.1c-0.2,0.4-0.6,0.6-1,0.9c-0.4,0.2-0.9,0.3-1.4,0.3c-0.9,0-1.6-0.2-2.1-0.6c-0.4-0.4-0.7-1.1-0.7-2.1
			v-4.9H155.5z"/>
		<path class="st1" d="M167.9,183.1c0,0.7-0.3,1.2-0.8,1.6s-1.2,0.6-2.2,0.6c-1,0-1.8-0.2-2.3-0.5v-1.1c0.4,0.2,0.8,0.3,1.2,0.4
			c0.4,0.1,0.8,0.2,1.2,0.2c0.6,0,1.1-0.1,1.4-0.3c0.3-0.2,0.5-0.5,0.5-0.9c0-0.3-0.1-0.5-0.4-0.8s-0.8-0.4-1.5-0.7
			c-0.7-0.3-1.2-0.5-1.5-0.7s-0.5-0.4-0.7-0.7s-0.2-0.5-0.2-0.9c0-0.6,0.2-1.1,0.8-1.4c0.5-0.4,1.2-0.5,2-0.5c0.8,0,1.6,0.2,2.4,0.5
			l-0.4,0.9c-0.8-0.3-1.4-0.5-2-0.5c-0.5,0-0.9,0.1-1.2,0.2s-0.4,0.4-0.4,0.7c0,0.2,0.1,0.4,0.1,0.5s0.3,0.3,0.5,0.4
			c0.2,0.1,0.7,0.3,1.3,0.6c0.9,0.3,1.5,0.6,1.8,1C167.8,182.2,167.9,182.6,167.9,183.1z"/>
		<path class="st1" d="M172.7,185.3c-1.1,0-1.9-0.3-2.5-1s-0.9-1.6-0.9-2.8c0-1.2,0.3-2.2,0.9-2.9c0.6-0.7,1.5-1,2.6-1
			c0.4,0,0.7,0,1.1,0.1s0.6,0.2,0.9,0.3l-0.4,1c-0.2-0.1-0.5-0.2-0.8-0.2s-0.6-0.1-0.8-0.1c-1.5,0-2.3,1-2.3,2.9
			c0,0.9,0.2,1.6,0.6,2.1c0.4,0.5,0.9,0.7,1.6,0.7c0.6,0,1.3-0.1,1.9-0.4v1C174.1,185.1,173.5,185.3,172.7,185.3z"/>
		<path class="st1" d="M179.8,177.5c0.3,0,0.6,0,0.9,0.1l-0.2,1.1c-0.3-0.1-0.6-0.1-0.8-0.1c-0.6,0-1.1,0.2-1.6,0.7
			s-0.6,1.1-0.6,1.8v4h-1.1v-7.5h0.9l0.1,1.4h0.1c0.3-0.5,0.6-0.9,1-1.1C178.9,177.6,179.4,177.5,179.8,177.5z"/>
		<path class="st1" d="M182,175.6c0-0.3,0.1-0.4,0.2-0.6c0.1-0.1,0.3-0.2,0.5-0.2c0.2,0,0.3,0.1,0.5,0.2s0.2,0.3,0.2,0.6
			s-0.1,0.4-0.2,0.6c-0.1,0.1-0.3,0.2-0.5,0.2c-0.2,0-0.4-0.1-0.5-0.2C182.1,176,182,175.9,182,175.6z M183.3,185.1h-1.1v-7.5h1.1
			V185.1z"/>
		<path class="st1" d="M189.1,177.5c1,0,1.8,0.3,2.3,1s0.8,1.6,0.8,2.9s-0.3,2.2-0.8,2.9s-1.3,1-2.3,1c-0.5,0-0.9-0.1-1.3-0.3
			s-0.7-0.5-1-0.8h-0.1l-0.2,1h-0.8v-10.6h1.1v2.6c0,0.6,0,1.1-0.1,1.6h0.1C187.3,177.9,188.1,177.5,189.1,177.5z M189,178.4
			c-0.8,0-1.3,0.2-1.7,0.7s-0.5,1.2-0.5,2.2s0.2,1.8,0.5,2.3s0.9,0.7,1.7,0.7c0.7,0,1.2-0.2,1.6-0.8s0.5-1.2,0.5-2.2
			c0-1-0.2-1.7-0.5-2.2S189.7,178.4,189,178.4z"/>
		<path class="st1" d="M194.1,175.6c0-0.3,0.1-0.4,0.2-0.6c0.1-0.1,0.3-0.2,0.5-0.2c0.2,0,0.3,0.1,0.5,0.2s0.2,0.3,0.2,0.6
			s-0.1,0.4-0.2,0.6c-0.1,0.1-0.3,0.2-0.5,0.2c-0.2,0-0.4-0.1-0.5-0.2C194.2,176,194.1,175.9,194.1,175.6z M195.4,185.1h-1.1v-7.5
			h1.1V185.1z"/>
		<path class="st1" d="M201.2,177.5c0.3,0,0.6,0,0.9,0.1l-0.2,1.1c-0.3-0.1-0.6-0.1-0.8-0.1c-0.6,0-1.1,0.2-1.6,0.7
			s-0.6,1.1-0.6,1.8v4h-1.1v-7.5h0.9l0.1,1.4h0.1c0.3-0.5,0.6-0.9,1-1.1C200.3,177.6,200.7,177.5,201.2,177.5z"/>
		<path class="st1" d="M205.9,184.3c0.2,0,0.4,0,0.6,0s0.3-0.1,0.4-0.1v0.9c-0.1,0.1-0.3,0.1-0.5,0.1s-0.4,0.1-0.6,0.1
			c-1.4,0-2.2-0.8-2.2-2.3v-4.5h-1.1V178l1.1-0.5l0.5-1.6h0.7v1.7h2.2v0.9h-2.2v4.4c0,0.4,0.1,0.8,0.3,1
			C205.3,184.2,205.6,184.3,205.9,184.3z"/>
		<path class="st1" d="M211.6,185.3c-1.1,0-2-0.3-2.6-1s-1-1.6-1-2.8c0-1.2,0.3-2.2,0.9-2.9s1.4-1.1,2.4-1.1c0.9,0,1.7,0.3,2.2,0.9
			s0.8,1.4,0.8,2.4v0.7h-5.2c0,0.9,0.2,1.6,0.7,2c0.4,0.5,1,0.7,1.8,0.7c0.8,0,1.6-0.2,2.4-0.5v1c-0.4,0.2-0.8,0.3-1.1,0.4
			C212.6,185.2,212.1,185.3,211.6,185.3z M211.3,178.4c-0.6,0-1.1,0.2-1.4,0.6s-0.6,0.9-0.6,1.6h3.9c0-0.7-0.2-1.3-0.5-1.6
			C212.4,178.6,211.9,178.4,211.3,178.4z"/>
		<path class="st1" d="M216.1,184.4c0-0.6,0.3-0.9,0.8-0.9c0.3,0,0.5,0.1,0.6,0.2s0.2,0.4,0.2,0.7c0,0.3-0.1,0.5-0.2,0.7
			c-0.1,0.2-0.4,0.2-0.6,0.2c-0.2,0-0.4-0.1-0.6-0.2C216.2,185,216.1,184.7,216.1,184.4z M217.3,182.4h-0.7l-0.4-7.2h1.4
			L217.3,182.4z"/>
	</g>
</g>
</svg>
