<?xml version="1.0" encoding="utf-8"?>
<!-- Generator: Adobe Illustrator 23.0.1, SVG Export Plug-In . SVG Version: 6.00 Build 0)  -->
<svg version="1.1" id="Capa_1" xmlns="http://www.w3.org/2000/svg" xmlns:xlink="http://www.w3.org/1999/xlink" x="0px" y="0px"
	 viewBox="0 0 293.5 293.3" style="enable-background:new 0 0 293.5 293.3;" xml:space="preserve">
<style type="text/css">
	.st0{fill:#219A92;}
	.st1{fill:#FFFFFF;}
	.st2{fill:#00E3BE;}
	.st3{enable-background:new    ;}
	.st4{fill:#FFFFFF;stroke:#219A92;stroke-miterlimit:10;}
	.st5{fill:#0F3E61;}
	.st6{fill:#E9ECF0;}
	.st7{fill:#222120;}
</style>
<g>
	<rect x="14.7" y="29.6" class="st0" width="253.4" height="241.9"/>
	<rect x="14.7" y="197.6" class="st1" width="253.4" height="74"/>
</g>
<g>
	<path d="M49.8,216.7c-1.4,0-2.5,0.5-3.3,1.4s-1.2,2.2-1.2,3.9c0,1.7,0.4,3,1.2,3.9s1.9,1.4,3.4,1.4c0.9,0,1.9-0.2,3.1-0.5v1.3
		c-0.9,0.3-2,0.5-3.3,0.5c-1.9,0-3.3-0.6-4.4-1.7s-1.5-2.8-1.5-4.9c0-1.3,0.2-2.5,0.7-3.5s1.2-1.8,2.1-2.3s2-0.8,3.3-0.8
		c1.3,0,2.5,0.2,3.5,0.7l-0.6,1.3C51.8,217,50.8,216.7,49.8,216.7z"/>
	<path d="M63.8,223.6c0,1.6-0.4,2.8-1.2,3.7s-1.9,1.3-3.3,1.3c-0.9,0-1.6-0.2-2.3-0.6s-1.2-1-1.5-1.7s-0.5-1.6-0.5-2.6
		c0-1.6,0.4-2.8,1.2-3.7s1.9-1.3,3.3-1.3c1.3,0,2.4,0.4,3.2,1.3S63.8,222.1,63.8,223.6z M56.4,223.6c0,1.2,0.2,2.2,0.7,2.8
		s1.2,1,2.2,1s1.7-0.3,2.2-1s0.7-1.6,0.7-2.8c0-1.2-0.2-2.1-0.7-2.8s-1.2-0.9-2.2-0.9s-1.7,0.3-2.2,0.9S56.4,222.4,56.4,223.6z"/>
	<path d="M78.6,228.4v-6.3c0-0.8-0.2-1.3-0.5-1.7s-0.8-0.6-1.5-0.6c-0.9,0-1.6,0.3-2,0.8s-0.7,1.3-0.7,2.4v5.4h-1.5v-6.3
		c0-0.8-0.2-1.3-0.5-1.7s-0.8-0.6-1.5-0.6c-0.9,0-1.6,0.3-2,0.8s-0.6,1.4-0.6,2.7v5.1h-1.5v-9.6h1.2l0.2,1.3h0.1
		c0.3-0.5,0.7-0.8,1.2-1.1s1.1-0.4,1.7-0.4c1.5,0,2.5,0.5,2.9,1.6h0.1c0.3-0.5,0.7-0.9,1.2-1.2s1.2-0.4,1.9-0.4
		c1.1,0,1.9,0.3,2.4,0.8s0.8,1.4,0.8,2.7v6.3L78.6,228.4L78.6,228.4z"/>
	<path d="M87.5,228.6c-0.6,0-1.2-0.1-1.7-0.4s-0.9-0.6-1.3-1.1h-0.1c0.1,0.6,0.1,1.1,0.1,1.6v4h-1.5v-13.9h1.2l0.2,1.3h0.1
		c0.4-0.5,0.8-0.9,1.3-1.1s1.1-0.4,1.7-0.4c1.3,0,2.3,0.4,3,1.3s1,2.1,1,3.7c0,1.6-0.3,2.8-1.1,3.7S88.8,228.6,87.5,228.6z
		 M87.3,219.9c-1,0-1.7,0.3-2.1,0.8s-0.7,1.4-0.7,2.6v0.3c0,1.4,0.2,2.3,0.7,2.9s1.2,0.9,2.2,0.9c0.8,0,1.5-0.3,2-1s0.7-1.6,0.7-2.8
		c0-1.2-0.2-2.1-0.7-2.8S88.2,219.9,87.3,219.9z"/>
	<path d="M95.5,228.4h-1.5v-13.7h1.5V228.4z"/>
	<path d="M102.7,228.6c-1.4,0-2.6-0.4-3.4-1.3s-1.2-2.1-1.2-3.6c0-1.6,0.4-2.8,1.2-3.7s1.8-1.4,3.1-1.4c1.2,0,2.2,0.4,2.9,1.2
		s1.1,1.8,1.1,3.1v0.9h-6.6c0,1.1,0.3,2,0.9,2.6s1.3,0.9,2.3,0.9c1,0,2.1-0.2,3.1-0.6v1.3c-0.5,0.2-1,0.4-1.5,0.5
		S103.4,228.6,102.7,228.6z M102.3,219.8c-0.8,0-1.4,0.2-1.8,0.8s-0.7,1.2-0.8,2.1h5c0-0.9-0.2-1.6-0.6-2.1S103.1,219.8,102.3,219.8
		z"/>
	<path d="M111.8,227.4c0.3,0,0.5,0,0.8-0.1s0.4-0.1,0.6-0.1v1.1c-0.2,0.1-0.4,0.1-0.7,0.2s-0.6,0.1-0.8,0.1c-1.9,0-2.8-1-2.8-2.9
		v-5.7h-1.4v-0.7l1.4-0.6l0.6-2.1h0.8v2.2h2.8v1.1h-2.8v5.7c0,0.6,0.1,1,0.4,1.3S111.4,227.4,111.8,227.4z"/>
	<path d="M121,228.4l-0.3-1.4h-0.1c-0.5,0.6-1,1-1.4,1.2s-1.1,0.3-1.8,0.3c-1,0-1.7-0.2-2.2-0.7s-0.8-1.2-0.8-2.1
		c0-1.9,1.6-3,4.7-3.1l1.6-0.1v-0.6c0-0.8-0.2-1.3-0.5-1.7s-0.8-0.5-1.6-0.5c-0.8,0-1.7,0.2-2.7,0.7l-0.4-1.1c0.5-0.3,1-0.5,1.6-0.6
		s1.1-0.2,1.7-0.2c1.2,0,2,0.2,2.6,0.8s0.8,1.3,0.8,2.4v6.6L121,228.4L121,228.4z M117.7,227.4c0.9,0,1.6-0.2,2.1-0.8
		s0.8-1.2,0.8-2.1v-0.9l-1.5,0.1c-1.2,0-2,0.2-2.5,0.5s-0.8,0.8-0.8,1.5c0,0.5,0.2,0.9,0.5,1.2S117.1,227.4,117.7,227.4z"/>
	<path d="M133.9,228.6c-1.4,0-2.6-0.4-3.4-1.3s-1.2-2.1-1.2-3.6c0-1.6,0.4-2.8,1.1-3.7s1.8-1.4,3.1-1.4c1.2,0,2.2,0.4,2.9,1.2
		s1.1,1.8,1.1,3.1v0.9h-6.6c0,1.1,0.3,2,0.9,2.6s1.3,0.9,2.3,0.9c1,0,2.1-0.2,3.1-0.6v1.3c-0.5,0.2-1,0.4-1.5,0.5
		S134.5,228.6,133.9,228.6z M133.4,219.8c-0.8,0-1.4,0.2-1.9,0.8s-0.7,1.2-0.8,2.1h5c0-0.9-0.2-1.6-0.6-2.1S134.2,219.8,133.4,219.8
		z"/>
	<path d="M141.3,228.4h-1.5v-13.7h1.5V228.4z"/>
	<path d="M153.4,219.9H151v8.5h-1.5v-8.5h-1.7v-0.7l1.7-0.5v-0.5c0-2.4,1-3.6,3.1-3.6c0.5,0,1.1,0.1,1.8,0.3l-0.4,1.2
		c-0.6-0.2-1-0.3-1.4-0.3c-0.6,0-1,0.2-1.2,0.6s-0.4,0.9-0.4,1.8v0.6h2.4L153.4,219.9L153.4,219.9L153.4,219.9z"/>
	<path d="M163.5,223.6c0,1.6-0.4,2.8-1.2,3.7s-1.9,1.3-3.3,1.3c-0.9,0-1.6-0.2-2.3-0.6s-1.2-1-1.6-1.7s-0.5-1.6-0.5-2.6
		c0-1.6,0.4-2.8,1.2-3.7s1.9-1.3,3.3-1.3c1.4,0,2.4,0.4,3.2,1.3S163.5,222.1,163.5,223.6z M156.2,223.6c0,1.2,0.2,2.2,0.7,2.8
		s1.2,1,2.2,1s1.7-0.3,2.2-1s0.7-1.6,0.7-2.8c0-1.2-0.2-2.1-0.7-2.8s-1.2-0.9-2.2-0.9s-1.7,0.3-2.2,0.9S156.2,222.4,156.2,223.6z"/>
	<path d="M170.5,218.6c0.4,0,0.8,0,1.1,0.1l-0.2,1.4c-0.4-0.1-0.8-0.1-1.1-0.1c-0.8,0-1.4,0.3-2,0.9s-0.8,1.4-0.8,2.4v5.2h-1.5v-9.6
		h1.2l0.2,1.8h0.1c0.4-0.6,0.8-1.1,1.3-1.4S169.9,218.6,170.5,218.6z"/>
	<path d="M185.7,228.4v-6.3c0-0.8-0.2-1.3-0.5-1.7s-0.8-0.6-1.5-0.6c-0.9,0-1.6,0.3-2,0.8s-0.6,1.3-0.6,2.4v5.4h-1.5v-6.3
		c0-0.8-0.2-1.3-0.5-1.7s-0.8-0.6-1.5-0.6c-0.9,0-1.6,0.3-2,0.8s-0.6,1.4-0.6,2.7v5.1h-1.5v-9.6h1.2l0.2,1.3h0.1
		c0.3-0.5,0.7-0.8,1.2-1.1s1.1-0.4,1.7-0.4c1.5,0,2.5,0.5,2.9,1.6h0.1c0.3-0.5,0.7-0.9,1.2-1.2s1.2-0.4,1.9-0.4
		c1.1,0,1.9,0.3,2.4,0.8s0.8,1.4,0.8,2.7v6.3L185.7,228.4L185.7,228.4L185.7,228.4z"/>
	<path d="M191.5,218.8v6.2c0,0.8,0.2,1.4,0.5,1.8s0.9,0.6,1.7,0.6c1,0,1.7-0.3,2.2-0.8s0.7-1.4,0.7-2.7v-5.1h1.5v9.6h-1.2l-0.2-1.3
		h-0.1c-0.3,0.5-0.7,0.8-1.2,1.1s-1.1,0.4-1.8,0.4c-1.2,0-2.1-0.3-2.6-0.8s-0.9-1.4-0.9-2.7v-6.3L191.5,218.8L191.5,218.8
		L191.5,218.8z"/>
	<path d="M202.7,228.4h-1.5v-13.7h1.5V228.4z"/>
	<path d="M211.7,228.4l-0.3-1.4h-0.1c-0.5,0.6-1,1-1.4,1.2s-1.1,0.3-1.8,0.3c-1,0-1.7-0.2-2.2-0.7s-0.8-1.2-0.8-2.1
		c0-1.9,1.6-3,4.7-3.1l1.6-0.1v-0.6c0-0.8-0.2-1.3-0.5-1.7s-0.9-0.5-1.6-0.5c-0.8,0-1.7,0.2-2.7,0.7l-0.4-1.1c0.5-0.3,1-0.5,1.6-0.6
		s1.1-0.2,1.7-0.2c1.1,0,2,0.2,2.6,0.8s0.8,1.3,0.8,2.4v6.6L211.7,228.4L211.7,228.4z M208.4,227.4c0.9,0,1.6-0.2,2.1-0.8
		s0.8-1.2,0.8-2.1v-0.9l-1.5,0.1c-1.2,0-2,0.2-2.5,0.5s-0.8,0.8-0.8,1.5c0,0.5,0.2,0.9,0.5,1.2S207.8,227.4,208.4,227.4z"/>
	<path d="M220.2,218.6c0.4,0,0.8,0,1.1,0.1l-0.2,1.4c-0.4-0.1-0.8-0.1-1.1-0.1c-0.8,0-1.4,0.3-2,0.9s-0.8,1.4-0.8,2.4v5.2h-1.5v-9.6
		h1.2l0.2,1.8h0.1c0.4-0.6,0.8-1.1,1.3-1.4S219.6,218.6,220.2,218.6z"/>
	<path d="M223,216.2c0-0.3,0.1-0.6,0.2-0.7s0.4-0.2,0.6-0.2c0.2,0,0.4,0.1,0.6,0.2s0.2,0.4,0.2,0.7s-0.1,0.6-0.2,0.7
		s-0.4,0.2-0.6,0.2c-0.2,0-0.4-0.1-0.6-0.2S223,216.5,223,216.2z M224.6,228.4h-1.5v-9.6h1.5V228.4z"/>
	<path d="M236,223.6c0,1.6-0.4,2.8-1.2,3.7s-1.9,1.3-3.3,1.3c-0.9,0-1.6-0.2-2.3-0.6s-1.2-1-1.6-1.7s-0.5-1.6-0.5-2.6
		c0-1.6,0.4-2.8,1.2-3.7s1.9-1.3,3.3-1.3c1.4,0,2.4,0.4,3.2,1.3S236,222.1,236,223.6z M228.6,223.6c0,1.2,0.2,2.2,0.7,2.8
		s1.2,1,2.2,1s1.7-0.3,2.2-1s0.7-1.6,0.7-2.8c0-1.2-0.2-2.1-0.7-2.8s-1.2-0.9-2.2-0.9s-1.7,0.3-2.2,0.9S228.6,222.4,228.6,223.6z"/>
</g>
<circle class="st2" cx="30.8" cy="32.3" r="30.8"/>
<g class="st3">
	<path class="st1" d="M42.4,48.5H18.9v-4.9l8.4-8.5c2.5-2.6,4.1-4.3,4.9-5.3s1.3-1.9,1.7-2.7c0.3-0.8,0.5-1.7,0.5-2.6
		c0-1.3-0.4-2.4-1.1-3s-1.7-1-3-1c-1.3,0-2.6,0.3-3.8,0.9c-1.2,0.6-2.5,1.4-3.8,2.5l-3.9-4.6c1.7-1.4,3-2.4,4.1-3
		c1.1-0.6,2.3-1,3.6-1.3c1.3-0.3,2.7-0.5,4.3-0.5c2.1,0,4,0.4,5.6,1.1c1.6,0.8,2.9,1.8,3.7,3.2c0.9,1.4,1.3,3,1.3,4.7
		c0,1.5-0.3,3-0.8,4.4c-0.5,1.4-1.4,2.7-2.5,4.2c-1.1,1.4-3.2,3.5-6,6.1l-4.3,4.1v0.3h14.6V48.5z"/>
</g>
<g>
	<rect x="86.8" y="55.4" class="st1" width="109.4" height="117"/>
	<g>
		<g>
			<rect x="99.6" y="71.4" class="st4" width="14.3" height="14.5"/>
			<path class="st4" d="M176.5,85.8h-54.7c-2.1,0-3.8-1.7-3.8-3.8v-6.9c0-2.1,1.7-3.8,3.8-3.8h54.7c2.1,0,3.8,1.7,3.8,3.8V82
				C180.3,84.1,178.6,85.8,176.5,85.8z"/>
		</g>
		<g>
			<rect x="99.6" y="95.6" class="st4" width="14.3" height="14.5"/>
			<path class="st4" d="M176.5,110.1h-54.7c-2.1,0-3.8-1.7-3.8-3.8v-6.9c0-2.1,1.7-3.8,3.8-3.8h54.7c2.1,0,3.8,1.7,3.8,3.8v6.9
				C180.3,108.3,178.6,110.1,176.5,110.1z"/>
		</g>
	</g>
	<rect x="86.8" y="53.1" class="st5" width="109.4" height="5.7"/>
	<polygon class="st5" points="90.8,45.9 115.2,45.9 119.1,53.1 86.8,53.1 	"/>
	<g>
		<rect x="98.9" y="121.2" class="st4" width="25.2" height="16.1"/>
		<rect x="127.3" y="121.2" class="st4" width="25.2" height="16.1"/>
		<rect x="155.8" y="121.2" class="st4" width="25.2" height="16.1"/>
	</g>
</g>
<path class="st0" d="M169.7,163.2h-56.5c-3.9,0-7-3.1-7-7v-4.3c0-3.9,3.1-7,7-7h56.5c3.9,0,7,3.1,7,7v4.3
	C176.7,160.1,173.6,163.2,169.7,163.2z"/>
<g>
	<g>
		<path class="st1" d="M119.2,153.1c0,0.2-0.1,0.4-0.2,0.4c-0.1,0.1-0.3,0.1-0.5,0.1s-0.3-0.1-0.5-0.2c-0.1-0.1-0.2-0.2-0.2-0.4
			c0-0.2,0.1-0.3,0.2-0.4c0.1-0.1,0.3-0.2,0.4-0.2c0.2,0,0.3,0.1,0.5,0.2C119.1,152.8,119.2,152.9,119.2,153.1z M118.1,154.3h0.9
			l0.2,3.5h-1.2L118.1,154.3z"/>
		<path class="st1" d="M123.3,155c0,0.5-0.2,0.8-0.5,1.1s-0.8,0.4-1.4,0.4c-0.6,0-1-0.1-1.5-0.3v-1c0.3,0.2,0.7,0.3,0.9,0.3
			s0.5,0.1,0.7,0.1c0.2,0,0.4-0.1,0.6-0.1s0.2-0.2,0.2-0.4c0-0.1,0-0.2-0.1-0.3s-0.1-0.2-0.2-0.2c-0.1-0.1-0.3-0.2-0.7-0.4
			c-0.3-0.1-0.6-0.3-0.7-0.4s-0.3-0.3-0.4-0.5s-0.1-0.4-0.1-0.6c0-0.5,0.2-0.8,0.5-1.1s0.7-0.4,1.3-0.4c0.3,0,0.5,0,0.8,0.1
			c0.2,0.1,0.5,0.1,0.8,0.3l-0.3,0.9c-0.3-0.1-0.5-0.2-0.7-0.2s-0.4-0.1-0.5-0.1c-0.2,0-0.4,0.1-0.5,0.1c-0.1,0.1-0.2,0.2-0.2,0.4
			c0,0.1,0,0.2,0.1,0.2s0.1,0.1,0.2,0.2c0.1,0.1,0.3,0.2,0.7,0.4c0.5,0.2,0.8,0.5,1,0.7C123.2,154.4,123.3,154.7,123.3,155z"/>
		<path class="st1" d="M126.9,156.5l-0.2-0.5h-0.1c-0.1,0.2-0.3,0.3-0.5,0.4c-0.2,0.1-0.5,0.1-0.7,0.1c-0.5,0-0.8-0.1-1.1-0.4
			c-0.2-0.2-0.3-0.6-0.3-1.1v-2.6h1.1v2.3c0,0.3,0.1,0.5,0.2,0.6s0.3,0.2,0.5,0.2c0.3,0,0.5-0.1,0.7-0.3s0.2-0.5,0.2-1v-1.9h1.1v4
			L126.9,156.5L126.9,156.5z"/>
		<path class="st1" d="M131.7,155.3c0,0.4-0.1,0.7-0.4,0.9s-0.7,0.3-1.3,0.3c-0.3,0-0.5,0-0.7-0.1s-0.4-0.1-0.6-0.2v-0.9
			c0.2,0.1,0.4,0.2,0.7,0.2c0.2,0.1,0.5,0.1,0.7,0.1c0.4,0,0.6-0.1,0.6-0.3c0-0.1,0-0.1-0.1-0.2c-0.1-0.1-0.1-0.1-0.3-0.2
			s-0.3-0.1-0.5-0.2c-0.3-0.1-0.5-0.2-0.7-0.4c-0.1-0.1-0.2-0.2-0.3-0.4c-0.1-0.1-0.1-0.3-0.1-0.5c0-0.4,0.1-0.6,0.4-0.8
			c0.3-0.2,0.7-0.3,1.2-0.3c0.5,0,0.9,0.1,1.4,0.3l-0.3,0.8c-0.2-0.1-0.4-0.1-0.6-0.2s-0.4-0.1-0.5-0.1c-0.3,0-0.5,0.1-0.5,0.3
			c0,0.1,0.1,0.2,0.1,0.2c0.1,0.1,0.3,0.2,0.7,0.3c0.3,0.1,0.5,0.2,0.7,0.4s0.2,0.2,0.3,0.4C131.6,154.9,131.7,155.1,131.7,155.3z"
			/>
		<path class="st1" d="M134.1,156.6c-1.2,0-1.9-0.7-1.9-2c0-0.7,0.2-1.2,0.5-1.5c0.3-0.4,0.8-0.5,1.4-0.5c0.5,0,0.9,0.1,1.2,0.3
			l-0.3,0.8c-0.2-0.1-0.3-0.1-0.5-0.2c-0.1,0-0.3-0.1-0.4-0.1c-0.6,0-0.8,0.4-0.8,1.2c0,0.8,0.3,1.2,0.8,1.2c0.2,0,0.4,0,0.6-0.1
			s0.4-0.1,0.5-0.3v0.9c-0.2,0.1-0.4,0.2-0.5,0.2C134.6,156.5,134.4,156.6,134.1,156.6z"/>
		<path class="st1" d="M138.5,152.4c0.1,0,0.3,0,0.4,0l-0.1,1c-0.1,0-0.2,0-0.3,0c-0.3,0-0.6,0.1-0.8,0.3s-0.3,0.4-0.3,0.7v2h-1.1
			v-4h0.8l0.2,0.7h0.1c0.1-0.2,0.3-0.4,0.5-0.5C138,152.5,138.2,152.4,138.5,152.4z"/>
		<path class="st1" d="M139.5,151.5c0-0.4,0.2-0.5,0.6-0.5s0.6,0.2,0.6,0.5c0,0.2-0.1,0.3-0.1,0.4c-0.1,0.1-0.2,0.1-0.4,0.1
			C139.7,152,139.5,151.8,139.5,151.5z M140.6,156.5h-1.1v-4h1.1V156.5z"/>
		<path class="st1" d="M144,152.4c0.5,0,0.8,0.2,1.1,0.6c0.3,0.4,0.4,0.9,0.4,1.5c0,0.7-0.1,1.2-0.4,1.5s-0.6,0.5-1.1,0.5
			c-0.5,0-0.8-0.2-1.1-0.5h-0.1l-0.2,0.4h-0.8V151h1.1v1.3c0,0.2,0,0.4,0,0.8h0C143.1,152.6,143.5,152.4,144,152.4z M143.6,153.3
			c-0.3,0-0.5,0.1-0.6,0.2s-0.2,0.4-0.2,0.8v0.1c0,0.4,0.1,0.7,0.2,0.9c0.1,0.2,0.3,0.3,0.6,0.3c0.2,0,0.4-0.1,0.5-0.3
			c0.1-0.2,0.2-0.5,0.2-0.9s-0.1-0.7-0.2-0.9C144,153.4,143.9,153.3,143.6,153.3z"/>
		<path class="st1" d="M146.3,151.5c0-0.4,0.2-0.5,0.6-0.5s0.6,0.2,0.6,0.5c0,0.2-0.1,0.3-0.1,0.4c-0.1,0.1-0.2,0.1-0.4,0.1
			C146.5,152,146.3,151.8,146.3,151.5z M147.4,156.5h-1.1v-4h1.1V156.5z"/>
		<path class="st1" d="M150.8,152.4c0.1,0,0.3,0,0.4,0l-0.1,1c-0.1,0-0.2,0-0.3,0c-0.3,0-0.6,0.1-0.8,0.3s-0.3,0.4-0.3,0.7v2h-1.1
			v-4h0.8l0.2,0.7h0.1c0.1-0.2,0.3-0.4,0.5-0.5C150.3,152.5,150.6,152.4,150.8,152.4z"/>
		<path class="st1" d="M155.4,156.5h-1.1v-2.3c0-0.3-0.1-0.5-0.1-0.6c-0.1-0.1-0.2-0.2-0.4-0.2c-0.3,0-0.5,0.1-0.6,0.3
			c-0.1,0.2-0.2,0.5-0.2,1v1.9h-1.1v-4h0.8l0.1,0.5h0.1c0.1-0.2,0.3-0.3,0.5-0.4c0.2-0.1,0.4-0.1,0.7-0.1c0.6,0,1,0.2,1.2,0.6h0.1
			c0.1-0.2,0.3-0.3,0.5-0.4s0.4-0.1,0.7-0.1c0.4,0,0.8,0.1,1,0.4s0.4,0.6,0.4,1.1v2.6h-1.1v-2.3c0-0.3-0.1-0.5-0.1-0.6
			c-0.1-0.1-0.2-0.2-0.4-0.2c-0.3,0-0.5,0.1-0.6,0.3c-0.1,0.2-0.2,0.5-0.2,0.9L155.4,156.5L155.4,156.5z"/>
		<path class="st1" d="M160.8,156.6c-0.6,0-1.1-0.2-1.5-0.5s-0.5-0.9-0.5-1.5c0-0.7,0.2-1.2,0.5-1.5s0.8-0.5,1.4-0.5
			c0.6,0,1,0.2,1.3,0.5c0.3,0.3,0.5,0.8,0.5,1.3v0.5h-2.6c0,0.3,0.1,0.6,0.3,0.7s0.4,0.3,0.7,0.3c0.2,0,0.5,0,0.7-0.1
			c0.2-0.1,0.4-0.1,0.7-0.2v0.8c-0.2,0.1-0.4,0.2-0.6,0.2S161.1,156.6,160.8,156.6z M160.6,153.2c-0.2,0-0.4,0.1-0.5,0.2
			s-0.2,0.4-0.2,0.6h1.5c0-0.3-0.1-0.5-0.2-0.6S160.9,153.2,160.6,153.2z"/>
		<path class="st1" d="M163.1,156c0-0.2,0.1-0.4,0.2-0.4s0.3-0.1,0.5-0.1c0.2,0,0.4,0.1,0.5,0.2c0.1,0.1,0.2,0.2,0.2,0.4
			c0,0.2-0.1,0.3-0.2,0.4s-0.3,0.2-0.4,0.2c-0.2,0-0.4-0.1-0.5-0.2C163.2,156.3,163.1,156.2,163.1,156z M164.2,154.8h-0.9l-0.2-3.5
			h1.2L164.2,154.8z"/>
	</g>
</g>
<g>
	<polygon class="st6" points="177.7,166.2 181.3,187 198.7,174.7 	"/>
	
		<rect x="158.4" y="114.5" transform="matrix(0.3771 -0.9262 0.9262 0.3771 11.9988 269.5672)" class="st5" width="96.1" height="22.7"/>
	<polygon class="st7" points="180,179.7 181.3,187 187.4,182.7 	"/>
</g>
<g>
	<circle class="st5" cx="126.4" cy="78.6" r="1.7"/>
	<circle class="st5" cx="134.5" cy="78.6" r="1.7"/>
	<circle class="st5" cx="142.5" cy="78.6" r="1.7"/>
	<circle class="st5" cx="150.6" cy="78.6" r="1.7"/>
	<circle class="st5" cx="158.7" cy="78.6" r="1.7"/>
	<circle class="st5" cx="166.7" cy="78.6" r="1.7"/>
</g>
<g>
	<circle class="st5" cx="126.4" cy="103.3" r="1.7"/>
	<circle class="st5" cx="134.5" cy="103.3" r="1.7"/>
	<circle class="st5" cx="142.5" cy="103.3" r="1.7"/>
	<circle class="st5" cx="150.6" cy="103.3" r="1.7"/>
	<circle class="st5" cx="158.7" cy="103.3" r="1.7"/>
	<circle class="st5" cx="166.7" cy="103.3" r="1.7"/>
</g>
</svg>
