<?xml version="1.0" encoding="utf-8"?>
<!-- Generator: Adobe Illustrator 23.0.1, SVG Export Plug-In . SVG Version: 6.00 Build 0)  -->
<svg version="1.1" id="Capa_1" xmlns="http://www.w3.org/2000/svg" xmlns:xlink="http://www.w3.org/1999/xlink" x="0px" y="0px"
	 viewBox="0 0 293.5 293.33" style="enable-background:new 0 0 293.5 293.33;" xml:space="preserve">
<style type="text/css">
	.st0{fill:#6E85C0;}
	.st1{fill:#FFFFFF;}
	.st2{fill:#5FA69C;}
	.st3{fill:#00E3BE;}
	.st4{fill:none;stroke:#EBEBEB;stroke-width:3;stroke-linecap:round;stroke-miterlimit:10;}
</style>
<g>
	<g>
		<rect x="15.58" y="27.74" class="st0" width="253.37" height="241.95"/>
		<rect x="15.58" y="195.7" class="st1" width="253.37" height="74"/>
	</g>
	<g>
		<path d="M100.73,225.38h-1.49v-6.05h-6.77v6.05h-1.49v-12.85h1.49V218h6.77v-5.47h1.49V225.38z"/>
		<path d="M110.41,225.38l-0.29-1.37h-0.07c-0.48,0.6-0.96,1.01-1.44,1.23s-1.07,0.32-1.79,0.32c-0.96,0-1.7-0.25-2.25-0.74
			s-0.81-1.19-0.81-2.1c0-1.95,1.56-2.96,4.67-3.06l1.63-0.05v-0.6c0-0.76-0.16-1.31-0.49-1.67s-0.85-0.54-1.56-0.54
			c-0.8,0-1.71,0.25-2.72,0.74l-0.45-1.12c0.47-0.26,0.99-0.46,1.56-0.61s1.13-0.22,1.7-0.22c1.15,0,2,0.25,2.55,0.76
			s0.83,1.33,0.83,2.45v6.57L110.41,225.38L110.41,225.38z M107.11,224.35c0.91,0,1.62-0.25,2.14-0.75s0.78-1.2,0.78-2.09v-0.87
			l-1.46,0.06c-1.16,0.04-2,0.22-2.51,0.54s-0.77,0.82-0.77,1.49c0,0.53,0.16,0.93,0.48,1.2S106.54,224.35,107.11,224.35z"/>
		<path d="M121.11,225.38h-6.99v-0.99l5.26-7.51h-4.93v-1.13h6.53v1.13l-5.19,7.37h5.32V225.38z"/>
		<path d="M132.79,225.55c-1.39,0-2.47-0.43-3.24-1.29s-1.15-2.07-1.15-3.64c0-1.61,0.39-2.86,1.16-3.74s1.88-1.32,3.32-1.32
			c0.46,0,0.93,0.05,1.39,0.15s0.83,0.22,1.09,0.35l-0.45,1.24c-0.32-0.13-0.67-0.24-1.05-0.32s-0.72-0.13-1.01-0.13
			c-1.96,0-2.94,1.25-2.94,3.74c0,1.18,0.24,2.09,0.72,2.72s1.19,0.95,2.12,0.95c0.8,0,1.63-0.17,2.47-0.52v1.29
			C134.58,225.39,133.77,225.55,132.79,225.55z"/>
		<path d="M139.42,225.38h-1.46V211.7h1.46V225.38z"/>
		<path d="M142.84,213.14c0-0.33,0.08-0.58,0.25-0.73s0.37-0.23,0.62-0.23c0.23,0,0.44,0.08,0.61,0.24s0.25,0.4,0.25,0.73
			s-0.08,0.57-0.25,0.73s-0.37,0.24-0.61,0.24c-0.25,0-0.45-0.08-0.62-0.24S142.84,213.46,142.84,213.14z M144.42,225.38h-1.46
			v-9.63h1.46V225.38z"/>
		<path d="M151.81,225.55c-1.39,0-2.47-0.43-3.24-1.29s-1.15-2.07-1.15-3.64c0-1.61,0.39-2.86,1.16-3.74s1.88-1.32,3.32-1.32
			c0.46,0,0.93,0.05,1.39,0.15s0.83,0.22,1.09,0.35l-0.45,1.24c-0.32-0.13-0.67-0.24-1.05-0.32s-0.72-0.13-1.01-0.13
			c-1.96,0-2.94,1.25-2.94,3.74c0,1.18,0.24,2.09,0.72,2.72s1.19,0.95,2.12,0.95c0.8,0,1.63-0.17,2.47-0.52v1.29
			C153.6,225.39,152.79,225.55,151.81,225.55z"/>
		<path d="M158.43,220.45c0.25-0.36,0.64-0.83,1.15-1.41l3.11-3.3h1.73l-3.9,4.1l4.17,5.53h-1.77l-3.4-4.55l-1.1,0.95v3.6h-1.44
			V211.7h1.44v7.25c0,0.32-0.02,0.82-0.07,1.49L158.43,220.45L158.43,220.45z"/>
		<path d="M176.08,225.55c-1.42,0-2.55-0.43-3.37-1.3s-1.23-2.07-1.23-3.61c0-1.55,0.38-2.79,1.15-3.7s1.79-1.37,3.08-1.37
			c1.21,0,2.16,0.4,2.87,1.19s1.05,1.84,1.05,3.14v0.92h-6.64c0.03,1.13,0.31,1.99,0.86,2.58s1.31,0.88,2.29,0.88
			c1.04,0,2.06-0.22,3.08-0.65v1.3c-0.52,0.22-1,0.38-1.46,0.48S176.73,225.55,176.08,225.55z M175.68,216.79
			c-0.77,0-1.39,0.25-1.85,0.76s-0.73,1.2-0.81,2.09h5.04c0-0.92-0.21-1.62-0.62-2.11S176.44,216.79,175.68,216.79z"/>
		<path d="M189.15,225.38v-6.23c0-0.79-0.18-1.37-0.54-1.76s-0.92-0.58-1.68-0.58c-1.01,0-1.75,0.27-2.21,0.82s-0.7,1.44-0.7,2.7
			v5.05h-1.46v-9.63h1.19l0.24,1.32h0.07c0.3-0.47,0.72-0.84,1.26-1.1s1.14-0.39,1.8-0.39c1.16,0,2.03,0.28,2.62,0.84
			s0.88,1.45,0.88,2.69v6.28h-1.47V225.38z"/>
		<path d="M81.41,240.83c0,2.12-0.58,3.74-1.73,4.86s-2.81,1.68-4.97,1.68h-3.56v-12.85h3.94c2,0,3.55,0.55,4.66,1.66
			S81.41,238.84,81.41,240.83z M79.83,240.88c0-1.68-0.42-2.94-1.26-3.79s-2.09-1.27-3.75-1.27h-2.17v10.27h1.82
			c1.78,0,3.12-0.44,4.02-1.31S79.83,242.6,79.83,240.88z"/>
		<path d="M92.82,242.55c0,1.57-0.4,2.8-1.19,3.68s-1.88,1.32-3.28,1.32c-0.86,0-1.63-0.2-2.29-0.61s-1.18-0.98-1.55-1.74
			s-0.54-1.64-0.54-2.65c0-1.57,0.39-2.79,1.18-3.67s1.88-1.31,3.27-1.31c1.35,0,2.42,0.45,3.21,1.34S92.82,241.02,92.82,242.55z
			 M85.49,242.55c0,1.23,0.25,2.17,0.74,2.81s1.22,0.97,2.17,0.97s1.68-0.32,2.18-0.96s0.74-1.58,0.74-2.82
			c0-1.22-0.25-2.15-0.74-2.79s-1.23-0.95-2.19-0.95s-1.68,0.31-2.16,0.94S85.49,241.31,85.49,242.55z"/>
		<path d="M102.42,247.38v-6.23c0-0.79-0.18-1.37-0.54-1.76s-0.92-0.58-1.68-0.58c-1.01,0-1.75,0.27-2.21,0.82s-0.7,1.44-0.7,2.7
			v5.05h-1.46v-9.63h1.19l0.24,1.32h0.07c0.3-0.47,0.72-0.84,1.26-1.1s1.14-0.39,1.8-0.39c1.16,0,2.03,0.28,2.62,0.84
			s0.88,1.45,0.88,2.69v6.28h-1.47V247.38z"/>
		<path d="M113.25,247.38l-0.29-1.37h-0.07c-0.48,0.6-0.96,1.01-1.44,1.23s-1.07,0.32-1.79,0.32c-0.96,0-1.7-0.25-2.25-0.74
			s-0.81-1.19-0.81-2.1c0-1.95,1.56-2.96,4.67-3.06l1.63-0.05v-0.6c0-0.76-0.16-1.31-0.49-1.67s-0.85-0.54-1.56-0.54
			c-0.8,0-1.71,0.25-2.72,0.74l-0.45-1.12c0.47-0.26,0.99-0.46,1.56-0.61s1.13-0.22,1.7-0.22c1.15,0,2,0.25,2.55,0.76
			s0.83,1.33,0.83,2.45v6.57L113.25,247.38L113.25,247.38z M109.96,246.35c0.91,0,1.62-0.25,2.14-0.75s0.78-1.2,0.78-2.09v-0.87
			l-1.46,0.06c-1.16,0.04-2,0.22-2.51,0.54s-0.77,0.82-0.77,1.49c0,0.53,0.16,0.93,0.48,1.2S109.38,246.35,109.96,246.35z"/>
		<path d="M126.03,246.35c0.26,0,0.51-0.02,0.75-0.06s0.43-0.08,0.57-0.12v1.12c-0.16,0.08-0.39,0.14-0.7,0.19s-0.58,0.07-0.83,0.07
			c-1.86,0-2.79-0.98-2.79-2.94v-5.73h-1.38v-0.7l1.38-0.61l0.62-2.06h0.84v2.23h2.79v1.13h-2.79v5.67c0,0.58,0.14,1.03,0.41,1.34
			S125.55,246.35,126.03,246.35z"/>
		<path d="M131.09,237.75V244c0,0.79,0.18,1.37,0.54,1.76s0.92,0.58,1.68,0.58c1.01,0,1.74-0.28,2.21-0.83s0.7-1.45,0.7-2.7v-5.06
			h1.46v9.63h-1.2l-0.21-1.29h-0.08c-0.3,0.47-0.71,0.84-1.24,1.09s-1.14,0.38-1.81,0.38c-1.17,0-2.05-0.28-2.63-0.83
			s-0.87-1.45-0.87-2.67v-6.3h1.45V237.75z"/>
		<path d="M152.07,235.68c-1.41,0-2.53,0.47-3.34,1.41s-1.23,2.23-1.23,3.86c0,1.68,0.39,2.98,1.18,3.9s1.91,1.38,3.37,1.38
			c0.9,0,1.92-0.16,3.07-0.48v1.31c-0.89,0.33-1.99,0.5-3.3,0.5c-1.89,0-3.35-0.57-4.38-1.72s-1.54-2.78-1.54-4.9
			c0-1.32,0.25-2.48,0.74-3.48s1.21-1.76,2.14-2.3s2.03-0.81,3.3-0.81c1.35,0,2.53,0.25,3.53,0.74l-0.63,1.28
			C154.01,235.91,153.04,235.68,152.07,235.68z"/>
		<path d="M159.52,237.75V244c0,0.79,0.18,1.37,0.54,1.76s0.92,0.58,1.68,0.58c1.01,0,1.74-0.28,2.21-0.83s0.7-1.45,0.7-2.7v-5.06
			h1.46v9.63h-1.2l-0.21-1.29h-0.08c-0.3,0.47-0.71,0.84-1.24,1.09s-1.14,0.38-1.81,0.38c-1.17,0-2.05-0.28-2.63-0.83
			s-0.87-1.45-0.87-2.67v-6.3h1.45V237.75z"/>
		<path d="M181.93,247.38v-6.27c0-0.77-0.16-1.34-0.49-1.73s-0.84-0.58-1.53-0.58c-0.91,0-1.58,0.26-2.01,0.78s-0.65,1.32-0.65,2.41
			v5.38h-1.46v-6.27c0-0.77-0.16-1.34-0.49-1.73s-0.84-0.58-1.54-0.58c-0.91,0-1.58,0.27-2.01,0.82s-0.64,1.45-0.64,2.69v5.05h-1.46
			v-9.63h1.19l0.24,1.32h0.07c0.28-0.47,0.66-0.83,1.16-1.1s1.06-0.4,1.68-0.4c1.51,0,2.49,0.54,2.95,1.63h0.07
			c0.29-0.5,0.7-0.9,1.25-1.2s1.17-0.44,1.86-0.44c1.09,0,1.91,0.28,2.45,0.84s0.81,1.45,0.81,2.69v6.28h-1.45V247.38z"/>
		<path d="M191.32,247.55c-0.63,0-1.2-0.12-1.72-0.35s-0.95-0.59-1.31-1.07h-0.11c0.07,0.56,0.11,1.1,0.11,1.6v3.96h-1.46v-13.96
			h1.19l0.2,1.32h0.07c0.38-0.53,0.81-0.91,1.31-1.14s1.07-0.35,1.71-0.35c1.28,0,2.26,0.44,2.96,1.31s1.04,2.1,1.04,3.67
			c0,1.58-0.35,2.81-1.06,3.69S192.58,247.55,191.32,247.55z M191.11,238.81c-0.98,0-1.7,0.27-2.14,0.82s-0.67,1.41-0.68,2.6v0.33
			c0,1.35,0.23,2.32,0.68,2.9s1.17,0.87,2.17,0.87c0.83,0,1.48-0.34,1.96-1.01s0.71-1.6,0.71-2.79c0-1.2-0.24-2.12-0.71-2.76
			S191.97,238.81,191.11,238.81z"/>
		<path d="M199.78,247.38h-1.46V233.7h1.46V247.38z"/>
		<path d="M207.39,247.55c-1.42,0-2.55-0.43-3.37-1.3s-1.23-2.07-1.23-3.61c0-1.55,0.38-2.79,1.15-3.7s1.79-1.37,3.08-1.37
			c1.21,0,2.16,0.4,2.87,1.19s1.05,1.84,1.05,3.14v0.92h-6.64c0.03,1.13,0.31,1.99,0.86,2.58s1.31,0.88,2.29,0.88
			c1.04,0,2.06-0.22,3.08-0.65v1.3c-0.52,0.22-1,0.38-1.46,0.48S208.04,247.55,207.39,247.55z M207,238.79
			c-0.77,0-1.39,0.25-1.85,0.76s-0.73,1.2-0.81,2.09h5.04c0-0.92-0.21-1.62-0.62-2.11S207.76,238.79,207,238.79z"/>
	</g>
	<path class="st2" d="M211.99,119.52H64.36c-10.79,0-19.54-8.75-19.54-19.54l0,0c0-10.79,8.75-19.54,19.54-19.54h147.63
		c10.79,0,19.54,8.75,19.54,19.54l0,0C231.53,110.78,222.78,119.52,211.99,119.52z"/>
	<g>
		<path class="st1" d="M77.47,97.99c0,2.47-0.7,4.36-2.11,5.67s-3.43,1.97-6.09,1.97h-4.25V90.64h4.71c2.45,0,4.35,0.65,5.7,1.94
			S77.47,95.68,77.47,97.99z M74.16,98.07c0-3.22-1.42-4.83-4.27-4.83H68.2V103h1.36C72.63,103.01,74.16,101.36,74.16,98.07z"/>
		<path class="st1" d="M89.72,99.88c0,1.87-0.49,3.33-1.48,4.38s-2.35,1.58-4.11,1.58c-1.1,0-2.07-0.24-2.91-0.72
			c-0.84-0.48-1.49-1.17-1.94-2.08s-0.68-1.96-0.68-3.16c0-1.87,0.49-3.33,1.47-4.37s2.35-1.56,4.12-1.56c1.1,0,2.07,0.24,2.91,0.72
			s1.49,1.17,1.94,2.06S89.72,98.68,89.72,99.88z M81.79,99.88c0,1.13,0.19,1.99,0.56,2.57s0.98,0.87,1.82,0.87
			c0.83,0,1.43-0.29,1.8-0.87s0.55-1.44,0.55-2.58c0-1.13-0.18-1.99-0.55-2.55s-0.97-0.85-1.81-0.85c-0.83,0-1.44,0.28-1.8,0.85
			C81.97,97.89,81.79,98.74,81.79,99.88z"/>
		<path class="st1" d="M101.85,105.63h-3.13v-6.7c0-0.83-0.15-1.45-0.44-1.86s-0.76-0.62-1.4-0.62c-0.88,0-1.51,0.29-1.9,0.88
			c-0.39,0.58-0.58,1.55-0.58,2.91v5.39h-3.13V94.17h2.39l0.42,1.47h0.17c0.35-0.55,0.83-0.97,1.44-1.26
			c0.61-0.28,1.31-0.43,2.09-0.43c1.33,0,2.34,0.36,3.04,1.08c0.69,0.72,1.04,1.76,1.04,3.12L101.85,105.63L101.85,105.63z"/>
		<path class="st1" d="M111.32,105.63l-0.6-1.56h-0.08c-0.53,0.66-1.07,1.12-1.63,1.38c-0.56,0.26-1.28,0.38-2.18,0.38
			c-1.1,0-1.97-0.31-2.6-0.94s-0.95-1.52-0.95-2.69c0-1.22,0.43-2.11,1.28-2.69s2.13-0.9,3.85-0.96l1.99-0.06v-0.5
			c0-1.16-0.59-1.74-1.78-1.74c-0.92,0-1.99,0.28-3.23,0.83l-1.04-2.11c1.32-0.69,2.78-1.04,4.39-1.04c1.54,0,2.72,0.33,3.54,1
			s1.23,1.69,1.23,3.06v7.64C113.51,105.63,111.32,105.63,111.32,105.63z M110.4,100.32l-1.21,0.04c-0.91,0.03-1.59,0.19-2.03,0.49
			s-0.67,0.76-0.67,1.37c0,0.88,0.51,1.32,1.52,1.32c0.72,0,1.3-0.21,1.74-0.62s0.65-0.97,0.65-1.66V100.32z"/>
		<path class="st1" d="M124.95,103.34c0.55,0,1.2-0.12,1.97-0.36v2.33c-0.78,0.35-1.74,0.52-2.87,0.52c-1.25,0-2.16-0.32-2.73-0.95
			s-0.86-1.58-0.86-2.85V96.5h-1.5v-1.32l1.72-1.05l0.9-2.42h2v2.44h3.21v2.35h-3.21v5.53c0,0.44,0.12,0.77,0.37,0.98
			S124.54,103.34,124.95,103.34z"/>
		<path class="st1" d="M136.33,105.63l-0.42-1.47h-0.16c-0.33,0.53-0.81,0.95-1.43,1.24s-1.32,0.44-2.1,0.44
			c-1.35,0-2.36-0.36-3.05-1.08c-0.68-0.72-1.03-1.76-1.03-3.11v-7.47h3.13v6.7c0,0.83,0.15,1.45,0.44,1.86
			c0.29,0.41,0.76,0.62,1.4,0.62c0.88,0,1.51-0.29,1.9-0.88c0.39-0.58,0.58-1.55,0.58-2.91v-5.39h3.13v11.46L136.33,105.63
			L136.33,105.63z"/>
		<path class="st1" d="M152.02,93.07c-1.2,0-2.12,0.45-2.78,1.35s-0.98,2.15-0.98,3.76c0,3.34,1.25,5.01,3.76,5.01
			c1.05,0,2.33-0.26,3.82-0.79v2.67c-1.23,0.51-2.6,0.77-4.12,0.77c-2.18,0-3.85-0.66-5-1.98c-1.16-1.32-1.73-3.22-1.73-5.7
			c0-1.56,0.28-2.92,0.85-4.1c0.57-1.17,1.38-2.07,2.45-2.7c1.06-0.62,2.31-0.94,3.74-0.94c1.46,0,2.92,0.35,4.39,1.06l-1.03,2.58
			c-0.56-0.27-1.12-0.5-1.69-0.7S152.57,93.07,152.02,93.07z"/>
		<path class="st1" d="M165.88,105.63l-0.42-1.47h-0.16c-0.33,0.53-0.81,0.95-1.43,1.24s-1.32,0.44-2.1,0.44
			c-1.35,0-2.36-0.36-3.05-1.08c-0.68-0.72-1.03-1.76-1.03-3.11v-7.47h3.13v6.7c0,0.83,0.15,1.45,0.44,1.86
			c0.29,0.41,0.76,0.62,1.4,0.62c0.88,0,1.51-0.29,1.9-0.88c0.39-0.58,0.58-1.55,0.58-2.91v-5.39h3.13v11.46L165.88,105.63
			L165.88,105.63z"/>
		<path class="st1" d="M180.8,105.63h-3.13v-6.7c0-0.83-0.14-1.45-0.42-1.86s-0.71-0.62-1.31-0.62c-0.8,0-1.38,0.29-1.74,0.88
			s-0.54,1.56-0.54,2.9v5.39h-3.13V94.17h2.39l0.42,1.47h0.17c0.31-0.53,0.75-0.94,1.33-1.24c0.58-0.3,1.25-0.45,2-0.45
			c1.72,0,2.88,0.56,3.49,1.68h0.28c0.31-0.53,0.76-0.95,1.36-1.24s1.27-0.44,2.03-0.44c1.3,0,2.28,0.33,2.95,1s1,1.73,1,3.2v7.48
			h-3.14v-6.7c0-0.83-0.14-1.45-0.42-1.86s-0.71-0.62-1.31-0.62c-0.77,0-1.34,0.27-1.72,0.82s-0.57,1.42-0.57,2.6v5.76H180.8z"/>
		<path class="st1" d="M196.42,105.84c-1.35,0-2.4-0.49-3.17-1.47h-0.16c0.11,0.96,0.16,1.51,0.16,1.66v4.65h-3.13V94.17h2.54
			l0.44,1.49h0.14c0.73-1.13,1.81-1.7,3.25-1.7c1.35,0,2.41,0.52,3.18,1.57s1.15,2.5,1.15,4.36c0,1.22-0.18,2.29-0.54,3.19
			s-0.87,1.59-1.53,2.06S197.32,105.84,196.42,105.84z M195.5,96.45c-0.77,0-1.34,0.24-1.69,0.71c-0.36,0.48-0.54,1.26-0.55,2.35
			v0.34c0,1.23,0.18,2.11,0.55,2.65s0.95,0.8,1.74,0.8c1.4,0,2.1-1.16,2.1-3.47c0-1.13-0.17-1.97-0.52-2.54
			C196.78,96.74,196.24,96.45,195.5,96.45z"/>
		<path class="st1" d="M205.51,105.63h-3.13V89.68h3.13V105.63z"/>
		<path class="st1" d="M212.95,105.84c-1.85,0-3.29-0.51-4.33-1.53s-1.56-2.46-1.56-4.33c0-1.92,0.48-3.41,1.44-4.46
			c0.96-1.05,2.29-1.57,3.98-1.57c1.62,0,2.88,0.46,3.78,1.38s1.35,2.2,1.35,3.82v1.52h-7.39c0.03,0.89,0.3,1.58,0.79,2.08
			s1.18,0.75,2.07,0.75c0.69,0,1.34-0.07,1.96-0.21s1.26-0.37,1.93-0.69v2.42c-0.55,0.27-1.13,0.48-1.75,0.61
			C214.61,105.77,213.85,105.84,212.95,105.84z M212.51,96.18c-0.66,0-1.18,0.21-1.56,0.63s-0.59,1.02-0.65,1.79h4.39
			c-0.01-0.77-0.22-1.37-0.6-1.79C213.7,96.39,213.18,96.18,212.51,96.18z"/>
	</g>
	<g>
		<g>
			<path class="st1" d="M160.78,172.69l-18.44,0.05c-4.22,0.01-7.97-2.52-9.57-6.43c-0.02-0.04-0.04-0.09-0.06-0.13l-13.27-23.81
				c-0.58-1.05-0.73-2.27-0.4-3.43c0.32-1.15,1.09-2.11,2.13-2.7c1.05-0.59,2.27-0.72,3.43-0.4c0.19,0.05,0.37,0.13,0.56,0.21
				c0.9,0.39,1.65,1.06,2.14,1.94l2.4,4.32c0.27,0.47,0.83,0.71,1.36,0.58c0.53-0.14,0.89-0.62,0.9-1.17l-0.07-26.54
				c-0.01-2.48,2.01-4.51,4.49-4.51c2.48-0.01,4.5,2,4.51,4.49l0.03,9.23c0,0.03,0.01,0.05,0.01,0.07l0.04,16.26
				c0.01,0.49,0.3,0.92,0.73,1.1c0.15,0.06,0.31,0.1,0.48,0.09c0.66,0,1.19-0.54,1.19-1.2l-0.04-15.88c0.84-0.81,1.95-1.28,3.1-1.29
				c2.1,0,3.93,1.47,4.39,3.51l0.04,14.61c0,0.5,0.3,0.92,0.73,1.1c0.15,0.06,0.31,0.1,0.48,0.1c0.66,0,1.2-0.54,1.2-1.21
				l-0.05-14.32c0.85-0.91,2.01-1.42,3.23-1.42c2.47-0.01,4.5,2.01,4.51,4.49c0,0.01,0,0.01,0,0.01l0.04,14.07
				c0,0.49,0.3,0.91,0.72,1.1c0.15,0.06,0.31,0.1,0.48,0.09c0.66,0,1.2-0.54,1.2-1.2l-0.03-13.6c0.84-0.83,1.95-1.3,3.1-1.3
				c2.48,0,4.51,2.01,4.51,4.49l0.08,28.3C171.07,168.04,166.46,172.67,160.78,172.69z"/>
		</g>
	</g>
	<circle class="st3" cx="30.83" cy="32.21" r="30.83"/>
	<g>
		<path class="st1" d="M36.46,48.47h-7.1V29.04l0.07-3.19l0.11-3.49c-1.18,1.18-2,1.95-2.46,2.32l-3.86,3.1l-3.42-4.27l10.82-8.61
			h5.83v33.57H36.46z"/>
	</g>
	<g>
		<line class="st4" x1="221.92" y1="59.85" x2="219.42" y2="72.35"/>
		<line class="st4" x1="235.21" y1="65.13" x2="228.13" y2="75.73"/>
		<line class="st4" x1="246.05" y1="75.61" x2="234.62" y2="81.26"/>
	</g>
</g>
</svg>
