<?xml version="1.0" encoding="utf-8"?>
<!-- Generator: Adobe Illustrator 23.0.1, SVG Export Plug-In . SVG Version: 6.00 Build 0)  -->
<svg version="1.1" id="Capa_1" xmlns="http://www.w3.org/2000/svg" xmlns:xlink="http://www.w3.org/1999/xlink" x="0px" y="0px"
	 viewBox="0 0 293.5 293.33" style="enable-background:new 0 0 293.5 293.33;" xml:space="preserve">
<style type="text/css">
	.st0{fill:#5FA89E;}
	.st1{fill:#FFFFFF;}
	.st2{fill:#00E3BE;}
	.st3{fill:#FFFFFF;stroke:#E0E0E0;stroke-miterlimit:10;}
	.st4{fill:none;stroke:#E6E6E6;stroke-width:1.5;stroke-linecap:round;stroke-miterlimit:10;}
	.st5{fill:none;stroke:#2A4264;stroke-width:2;stroke-linecap:round;stroke-miterlimit:10;}
</style>
<g>
	<rect x="15.82" y="26.83" class="st0" width="253.37" height="241.95"/>
	<rect x="15.82" y="194.79" class="st1" width="253.37" height="74"/>
</g>
<circle class="st2" cx="31.35" cy="31.29" r="30.83"/>
<g>
	<path class="st1" d="M19.21,33.3c0-6.64,1.4-11.59,4.21-14.84s7.02-4.87,12.62-4.87c1.91,0,3.41,0.11,4.5,0.34v5.67
		c-1.36-0.31-2.71-0.46-4.04-0.46c-2.43,0-4.42,0.37-5.96,1.1c-1.54,0.73-2.69,1.82-3.46,3.26s-1.22,3.48-1.35,6.13h0.3
		c1.52-2.6,3.94-3.9,7.28-3.9c3,0,5.35,0.94,7.05,2.82s2.55,4.49,2.55,7.81c0,3.58-1.01,6.42-3.03,8.51
		C37.86,46.96,35.06,48,31.47,48c-2.48,0-4.64-0.57-6.49-1.72c-1.84-1.15-3.27-2.82-4.27-5.03C19.71,39.06,19.21,36.4,19.21,33.3z
		 M31.33,42.34c1.52,0,2.68-0.51,3.49-1.53s1.22-2.47,1.22-4.35c0-1.64-0.38-2.93-1.14-3.87c-0.76-0.94-1.9-1.41-3.43-1.41
		c-1.44,0-2.67,0.47-3.69,1.4c-1.02,0.93-1.53,2.02-1.53,3.26c0,1.82,0.48,3.36,1.44,4.62S29.86,42.34,31.33,42.34z"/>
</g>
<g>
	<path d="M43.84,216.04l3.43-6.42h1.62l-4.29,7.87v4.98h-1.51v-4.91l-4.28-7.94h1.63L43.84,216.04z"/>
	<path d="M56.8,222.47l-0.29-1.37h-0.07c-0.48,0.6-0.96,1.01-1.44,1.23s-1.07,0.32-1.79,0.32c-0.96,0-1.7-0.25-2.25-0.74
		s-0.81-1.19-0.81-2.1c0-1.95,1.56-2.96,4.67-3.06l1.63-0.05v-0.6c0-0.76-0.16-1.31-0.49-1.67s-0.85-0.54-1.56-0.54
		c-0.8,0-1.71,0.25-2.72,0.74l-0.45-1.12c0.47-0.26,0.99-0.46,1.56-0.61s1.13-0.22,1.7-0.22c1.15,0,2,0.25,2.55,0.76
		s0.83,1.33,0.83,2.45v6.57L56.8,222.47L56.8,222.47z M53.51,221.44c0.91,0,1.62-0.25,2.14-0.75s0.78-1.2,0.78-2.09v-0.87
		l-1.46,0.06c-1.16,0.04-2,0.22-2.51,0.54s-0.77,0.82-0.77,1.49c0,0.53,0.16,0.93,0.48,1.2S52.93,221.44,53.51,221.44z"/>
	<path d="M70.95,222.64c-0.63,0-1.2-0.12-1.72-0.35s-0.95-0.59-1.31-1.07h-0.11c0.07,0.56,0.11,1.1,0.11,1.6v3.96h-1.46v-13.96h1.19
		l0.2,1.32h0.07c0.38-0.53,0.81-0.91,1.31-1.14s1.07-0.35,1.71-0.35c1.28,0,2.26,0.44,2.96,1.31s1.04,2.1,1.04,3.67
		c0,1.58-0.35,2.81-1.06,3.69S72.2,222.64,70.95,222.64z M70.74,213.9c-0.98,0-1.7,0.27-2.14,0.82s-0.67,1.41-0.68,2.6v0.33
		c0,1.35,0.23,2.32,0.68,2.9s1.17,0.87,2.17,0.87c0.83,0,1.48-0.34,1.96-1.01s0.71-1.6,0.71-2.79c0-1.2-0.24-2.12-0.71-2.76
		S71.59,213.9,70.74,213.9z"/>
	<path d="M79.32,212.83v6.25c0,0.79,0.18,1.37,0.54,1.76s0.92,0.58,1.68,0.58c1.01,0,1.74-0.28,2.21-0.83s0.7-1.45,0.7-2.7v-5.06
		h1.46v9.63h-1.2l-0.21-1.29h-0.1c-0.3,0.47-0.71,0.84-1.24,1.09s-1.14,0.38-1.81,0.38c-1.17,0-2.05-0.28-2.63-0.83
		s-0.87-1.45-0.87-2.67v-6.3h1.47V212.83z"/>
	<path d="M93.51,222.64c-1.42,0-2.55-0.43-3.37-1.3s-1.23-2.07-1.23-3.61c0-1.55,0.38-2.79,1.15-3.7s1.79-1.37,3.08-1.37
		c1.21,0,2.16,0.4,2.87,1.19s1.05,1.84,1.05,3.14v0.92h-6.64c0.03,1.13,0.31,1.99,0.86,2.58s1.31,0.88,2.29,0.88
		c1.04,0,2.06-0.22,3.08-0.65v1.3c-0.52,0.22-1,0.38-1.46,0.48S94.16,222.64,93.51,222.64z M93.12,213.88
		c-0.77,0-1.39,0.25-1.85,0.76s-0.73,1.2-0.81,2.09h5.04c0-0.92-0.21-1.62-0.62-2.11S93.88,213.88,93.12,213.88z"/>
	<path d="M106.55,221.17h-0.08c-0.67,0.98-1.68,1.47-3.02,1.47c-1.26,0-2.24-0.43-2.94-1.29s-1.05-2.09-1.05-3.67
		s0.35-2.82,1.05-3.7s1.68-1.32,2.94-1.32c1.31,0,2.31,0.47,3.01,1.42h0.11l-0.06-0.69l-0.04-0.68v-3.92h1.46v13.68h-1.19
		L106.55,221.17z M103.63,221.42c1,0,1.72-0.27,2.17-0.81s0.67-1.42,0.67-2.62v-0.31c0-1.37-0.23-2.34-0.68-2.92
		s-1.18-0.87-2.18-0.87c-0.86,0-1.51,0.33-1.96,1s-0.68,1.6-0.68,2.82c0,1.23,0.23,2.16,0.68,2.79S102.76,221.42,103.63,221.42z"/>
	<path d="M115.54,222.64c-1.42,0-2.55-0.43-3.37-1.3s-1.23-2.07-1.23-3.61c0-1.55,0.38-2.79,1.15-3.7s1.79-1.37,3.08-1.37
		c1.21,0,2.16,0.4,2.87,1.19s1.05,1.84,1.05,3.14v0.92h-6.64c0.03,1.13,0.31,1.99,0.86,2.58s1.31,0.88,2.29,0.88
		c1.04,0,2.06-0.22,3.08-0.65v1.3c-0.52,0.22-1,0.38-1.46,0.48S116.19,222.64,115.54,222.64z M115.15,213.88
		c-0.77,0-1.39,0.25-1.85,0.76s-0.73,1.2-0.81,2.09h5.04c0-0.92-0.21-1.62-0.62-2.11S115.91,213.88,115.15,213.88z"/>
	<path d="M128.23,219.84c0,0.9-0.33,1.59-1,2.07s-1.61,0.73-2.81,0.73c-1.28,0-2.27-0.2-2.99-0.61v-1.35
		c0.46,0.23,0.96,0.42,1.49,0.55s1.04,0.2,1.53,0.2c0.76,0,1.35-0.12,1.76-0.36s0.62-0.61,0.62-1.11c0-0.38-0.16-0.7-0.49-0.96
		s-0.96-0.58-1.9-0.94c-0.9-0.33-1.53-0.63-1.91-0.87s-0.66-0.53-0.84-0.85s-0.28-0.69-0.28-1.13c0-0.79,0.32-1.4,0.96-1.86
		s1.51-0.68,2.63-0.68c1.04,0,2.05,0.21,3.04,0.63l-0.52,1.19c-0.97-0.4-1.84-0.6-2.63-0.6c-0.69,0-1.21,0.11-1.56,0.33
		s-0.53,0.52-0.53,0.9c0,0.26,0.07,0.48,0.2,0.66s0.34,0.35,0.64,0.52s0.86,0.4,1.69,0.71c1.14,0.42,1.91,0.83,2.32,1.26
		C128.03,218.67,128.23,219.2,128.23,219.84z"/>
	<path d="M140.03,222.64c-1.39,0-2.47-0.43-3.24-1.29s-1.15-2.07-1.15-3.64c0-1.61,0.39-2.86,1.16-3.74s1.88-1.32,3.32-1.32
		c0.46,0,0.93,0.05,1.39,0.15s0.83,0.22,1.09,0.35l-0.45,1.24c-0.32-0.13-0.67-0.24-1.05-0.32s-0.72-0.13-1.01-0.13
		c-1.96,0-2.94,1.25-2.94,3.74c0,1.18,0.24,2.09,0.72,2.72s1.19,0.95,2.12,0.95c0.8,0,1.63-0.17,2.47-0.52v1.29
		C141.82,222.48,141.01,222.64,140.03,222.64z"/>
	<path d="M153.52,217.64c0,1.57-0.4,2.8-1.19,3.68s-1.88,1.32-3.28,1.32c-0.86,0-1.63-0.2-2.29-0.61s-1.18-0.98-1.55-1.74
		s-0.54-1.64-0.54-2.65c0-1.57,0.39-2.79,1.18-3.67s1.88-1.31,3.27-1.31c1.35,0,2.42,0.45,3.21,1.34S153.52,216.11,153.52,217.64z
		 M146.18,217.64c0,1.23,0.25,2.17,0.74,2.81s1.22,0.97,2.17,0.97s1.68-0.32,2.18-0.96s0.74-1.58,0.74-2.82
		c0-1.22-0.25-2.15-0.74-2.79s-1.23-0.95-2.19-0.95s-1.68,0.31-2.16,0.94S146.18,216.4,146.18,217.64z"/>
	<path d="M168.8,222.47v-6.27c0-0.77-0.16-1.34-0.49-1.73s-0.84-0.58-1.53-0.58c-0.91,0-1.58,0.26-2.01,0.78s-0.65,1.32-0.65,2.41
		v5.38h-1.46v-6.27c0-0.77-0.16-1.34-0.49-1.73s-0.84-0.58-1.54-0.58c-0.91,0-1.58,0.27-2.01,0.82s-0.64,1.45-0.64,2.69v5.05h-1.46
		v-9.63h1.19l0.24,1.32h0.07c0.28-0.47,0.66-0.83,1.16-1.1s1.06-0.4,1.68-0.4c1.51,0,2.49,0.54,2.95,1.63h0.07
		c0.29-0.5,0.7-0.9,1.25-1.2s1.17-0.44,1.86-0.44c1.09,0,1.91,0.28,2.45,0.84s0.81,1.45,0.81,2.69v6.28h-1.45V222.47z"/>
	<path d="M178.2,222.64c-0.63,0-1.2-0.12-1.72-0.35s-0.95-0.59-1.31-1.07h-0.11c0.07,0.56,0.11,1.1,0.11,1.6v3.96h-1.46v-13.96h1.19
		l0.2,1.32h0.07c0.38-0.53,0.81-0.91,1.31-1.14s1.07-0.35,1.71-0.35c1.28,0,2.26,0.44,2.96,1.31s1.04,2.1,1.04,3.67
		c0,1.58-0.35,2.81-1.06,3.69S179.45,222.64,178.2,222.64z M177.99,213.9c-0.98,0-1.7,0.27-2.14,0.82s-0.67,1.41-0.68,2.6v0.33
		c0,1.35,0.23,2.32,0.68,2.9s1.17,0.87,2.17,0.87c0.83,0,1.48-0.34,1.96-1.01s0.71-1.6,0.71-2.79c0-1.2-0.24-2.12-0.71-2.76
		S178.84,213.9,177.99,213.9z"/>
	<path d="M191.12,222.47l-0.29-1.37h-0.07c-0.48,0.6-0.96,1.01-1.44,1.23s-1.07,0.32-1.79,0.32c-0.96,0-1.7-0.25-2.25-0.74
		s-0.81-1.19-0.81-2.1c0-1.95,1.56-2.96,4.67-3.06l1.63-0.05v-0.6c0-0.76-0.16-1.31-0.49-1.67s-0.85-0.54-1.56-0.54
		c-0.8,0-1.71,0.25-2.72,0.74l-0.45-1.12c0.47-0.26,0.99-0.46,1.56-0.61s1.13-0.22,1.7-0.22c1.15,0,2,0.25,2.55,0.76
		s0.83,1.33,0.83,2.45v6.57L191.12,222.47L191.12,222.47z M187.83,221.44c0.91,0,1.62-0.25,2.14-0.75s0.78-1.2,0.78-2.09v-0.87
		l-1.46,0.06c-1.16,0.04-2,0.22-2.51,0.54s-0.77,0.82-0.77,1.49c0,0.53,0.16,0.93,0.48,1.2S187.25,221.44,187.83,221.44z"/>
	<path d="M200.05,212.66c0.43,0,0.81,0.04,1.15,0.11l-0.2,1.35c-0.4-0.09-0.75-0.13-1.05-0.13c-0.78,0-1.45,0.32-2,0.95
		s-0.83,1.42-0.83,2.36v5.17h-1.46v-9.63h1.2l0.17,1.78h0.07c0.36-0.63,0.79-1.11,1.29-1.45S199.45,212.66,200.05,212.66z"/>
	<path d="M206.57,221.44c0.26,0,0.51-0.02,0.75-0.06s0.43-0.08,0.57-0.12v1.12c-0.16,0.08-0.39,0.14-0.7,0.19s-0.58,0.07-0.83,0.07
		c-1.86,0-2.79-0.98-2.79-2.94v-5.73h-1.38v-0.7l1.38-0.61l0.62-2.06h0.84v2.23h2.79v1.13h-2.79v5.67c0,0.58,0.14,1.03,0.41,1.34
		S206.09,221.44,206.57,221.44z"/>
	<path d="M210.14,210.22c0-0.33,0.08-0.58,0.25-0.73s0.37-0.23,0.62-0.23c0.23,0,0.44,0.08,0.61,0.24s0.25,0.4,0.25,0.73
		s-0.08,0.57-0.25,0.73s-0.37,0.24-0.61,0.24c-0.25,0-0.45-0.08-0.62-0.24S210.14,210.55,210.14,210.22z M211.72,222.47h-1.46v-9.63
		h1.46V222.47z"/>
	<path d="M219.66,212.66c0.43,0,0.81,0.04,1.15,0.11l-0.2,1.35c-0.4-0.09-0.75-0.13-1.05-0.13c-0.78,0-1.45,0.32-2,0.95
		s-0.83,1.42-0.83,2.36v5.17h-1.46v-9.63h1.2l0.17,1.78h0.07c0.36-0.63,0.79-1.11,1.29-1.45S219.05,212.66,219.66,212.66z"/>
	<path d="M229.65,222.47h-1.46v-13.68h1.46V222.47z"/>
	<path d="M239.11,222.47l-0.29-1.37h-0.07c-0.48,0.6-0.96,1.01-1.44,1.23s-1.07,0.32-1.79,0.32c-0.96,0-1.7-0.25-2.25-0.74
		s-0.81-1.19-0.81-2.1c0-1.95,1.56-2.96,4.67-3.06l1.63-0.05v-0.6c0-0.76-0.16-1.31-0.49-1.67s-0.85-0.54-1.56-0.54
		c-0.8,0-1.71,0.25-2.72,0.74l-0.45-1.12c0.47-0.26,0.99-0.46,1.56-0.61s1.13-0.22,1.7-0.22c1.15,0,2,0.25,2.55,0.76
		s0.83,1.33,0.83,2.45v6.57L239.11,222.47L239.11,222.47z M235.82,221.44c0.91,0,1.62-0.25,2.14-0.75s0.78-1.2,0.78-2.09v-0.87
		l-1.46,0.06c-1.16,0.04-2,0.22-2.51,0.54s-0.77,0.82-0.77,1.49c0,0.53,0.16,0.93,0.48,1.2S235.24,221.44,235.82,221.44z"/>
	<path d="M99.34,232.22c0-0.33,0.08-0.58,0.25-0.73s0.37-0.23,0.62-0.23c0.23,0,0.44,0.08,0.61,0.24s0.25,0.4,0.25,0.73
		s-0.08,0.57-0.25,0.73s-0.37,0.24-0.61,0.24c-0.25,0-0.45-0.08-0.62-0.24S99.34,232.55,99.34,232.22z M100.92,244.47h-1.46v-9.63
		h1.46V244.47z"/>
	<path d="M111.05,244.47v-6.23c0-0.79-0.18-1.37-0.54-1.76s-0.92-0.58-1.68-0.58c-1.01,0-1.75,0.27-2.21,0.82s-0.7,1.44-0.7,2.7
		v5.05h-1.46v-9.63h1.19l0.24,1.32h0.07c0.3-0.47,0.72-0.84,1.26-1.1s1.14-0.39,1.8-0.39c1.16,0,2.03,0.28,2.62,0.84
		s0.88,1.45,0.88,2.69v6.28h-1.47V244.47z"/>
	<path d="M118.07,244.47l-3.66-9.63h1.56l2.07,5.71c0.47,1.34,0.74,2.2,0.83,2.6h0.07c0.06-0.31,0.27-0.95,0.61-1.93
		s1.11-3.1,2.31-6.39h1.56l-3.66,9.63L118.07,244.47L118.07,244.47z"/>
	<path d="M125.3,232.22c0-0.33,0.08-0.58,0.25-0.73s0.37-0.23,0.62-0.23c0.23,0,0.44,0.08,0.61,0.24s0.25,0.4,0.25,0.73
		s-0.08,0.57-0.25,0.73s-0.37,0.24-0.61,0.24c-0.25,0-0.45-0.08-0.62-0.24S125.3,232.55,125.3,232.22z M126.89,244.47h-1.46v-9.63
		h1.46V244.47z"/>
	<path d="M133.54,243.44c0.26,0,0.51-0.02,0.75-0.06s0.43-0.08,0.57-0.12v1.12c-0.16,0.08-0.39,0.14-0.7,0.19s-0.58,0.07-0.83,0.07
		c-1.86,0-2.79-0.98-2.79-2.94v-5.73h-1.38v-0.7l1.38-0.61l0.62-2.06H132v2.23h2.79v1.13H132v5.67c0,0.58,0.14,1.03,0.41,1.34
		S133.06,243.44,133.54,243.44z"/>
	<path d="M143.16,244.47l-0.29-1.37h-0.07c-0.48,0.6-0.96,1.01-1.44,1.23s-1.07,0.32-1.79,0.32c-0.96,0-1.7-0.25-2.25-0.74
		s-0.81-1.19-0.81-2.1c0-1.95,1.56-2.96,4.67-3.06l1.63-0.05v-0.6c0-0.76-0.16-1.31-0.49-1.67s-0.85-0.54-1.56-0.54
		c-0.8,0-1.71,0.25-2.72,0.74l-0.45-1.12c0.47-0.26,0.99-0.46,1.56-0.61s1.13-0.22,1.7-0.22c1.15,0,2,0.25,2.55,0.76
		s0.83,1.33,0.83,2.45v6.57L143.16,244.47L143.16,244.47z M139.86,243.44c0.91,0,1.62-0.25,2.14-0.75s0.78-1.2,0.78-2.09v-0.87
		l-1.46,0.06c-1.16,0.04-2,0.22-2.51,0.54s-0.77,0.82-0.77,1.49c0,0.53,0.16,0.93,0.48,1.2S139.29,243.44,139.86,243.44z"/>
	<path d="M151.55,244.64c-1.39,0-2.47-0.43-3.24-1.29s-1.15-2.07-1.15-3.64c0-1.61,0.39-2.86,1.16-3.74s1.88-1.32,3.32-1.32
		c0.46,0,0.93,0.05,1.39,0.15s0.83,0.22,1.09,0.35l-0.45,1.24c-0.32-0.13-0.67-0.24-1.05-0.32s-0.72-0.13-1.01-0.13
		c-1.96,0-2.94,1.25-2.94,3.74c0,1.18,0.24,2.09,0.72,2.72s1.19,0.95,2.12,0.95c0.8,0,1.63-0.17,2.47-0.52v1.29
		C153.34,244.48,152.52,244.64,151.55,244.64z"/>
	<path d="M156.59,232.22c0-0.33,0.08-0.58,0.25-0.73s0.37-0.23,0.62-0.23c0.23,0,0.44,0.08,0.61,0.24s0.25,0.4,0.25,0.73
		s-0.08,0.57-0.25,0.73s-0.37,0.24-0.61,0.24c-0.25,0-0.45-0.08-0.62-0.24S156.59,232.55,156.59,232.22z M158.17,244.47h-1.46v-9.63
		h1.46V244.47z"/>
	<path d="M170.03,239.64c0,1.57-0.4,2.8-1.19,3.68s-1.88,1.32-3.28,1.32c-0.86,0-1.63-0.2-2.29-0.61s-1.18-0.98-1.55-1.74
		s-0.54-1.64-0.54-2.65c0-1.57,0.39-2.79,1.18-3.67s1.88-1.31,3.27-1.31c1.35,0,2.42,0.45,3.21,1.34S170.03,238.11,170.03,239.64z
		 M162.69,239.64c0,1.23,0.25,2.17,0.74,2.81s1.22,0.97,2.17,0.97s1.68-0.32,2.18-0.96s0.74-1.58,0.74-2.82
		c0-1.22-0.25-2.15-0.74-2.79s-1.23-0.95-2.19-0.95s-1.68,0.31-2.16,0.94S162.69,238.4,162.69,239.64z M164.38,233.34
		c0.28-0.36,0.58-0.8,0.91-1.32s0.58-0.96,0.77-1.34h1.78v0.18c-0.26,0.38-0.64,0.85-1.15,1.41s-0.95,0.99-1.33,1.29h-0.98
		L164.38,233.34L164.38,233.34z"/>
	<path d="M179.63,244.47v-6.23c0-0.79-0.18-1.37-0.54-1.76s-0.92-0.58-1.68-0.58c-1.01,0-1.75,0.27-2.21,0.82s-0.7,1.44-0.7,2.7
		v5.05h-1.46v-9.63h1.19l0.24,1.32h0.07c0.3-0.47,0.72-0.84,1.26-1.1s1.14-0.39,1.8-0.39c1.16,0,2.03,0.28,2.62,0.84
		s0.88,1.45,0.88,2.69v6.28h-1.47V244.47z"/>
</g>
<g>
	<g>
		<polygon class="st3" points="189.55,54.13 189.55,54.13 200.8,109.8 115.36,127.07 104.11,71.4 		"/>
		<line class="st4" x1="104.11" y1="71.4" x2="151.88" y2="97.83"/>
		<line class="st4" x1="189.55" y1="54.13" x2="151.88" y2="97.83"/>
		<line class="st4" x1="115.36" y1="127.07" x2="142.46" y2="92.62"/>
		<line class="st4" x1="200.8" y1="109.8" x2="159.31" y2="89.21"/>
	</g>
	<line class="st5" x1="68.79" y1="104.86" x2="96.67" y2="98.36"/>
	<line class="st5" x1="64.21" y1="113.09" x2="92.09" y2="106.59"/>
	<line class="st5" x1="72.74" y1="117.34" x2="100.62" y2="110.84"/>
</g>
<g id="mTwa6K.tif">
	<g>
		<g>
			<path class="st1" d="M184.09,181.71c-2.31-0.03-4.62,0.01-6.92-0.11c-2.55-0.13-4.78-1.06-6.48-3.06c-0.85-1-1.4-2.17-1.73-3.44
				c-0.31-1.19-0.4-2.4-0.46-3.61c-0.18-3.76-0.18-7.52,0-11.27c0.05-1.09,0.15-2.2,0.38-3.27c0.54-2.51,1.97-4.39,4.31-5.51
				c1.26-0.6,2.6-0.89,3.98-1c3.72-0.31,7.44-0.17,11.16-0.15c1.21,0.01,2.43,0.11,3.64,0.27c2.19,0.3,4.14,1.13,5.62,2.86
				c0.89,1.04,1.45,2.25,1.73,3.58c0.43,2.11,0.45,4.26,0.46,6.41c0.02,2.53-0.01,5.07-0.08,7.6c-0.03,1.16-0.11,2.33-0.31,3.47
				c-0.6,3.32-2.49,5.57-5.72,6.64c-1.38,0.46-2.8,0.54-4.24,0.54c-1.79,0-3.57,0-5.36,0C184.09,181.67,184.09,181.69,184.09,181.71
				z M184.11,153.72L184.11,153.72c-1.9,0-3.81-0.01-5.71,0.01c-1.09,0.01-2.18,0.12-3.22,0.47c-1.43,0.48-2.46,1.37-2.98,2.83
				c-0.33,0.92-0.4,1.87-0.45,2.82c-0.19,3.37-0.17,6.74-0.08,10.11c0.03,1.38,0.05,2.76,0.36,4.12c0.29,1.3,0.98,2.33,2.16,2.99
				c1.11,0.62,2.34,0.84,3.59,0.88c4.15,0.14,8.29,0.13,12.44,0.01c0.91-0.03,1.8-0.14,2.66-0.41c1.42-0.43,2.48-1.27,3.05-2.68
				c0.39-0.97,0.46-2,0.52-3.02c0.19-3.29,0.16-6.58,0.09-9.87c-0.03-1.44-0.05-2.89-0.36-4.31c-0.38-1.75-1.45-2.9-3.14-3.46
				c-1.11-0.37-2.26-0.47-3.41-0.48C187.79,153.71,185.95,153.72,184.11,153.72z"/>
			<path class="st1" d="M191.72,166.28c0,3.32-2.06,6.28-5.14,7.38c-3.54,1.26-7.51-0.3-9.29-3.66c-2.15-4.05-0.44-9.03,3.75-10.9
				c3.53-1.57,7.79-0.11,9.69,3.33C191.38,163.64,191.72,164.93,191.72,166.28z M188.48,166.27c-0.01-2.5-2-4.51-4.46-4.5
				c-2.44,0.01-4.43,2.05-4.42,4.53c0.01,2.5,2.01,4.52,4.46,4.52C186.5,170.81,188.49,168.76,188.48,166.27z"/>
			<path class="st1" d="M190.62,158.56c0-1,0.79-1.79,1.78-1.79c0.97,0,1.77,0.81,1.77,1.8s-0.79,1.79-1.77,1.8
				C191.4,160.37,190.62,159.57,190.62,158.56z"/>
		</g>
	</g>
</g>
<path class="st1" d="M112.53,150.96c-0.06-0.01-0.11-0.04-0.17-0.06c-8.81,0-17.62,0-26.43,0c-0.15,0.05-0.3,0.09-0.45,0.14
	c-0.72,0.28-1.16,0.8-1.34,1.55c-0.01,0.05-0.04,0.1-0.05,0.15c0,8.81,0,17.62,0,26.43c0.05,0.16,0.09,0.33,0.16,0.49
	c0.28,0.69,0.79,1.11,1.51,1.29c0.06,0.01,0.11,0.04,0.17,0.06c4.49,0,8.98,0,13.46,0c0-0.18,0-0.36,0-0.54c0-4.08,0-8.17,0-12.25
	c0-0.06-0.01-0.12-0.01-0.2c-0.17,0-0.33,0-0.49,0c-0.65,0-1.3-0.01-1.94,0c-0.19,0-0.25-0.06-0.25-0.25c0.01-1.34,0.01-2.68,0-4.01
	c0-0.21,0.08-0.26,0.27-0.26c0.74,0.01,1.48,0,2.22,0.01c0.16,0,0.21-0.03,0.21-0.2c0-1-0.03-2.01,0.02-3.01
	c0.05-1.07,0.23-2.11,0.78-3.06c0.57-0.96,1.42-1.56,2.47-1.9c0.9-0.29,1.83-0.35,2.76-0.36c1.05-0.01,2.1,0,3.16,0
	c0.28,0,0.29,0.02,0.29,0.3c0,1.3,0,2.61,0,3.91c0,0.32,0,0.32-0.33,0.32c-0.84,0.01-1.67,0-2.51,0.03
	c-0.41,0.02-0.84,0.12-1.03,0.55c-0.1,0.23-0.15,0.49-0.16,0.75c-0.03,0.85-0.03,1.7-0.04,2.55c0,0.15,0.08,0.13,0.18,0.13
	c1.21,0,2.41,0,3.62,0c0.03,0,0.07,0,0.1,0c0.15,0,0.19,0.07,0.17,0.21c-0.13,1.15-0.26,2.29-0.39,3.44
	c-0.02,0.21-0.05,0.43-0.06,0.64c-0.01,0.17-0.08,0.23-0.26,0.23c-1.05-0.01-2.09,0-3.14,0c-0.07,0-0.14,0-0.22,0
	c0,0.12,0,0.21,0,0.31c0,4.15,0,8.29,0,12.44c0,0.08-0.01,0.17-0.02,0.25c2.52,0,5.05,0,7.57,0c0.08-0.03,0.15-0.05,0.23-0.08
	c0.84-0.24,1.36-0.78,1.56-1.63c0.01-0.04,0.03-0.09,0.05-0.13c0-8.81,0-17.62,0-26.43c-0.05-0.16-0.09-0.33-0.16-0.49
	C113.77,151.56,113.25,151.14,112.53,150.96z"/>
<g id="uLX0wq_1_">
	<g>
		<g>
			<path class="st1" d="M141.55,149.64c0.82,0,1.64,0,2.47,0c0.14,0.04,0.27,0.09,0.41,0.11c6.54,0.68,11.89,5.08,13.74,11.38
				c0.3,1.03,0.44,2.11,0.65,3.17c0,0.82,0,1.64,0,2.47c-0.06,0.38-0.12,0.75-0.18,1.13c-1.67,10.24-12.17,16.25-21.79,12.35
				c-1.49-0.6-2.68-0.59-4.09-0.08c-2.13,0.77-4.3,1.42-6.45,2.12c0.04-0.26,0.06-0.53,0.14-0.77c0.79-2.38,1.59-4.75,2.41-7.12
				c0.16-0.45,0.13-0.79-0.1-1.21c-4.89-8.93-0.36-19.96,9.4-22.85C139.27,150.02,140.42,149.88,141.55,149.64z M130.18,178.37
				c1.64-0.52,3.12-1.01,4.62-1.44c0.32-0.09,0.77-0.05,1.06,0.11c3.02,1.72,6.22,2.28,9.64,1.62c6.81-1.31,11.67-8.07,10.67-14.88
				c-1.12-7.62-8.2-12.74-15.76-11.4c-9.52,1.69-14.17,12.45-8.85,20.52c0.24,0.37,0.27,0.67,0.13,1.07
				C131.18,175.38,130.71,176.8,130.18,178.37z"/>
			<path class="st1" d="M134.84,162.01c0.14-1.06,0.5-1.92,1.06-2.75c0.63-0.92,1.51-1.07,2.49-0.89c0.22,0.04,0.48,0.32,0.58,0.55
				c0.45,0.96,0.92,1.93,1.21,2.94c0.11,0.39-0.11,0.99-0.37,1.35c-0.91,1.26-0.93,1.23-0.01,2.49c1.17,1.6,2.68,2.76,4.5,3.55
				c0.54,0.23,0.91,0.17,1.25-0.3c0.28-0.39,0.63-0.73,0.91-1.13c0.31-0.45,0.68-0.48,1.13-0.27c0.96,0.46,1.94,0.88,2.86,1.39
				c0.24,0.13,0.46,0.56,0.45,0.85c-0.06,1.55-1.03,2.71-2.62,3.03c-0.73,0.15-1.55,0.17-2.28,0c-4.75-1.09-8-4.11-10.3-8.26
				C135.26,163.8,135.12,162.87,134.84,162.01z"/>
		</g>
	</g>
</g>
</svg>
