<?xml version="1.0" encoding="utf-8"?>
<!-- Generator: Adobe Illustrator 23.0.1, SVG Export Plug-In . SVG Version: 6.00 Build 0)  -->
<svg version="1.1" id="Capa_1" xmlns="http://www.w3.org/2000/svg" xmlns:xlink="http://www.w3.org/1999/xlink" x="0px" y="0px"
	 viewBox="0 0 293.5 293.3" style="enable-background:new 0 0 293.5 293.3;" xml:space="preserve">
<style type="text/css">
	.st0{fill:#697FB5;}
	.st1{fill:#FFFFFF;}
	.st2{fill:#00E3BE;}
	.st3{enable-background:new    ;}
	.st4{fill:#0F3E61;}
	.st5{fill:none;stroke:#E8F3F9;stroke-width:3.2511;stroke-miterlimit:10;}
	.st6{fill:#9FC9CE;}
	.st7{fill:#D4D1D9;}
</style>
<g>
	<rect x="15.6" y="26.4" class="st0" width="253.4" height="242"/>
	<rect x="15.6" y="194.3" class="st1" width="253.4" height="74"/>
</g>
<circle class="st2" cx="30.8" cy="30.8" r="30.8"/>
<g class="st3">
	<path class="st1" d="M31.1,25.6c3.2,0,5.8,0.9,7.8,2.7c1.9,1.8,2.9,4.3,2.9,7.5c0,3.8-1.2,6.6-3.5,8.7c-2.3,2-5.6,3-9.9,3
		c-3.7,0-6.8-0.6-9-1.8v-6.1c1.2,0.6,2.6,1.2,4.2,1.6c1.6,0.4,3.1,0.6,4.6,0.6c4.3,0,6.5-1.8,6.5-5.3c0-3.4-2.2-5.1-6.7-5.1
		c-0.8,0-1.7,0.1-2.7,0.2c-1,0.2-1.8,0.3-2.4,0.5L20,30.6l1.3-17.1h18.2v6h-12l-0.6,6.6l0.8-0.2C28.6,25.8,29.8,25.6,31.1,25.6z"/>
</g>
<g>
	<path d="M60.4,222v-12.9h1.5V222H60.4z"/>
	<path d="M71.8,222v-6.2c0-0.8-0.2-1.4-0.5-1.8s-0.9-0.6-1.7-0.6c-1,0-1.8,0.3-2.2,0.8s-0.7,1.4-0.7,2.7v5.1h-1.5v-9.6h1.2l0.2,1.3
		h0.1c0.3-0.5,0.7-0.8,1.3-1.1s1.1-0.4,1.8-0.4c1.2,0,2,0.3,2.6,0.8s0.9,1.4,0.9,2.7v6.3L71.8,222C71.8,222,71.8,222,71.8,222z"/>
	<path d="M84.2,212.4v0.9l-1.8,0.2c0.2,0.2,0.3,0.5,0.4,0.8s0.2,0.7,0.2,1.1c0,0.9-0.3,1.7-1,2.3s-1.5,0.8-2.7,0.8
		c-0.3,0-0.6,0-0.8-0.1c-0.6,0.3-0.9,0.7-0.9,1.2c0,0.3,0.1,0.5,0.3,0.6s0.6,0.2,1.1,0.2h1.7c1,0,1.8,0.2,2.4,0.7s0.8,1.1,0.8,1.9
		c0,1.1-0.4,1.9-1.3,2.4s-2.1,0.8-3.7,0.8c-1.3,0-2.2-0.2-2.9-0.7s-1-1.1-1-2c0-0.6,0.2-1.1,0.6-1.5s0.9-0.7,1.6-0.9
		c-0.2-0.1-0.4-0.3-0.6-0.5s-0.2-0.5-0.2-0.8c0-0.4,0.1-0.7,0.3-0.9s0.5-0.5,0.9-0.8c-0.5-0.2-0.9-0.6-1.2-1.1s-0.5-1.1-0.5-1.7
		c0-1.1,0.3-1.9,0.9-2.4s1.5-0.9,2.7-0.9c0.5,0,1,0.1,1.4,0.2L84.2,212.4C84.1,212.4,84.1,212.4,84.2,212.4z M76.5,223.6
		c0,0.5,0.2,0.9,0.7,1.2s1.1,0.4,1.9,0.4c1.2,0,2.1-0.2,2.7-0.6s0.9-0.9,0.9-1.5c0-0.5-0.2-0.9-0.5-1.1s-0.9-0.3-1.8-0.3h-1.8
		c-0.7,0-1.2,0.2-1.6,0.5S76.5,223,76.5,223.6z M77.3,215.5c0,0.7,0.2,1.2,0.6,1.5s0.9,0.5,1.6,0.5c1.4,0,2.1-0.7,2.1-2.1
		c0-1.4-0.7-2.2-2.2-2.2c-0.7,0-1.2,0.2-1.6,0.6S77.3,214.7,77.3,215.5z"/>
	<path d="M90.5,212.2c0.4,0,0.8,0,1.2,0.1l-0.2,1.4c-0.4-0.1-0.8-0.1-1.1-0.1c-0.8,0-1.4,0.3-2,0.9s-0.8,1.4-0.8,2.4v5.2h-1.5v-9.6
		h1.2l0.2,1.8h0.1c0.4-0.6,0.8-1.1,1.3-1.4S89.9,212.2,90.5,212.2z"/>
	<path d="M97.5,222.2c-1.4,0-2.6-0.4-3.4-1.3s-1.2-2.1-1.2-3.6c0-1.6,0.4-2.8,1.2-3.7s1.8-1.4,3.1-1.4c1.2,0,2.2,0.4,2.9,1.2
		s1.1,1.8,1.1,3.1v0.9h-6.6c0,1.1,0.3,2,0.9,2.6s1.3,0.9,2.3,0.9c1,0,2.1-0.2,3.1-0.6v1.3c-0.5,0.2-1,0.4-1.5,0.5
		S98.2,222.2,97.5,222.2z M97.2,213.4c-0.8,0-1.4,0.2-1.8,0.8s-0.7,1.2-0.8,2.1h5c0-0.9-0.2-1.6-0.6-2.1S97.9,213.4,97.2,213.4z"/>
	<path d="M109.8,219.4c0,0.9-0.3,1.6-1,2.1s-1.6,0.7-2.8,0.7c-1.3,0-2.3-0.2-3-0.6v-1.4c0.5,0.2,1,0.4,1.5,0.6s1,0.2,1.5,0.2
		c0.8,0,1.3-0.1,1.8-0.4s0.6-0.6,0.6-1.1c0-0.4-0.2-0.7-0.5-1s-1-0.6-1.9-0.9c-0.9-0.3-1.5-0.6-1.9-0.9s-0.7-0.5-0.8-0.9
		s-0.3-0.7-0.3-1.1c0-0.8,0.3-1.4,1-1.9s1.5-0.7,2.6-0.7c1,0,2.1,0.2,3,0.6l-0.5,1.2c-1-0.4-1.8-0.6-2.6-0.6c-0.7,0-1.2,0.1-1.6,0.3
		s-0.5,0.5-0.5,0.9c0,0.3,0.1,0.5,0.2,0.7s0.3,0.4,0.6,0.5s0.9,0.4,1.7,0.7c1.1,0.4,1.9,0.8,2.3,1.3S109.8,218.7,109.8,219.4z"/>
	<path d="M118.1,222l-0.3-1.4h-0.1c-0.5,0.6-1,1-1.4,1.2s-1.1,0.3-1.8,0.3c-1,0-1.7-0.2-2.2-0.7s-0.8-1.2-0.8-2.1
		c0-1.9,1.6-3,4.7-3.1l1.6-0.1v-0.6c0-0.8-0.2-1.3-0.5-1.7s-0.8-0.5-1.6-0.5c-0.8,0-1.7,0.2-2.7,0.7l-0.4-1.1c0.5-0.3,1-0.5,1.6-0.6
		s1.1-0.2,1.7-0.2c1.2,0,2,0.2,2.6,0.8s0.8,1.3,0.8,2.4v6.6L118.1,222L118.1,222z M114.8,221c0.9,0,1.6-0.2,2.1-0.8s0.8-1.2,0.8-2.1
		v-0.9l-1.5,0.1c-1.2,0-2,0.2-2.5,0.5s-0.8,0.8-0.8,1.5c0,0.5,0.2,0.9,0.5,1.2S114.2,221,114.8,221z"/>
	<path d="M126.6,212.2c0.4,0,0.8,0,1.2,0.1l-0.2,1.4c-0.4-0.1-0.8-0.1-1.1-0.1c-0.8,0-1.4,0.3-2,0.9s-0.8,1.4-0.8,2.4v5.2h-1.5v-9.6
		h1.2l0.2,1.8h0.1c0.4-0.6,0.8-1.1,1.3-1.4S126,212.2,126.6,212.2z"/>
	<path d="M138,222.2c-1.4,0-2.5-0.4-3.2-1.3s-1.1-2.1-1.1-3.6c0-1.6,0.4-2.9,1.2-3.7s1.9-1.3,3.3-1.3c0.5,0,0.9,0.1,1.4,0.1
		s0.8,0.2,1.1,0.4l-0.4,1.2c-0.3-0.1-0.7-0.2-1.1-0.3s-0.7-0.1-1-0.1c-2,0-2.9,1.2-2.9,3.7c0,1.2,0.2,2.1,0.7,2.7s1.2,0.9,2.1,0.9
		c0.8,0,1.6-0.2,2.5-0.5v1.3C139.8,222,139,222.2,138,222.2z"/>
	<path d="M151.1,217.2c0,1.6-0.4,2.8-1.2,3.7s-1.9,1.3-3.3,1.3c-0.9,0-1.6-0.2-2.3-0.6s-1.2-1-1.6-1.7s-0.5-1.6-0.5-2.6
		c0-1.6,0.4-2.8,1.2-3.7s1.9-1.3,3.3-1.3c1.4,0,2.4,0.4,3.2,1.3S151.1,215.6,151.1,217.2z M143.7,217.2c0,1.2,0.2,2.2,0.7,2.8
		s1.2,1,2.2,1s1.7-0.3,2.2-1s0.7-1.6,0.7-2.8c0-1.2-0.2-2.1-0.7-2.8s-1.2-0.9-2.2-0.9s-1.7,0.3-2.2,0.9S143.7,215.9,143.7,217.2z"/>
	<path d="M160.2,222v-6.2c0-0.8-0.2-1.4-0.5-1.8s-0.9-0.6-1.7-0.6c-1,0-1.8,0.3-2.2,0.8s-0.7,1.4-0.7,2.7v5.1h-1.5v-9.6h1.2l0.2,1.3
		h0.1c0.3-0.5,0.7-0.8,1.3-1.1s1.1-0.4,1.8-0.4c1.2,0,2,0.3,2.6,0.8s0.9,1.4,0.9,2.7v6.3L160.2,222L160.2,222L160.2,222z"/>
	<path d="M167.8,221c0.3,0,0.5,0,0.8-0.1s0.4-0.1,0.6-0.1v1.1c-0.2,0.1-0.4,0.1-0.7,0.2s-0.6,0.1-0.8,0.1c-1.9,0-2.8-1-2.8-2.9v-5.7
		h-1.4v-0.7l1.4-0.6l0.6-2.1h0.8v2.2h2.8v1.1h-2.8v5.7c0,0.6,0.1,1,0.4,1.3S167.3,221,167.8,221z"/>
	<path d="M175.4,212.2c0.4,0,0.8,0,1.1,0.1l-0.2,1.4c-0.4-0.1-0.8-0.1-1.1-0.1c-0.8,0-1.4,0.3-2,0.9s-0.8,1.4-0.8,2.4v5.2H171v-9.6
		h1.2l0.2,1.8h0.1c0.4-0.6,0.8-1.1,1.3-1.4S174.8,212.2,175.4,212.2z"/>
	<path d="M184.3,222l-0.3-1.4h-0.1c-0.5,0.6-1,1-1.4,1.2s-1.1,0.3-1.8,0.3c-1,0-1.7-0.2-2.2-0.7s-0.8-1.2-0.8-2.1
		c0-1.9,1.6-3,4.7-3.1l1.6-0.1v-0.6c0-0.8-0.2-1.3-0.5-1.7s-0.9-0.5-1.6-0.5c-0.8,0-1.7,0.2-2.7,0.7l-0.4-1.1c0.5-0.3,1-0.5,1.6-0.6
		s1.1-0.2,1.7-0.2c1.1,0,2,0.2,2.6,0.8s0.8,1.3,0.8,2.4v6.6L184.3,222L184.3,222z M181,221c0.9,0,1.6-0.2,2.1-0.8s0.8-1.2,0.8-2.1
		v-0.9l-1.5,0.1c-1.2,0-2,0.2-2.5,0.5s-0.8,0.8-0.8,1.5c0,0.5,0.2,0.9,0.5,1.2S180.4,221,181,221z"/>
	<path d="M194.6,219.4c0,0.9-0.3,1.6-1,2.1s-1.6,0.7-2.8,0.7c-1.3,0-2.3-0.2-3-0.6v-1.4c0.5,0.2,1,0.4,1.5,0.6s1,0.2,1.5,0.2
		c0.8,0,1.4-0.1,1.8-0.4s0.6-0.6,0.6-1.1c0-0.4-0.2-0.7-0.5-1s-1-0.6-1.9-0.9c-0.9-0.3-1.5-0.6-1.9-0.9s-0.7-0.5-0.8-0.9
		s-0.3-0.7-0.3-1.1c0-0.8,0.3-1.4,1-1.9s1.5-0.7,2.6-0.7c1,0,2.1,0.2,3,0.6l-0.5,1.2c-1-0.4-1.8-0.6-2.6-0.6c-0.7,0-1.2,0.1-1.6,0.3
		s-0.5,0.5-0.5,0.9c0,0.3,0.1,0.5,0.2,0.7s0.3,0.4,0.6,0.5s0.9,0.4,1.7,0.7c1.1,0.4,1.9,0.8,2.3,1.3S194.6,218.7,194.6,219.4z"/>
	<path d="M201.1,222.2c-1.4,0-2.6-0.4-3.4-1.3s-1.2-2.1-1.2-3.6c0-1.6,0.4-2.8,1.1-3.7s1.8-1.4,3.1-1.4c1.2,0,2.2,0.4,2.9,1.2
		s1.1,1.8,1.1,3.1v0.9H198c0,1.1,0.3,2,0.9,2.6s1.3,0.9,2.3,0.9c1,0,2.1-0.2,3.1-0.6v1.3c-0.5,0.2-1,0.4-1.5,0.5
		S201.7,222.2,201.1,222.2z M200.7,213.4c-0.8,0-1.4,0.2-1.9,0.8s-0.7,1.2-0.8,2.1h5c0-0.9-0.2-1.6-0.6-2.1S201.4,213.4,200.7,213.4
		z"/>
	<path d="M213.7,222v-6.2c0-0.8-0.2-1.4-0.5-1.8s-0.9-0.6-1.7-0.6c-1,0-1.8,0.3-2.2,0.8s-0.7,1.4-0.7,2.7v5.1h-1.5v-9.6h1.2l0.2,1.3
		h0.1c0.3-0.5,0.7-0.8,1.3-1.1s1.1-0.4,1.8-0.4c1.2,0,2,0.3,2.6,0.8s0.9,1.4,0.9,2.7v6.3L213.7,222L213.7,222L213.7,222z
		 M212.6,211.1c-0.2,0-0.5-0.1-0.7-0.2s-0.5-0.2-0.7-0.4s-0.4-0.2-0.7-0.4s-0.4-0.2-0.6-0.2c-0.3,0-0.5,0.1-0.7,0.3
		s-0.3,0.4-0.4,0.8H208c0.1-0.7,0.3-1.3,0.6-1.7s0.8-0.6,1.3-0.6c0.3,0,0.5,0.1,0.8,0.2s0.5,0.2,0.7,0.4s0.4,0.2,0.7,0.4
		s0.4,0.2,0.6,0.2c0.3,0,0.5-0.1,0.6-0.3s0.2-0.4,0.3-0.8h0.9c-0.1,0.7-0.3,1.3-0.6,1.7S213.1,211.1,212.6,211.1z"/>
	<path d="M224.1,222l-0.3-1.4h-0.1c-0.5,0.6-1,1-1.4,1.2s-1.1,0.3-1.8,0.3c-1,0-1.7-0.2-2.2-0.7s-0.8-1.2-0.8-2.1
		c0-1.9,1.6-3,4.7-3.1l1.6-0.1v-0.6c0-0.8-0.2-1.3-0.5-1.7s-0.9-0.5-1.6-0.5c-0.8,0-1.7,0.2-2.7,0.7l-0.4-1.1c0.5-0.3,1-0.5,1.6-0.6
		s1.1-0.2,1.7-0.2c1.1,0,2,0.2,2.6,0.8s0.8,1.3,0.8,2.4v6.6L224.1,222L224.1,222z M220.8,221c0.9,0,1.6-0.2,2.1-0.8s0.8-1.2,0.8-2.1
		v-0.9l-1.5,0.1c-1.2,0-2,0.2-2.5,0.5s-0.8,0.8-0.8,1.5c0,0.5,0.2,0.9,0.5,1.2S220.2,221,220.8,221z"/>
</g>
<g>
	<path class="st1" d="M169.1,184.7h-56.4c-8.3,0-15-6.7-15-15V59.6c0-8.3,6.7-15,15-15h56.4c8.3,0,15,6.7,15,15v110.1
		C184.1,178,177.4,184.7,169.1,184.7z"/>
	<rect x="106.8" y="59.6" class="st4" width="68.3" height="101.5"/>
	<circle class="st4" cx="140.9" cy="172.6" r="5.6"/>
	<rect x="131.8" y="54.7" class="st4" width="18.2" height="1.4"/>
	<circle class="st4" cx="140.9" cy="50.9" r="1.8"/>
</g>
<g>
	<path class="st5" d="M133.5,95.1c-1.7-1.8-2.7-4.2-2.7-6.9v-3.9c0-5.6,4.6-10.1,10.1-10.1l0,0c5.6,0,10.1,4.6,10.1,10.1v0.5"/>
	<path class="st6" d="M141.8,116.8h-1.7c-7.6,0-13.8-6.2-13.8-13.8V89.7h29.3V103C155.6,110.6,149.4,116.8,141.8,116.8z"/>
	<g>
		<circle class="st4" cx="140.9" cy="99.2" r="3.6"/>
		<rect x="139.5" y="100.3" class="st4" width="2.7" height="8.7"/>
	</g>
</g>
<g>
	<g>
		<path class="st7" d="M163.2,140.4h-44.6c-4.4,0-8.1-3.6-8.1-8.1v-1c0-4.4,3.6-8.1,8.1-8.1h44.6c4.4,0,8.1,3.6,8.1,8.1v1
			C171.3,136.8,167.7,140.4,163.2,140.4z"/>
		<g>
			<g>
				<path class="st4" d="M122.4,128.1l-2.5,3.2v0.1l3.9-0.5v1.8l-3.9-0.5v0.1l2.5,3.1l-1.6,0.9l-1.6-3.6h-0.1l-1.7,3.6l-1.5-0.9
					l2.5-3.2v-0.1l-3.8,0.5v-1.8l3.8,0.5v-0.1l-2.4-3.2l1.6-0.9l1.6,3.6h0.1l1.6-3.6L122.4,128.1z"/>
			</g>
			<g>
				<path class="st4" d="M136.8,128.1l-2.5,3.2v0.1l3.9-0.5v1.8l-3.9-0.5v0.1l2.5,3.1l-1.6,0.9l-1.6-3.6h-0.1l-1.7,3.6l-1.5-0.9
					l2.5-3.2v-0.1l-3.8,0.5v-1.8l3.8,0.5v-0.1l-2.4-3.2l1.6-0.9l1.6,3.6h0.1l1.6-3.6L136.8,128.1z"/>
			</g>
			<g>
				<path class="st4" d="M151.3,128.1l-2.5,3.2v0.1l3.9-0.5v1.8l-3.9-0.5v0.1l2.5,3.1l-1.6,0.9l-1.6-3.6h-0.1l-1.7,3.6l-1.5-0.9
					l2.5-3.2v-0.1l-3.8,0.5v-1.8l3.8,0.5v-0.1l-2.4-3.2l1.6-0.9l1.6,3.6h0.1l1.6-3.6L151.3,128.1z"/>
			</g>
		</g>
	</g>
	<rect x="155.5" y="134.7" class="st4" width="9.8" height="1.2"/>
</g>
</svg>
