<?xml version="1.0" encoding="utf-8"?>
<!-- Generator: Adobe Illustrator 23.0.1, SVG Export Plug-In . SVG Version: 6.00 Build 0)  -->
<svg version="1.1" id="Capa_1" xmlns="http://www.w3.org/2000/svg" xmlns:xlink="http://www.w3.org/1999/xlink" x="0px" y="0px"
	 viewBox="0 0 293.5 293.3" style="enable-background:new 0 0 293.5 293.3;" xml:space="preserve">
<style type="text/css">
	.st0{fill:#5B9E95;}
	.st1{fill:#FFFFFF;}
	.st2{fill:#00E3BE;}
	.st3{fill:#D4D1D9;}
	.st4{fill:none;stroke:#EBEBEB;stroke-width:3;stroke-linecap:round;stroke-miterlimit:10;}
	.st5{fill:#0E367C;}
</style>
<g>
	<rect x="15.2" y="28.2" class="st0" width="253.4" height="241.9"/>
	<rect x="15.2" y="196.2" class="st1" width="253.4" height="74"/>
</g>
<circle class="st2" cx="31.4" cy="30.8" r="30.8"/>
<g>
	<path class="st1" d="M41.6,21c0,2.1-0.6,3.9-1.9,5.4c-1.3,1.5-3,2.5-5.3,3v0.1c2.7,0.3,4.8,1.2,6.2,2.5c1.4,1.3,2.1,3.1,2.1,5.3
		c0,3.2-1.2,5.8-3.5,7.5c-2.3,1.8-5.7,2.7-10,2.7c-3.6,0-6.9-0.6-9.7-1.8v-6c1.3,0.7,2.7,1.2,4.3,1.6c1.6,0.4,3.1,0.6,4.6,0.6
		c2.3,0,4.1-0.4,5.2-1.2s1.7-2.1,1.7-3.8c0-1.6-0.6-2.7-1.9-3.3s-3.3-1-6.1-1h-2.5v-5.4h2.6c2.6,0,4.5-0.3,5.7-1
		c1.2-0.7,1.8-1.9,1.8-3.5c0-2.5-1.6-3.8-4.8-3.8c-1.1,0-2.2,0.2-3.4,0.5c-1.1,0.4-2.4,1-3.8,1.9l-3.3-4.9c3.1-2.2,6.7-3.3,11-3.3
		c3.5,0,6.2,0.7,8.2,2.1S41.6,18.5,41.6,21z"/>
</g>
<path class="st3" d="M214,119.4H66.3c-10.8,0-19.5-8.8-19.5-19.5l0,0c0-10.8,8.8-19.5,19.5-19.5H214c10.8,0,19.5,8.8,19.5,19.5l0,0
	C233.5,110.7,224.8,119.4,214,119.4z"/>
<g>
	<g>
		<g>
			<path class="st1" d="M162.8,172.6l-18.4,0.1c-4.2,0-8-2.5-9.6-6.4c0,0,0-0.1-0.1-0.1l-13.3-23.8c-0.6-1.1-0.7-2.3-0.4-3.4
				c0.3-1.1,1.1-2.1,2.1-2.7c1.1-0.6,2.3-0.7,3.4-0.4c0.2,0.1,0.4,0.1,0.6,0.2c0.9,0.4,1.7,1.1,2.1,1.9l2.4,4.3
				c0.3,0.5,0.8,0.7,1.4,0.6c0.5-0.1,0.9-0.6,0.9-1.2l-0.1-26.5c0-2.5,2-4.5,4.5-4.5c2.5,0,4.5,2,4.5,4.5l0,9.2c0,0,0,0.1,0,0.1
				l0,16.3c0,0.5,0.3,0.9,0.7,1.1c0.1,0.1,0.3,0.1,0.5,0.1c0.7,0,1.2-0.5,1.2-1.2l0-15.9c0.8-0.8,1.9-1.3,3.1-1.3
				c2.1,0,3.9,1.5,4.4,3.5l0,14.6c0,0.5,0.3,0.9,0.7,1.1c0.1,0.1,0.3,0.1,0.5,0.1c0.7,0,1.2-0.5,1.2-1.2l-0.1-14.3
				c0.9-0.9,2-1.4,3.2-1.4c2.5,0,4.5,2,4.5,4.5c0,0,0,0,0,0l0,14.1c0,0.5,0.3,0.9,0.7,1.1c0.1,0.1,0.3,0.1,0.5,0.1
				c0.7,0,1.2-0.5,1.2-1.2l0-13.6c0.8-0.8,1.9-1.3,3.1-1.3c2.5,0,4.5,2,4.5,4.5l0.1,28.3C173.1,167.9,168.4,172.6,162.8,172.6z"/>
		</g>
	</g>
</g>
<g>
	<line class="st4" x1="224.6" y1="59.8" x2="222.1" y2="72.3"/>
	<line class="st4" x1="237.9" y1="65" x2="230.8" y2="75.6"/>
	<line class="st4" x1="248.7" y1="75.5" x2="237.3" y2="81.2"/>
</g>
<g>
	<path d="M105.6,225.3h-1.5v-6h-6.8v6h-1.5v-12.8h1.5v5.5h6.8v-5.5h1.5V225.3z"/>
	<path d="M114.9,225.3l-0.3-1.4h-0.1c-0.5,0.6-1,1-1.4,1.2c-0.5,0.2-1.1,0.3-1.8,0.3c-1,0-1.7-0.2-2.2-0.7s-0.8-1.2-0.8-2.1
		c0-1.9,1.6-3,4.7-3.1l1.6-0.1v-0.6c0-0.8-0.2-1.3-0.5-1.7c-0.3-0.4-0.8-0.5-1.6-0.5c-0.8,0-1.7,0.2-2.7,0.7l-0.4-1.1
		c0.5-0.3,1-0.5,1.6-0.6s1.1-0.2,1.7-0.2c1.1,0,2,0.3,2.6,0.8s0.8,1.3,0.8,2.5v6.6H114.9z M111.6,224.2c0.9,0,1.6-0.2,2.1-0.7
		s0.8-1.2,0.8-2.1v-0.9l-1.5,0.1c-1.2,0-2,0.2-2.5,0.5s-0.8,0.8-0.8,1.5c0,0.5,0.2,0.9,0.5,1.2S111,224.2,111.6,224.2z"/>
	<path d="M125.1,225.3h-7v-1l5.3-7.5h-4.9v-1.1h6.5v1.1l-5.2,7.4h5.3V225.3z"/>
	<path d="M135.9,225.4c-1.4,0-2.5-0.4-3.2-1.3s-1.1-2.1-1.1-3.6c0-1.6,0.4-2.9,1.2-3.7s1.9-1.3,3.3-1.3c0.5,0,0.9,0,1.4,0.1
		s0.8,0.2,1.1,0.4l-0.4,1.2c-0.3-0.1-0.7-0.2-1.1-0.3s-0.7-0.1-1-0.1c-2,0-2.9,1.2-2.9,3.7c0,1.2,0.2,2.1,0.7,2.7s1.2,0.9,2.1,0.9
		c0.8,0,1.6-0.2,2.5-0.5v1.3C137.7,225.3,136.9,225.4,135.9,225.4z"/>
	<path d="M142.1,225.3h-1.5v-13.7h1.5V225.3z"/>
	<path d="M145,213c0-0.3,0.1-0.6,0.2-0.7s0.4-0.2,0.6-0.2c0.2,0,0.4,0.1,0.6,0.2s0.3,0.4,0.3,0.7s-0.1,0.6-0.3,0.7
		c-0.2,0.2-0.4,0.2-0.6,0.2c-0.2,0-0.5-0.1-0.6-0.2C145.1,213.6,145,213.3,145,213z M146.6,225.3h-1.5v-9.6h1.5V225.3z"/>
	<path d="M153.6,225.4c-1.4,0-2.5-0.4-3.2-1.3c-0.8-0.9-1.1-2.1-1.1-3.6c0-1.6,0.4-2.9,1.2-3.7c0.8-0.9,1.9-1.3,3.3-1.3
		c0.5,0,0.9,0,1.4,0.1s0.8,0.2,1.1,0.4l-0.4,1.2c-0.3-0.1-0.7-0.2-1.1-0.3s-0.7-0.1-1-0.1c-2,0-2.9,1.2-2.9,3.7
		c0,1.2,0.2,2.1,0.7,2.7s1.2,0.9,2.1,0.9c0.8,0,1.6-0.2,2.5-0.5v1.3C155.4,225.3,154.5,225.4,153.6,225.4z"/>
	<path d="M167,225.4c-1.4,0-2.5-0.4-3.4-1.3c-0.8-0.9-1.2-2.1-1.2-3.6c0-1.6,0.4-2.8,1.1-3.7c0.8-0.9,1.8-1.4,3.1-1.4
		c1.2,0,2.2,0.4,2.9,1.2s1.1,1.8,1.1,3.1v0.9h-6.6c0,1.1,0.3,2,0.9,2.6s1.3,0.9,2.3,0.9c1,0,2.1-0.2,3.1-0.7v1.3
		c-0.5,0.2-1,0.4-1.5,0.5C168.2,225.4,167.7,225.4,167,225.4z M166.6,216.7c-0.8,0-1.4,0.3-1.8,0.8c-0.5,0.5-0.7,1.2-0.8,2.1h5
		c0-0.9-0.2-1.6-0.6-2.1C168,216.9,167.4,216.7,166.6,216.7z"/>
	<path d="M179.7,225.3V219c0-0.8-0.2-1.4-0.5-1.8s-0.9-0.6-1.7-0.6c-1,0-1.7,0.3-2.2,0.8s-0.7,1.4-0.7,2.7v5.1h-1.5v-9.6h1.2
		l0.2,1.3h0.1c0.3-0.5,0.7-0.8,1.3-1.1c0.5-0.3,1.1-0.4,1.8-0.4c1.2,0,2,0.3,2.6,0.8s0.9,1.5,0.9,2.7v6.3H179.7z"/>
	<path d="M97.6,238.2c0,0.8-0.4,1.2-1.1,1.2c-0.4,0-0.6-0.1-0.8-0.3c-0.2-0.2-0.3-0.5-0.3-0.9c0-0.4,0.1-0.7,0.3-0.9
		s0.4-0.3,0.8-0.3c0.3,0,0.6,0.1,0.8,0.3S97.6,237.8,97.6,238.2z M96,240.8H97l0.4,9.3h-1.8L96,240.8z"/>
	<path d="M107.9,243.4c0,1.1-0.4,2-1.2,2.6s-1.9,0.9-3.3,0.9c-1.5,0-2.7-0.2-3.5-0.6V245c0.5,0.2,1.1,0.4,1.7,0.5s1.2,0.2,1.8,0.2
		c1,0,1.7-0.2,2.2-0.6c0.5-0.4,0.8-0.9,0.8-1.6c0-0.4-0.1-0.8-0.3-1.1c-0.2-0.3-0.5-0.5-0.9-0.8s-1.1-0.5-1.9-0.8
		c-1.2-0.4-2-0.9-2.6-1.5s-0.8-1.4-0.8-2.3c0-1,0.4-1.8,1.1-2.4s1.7-0.9,3-0.9c1.3,0,2.5,0.2,3.5,0.7l-0.5,1.3
		c-1.1-0.4-2.1-0.7-3.1-0.7c-0.8,0-1.4,0.2-1.9,0.5s-0.7,0.8-0.7,1.4c0,0.4,0.1,0.8,0.2,1.1c0.2,0.3,0.4,0.5,0.8,0.8
		c0.4,0.2,1,0.5,1.8,0.8c1.3,0.5,2.3,1,2.8,1.5S107.9,242.6,107.9,243.4z"/>
	<path d="M110.2,234.6c0-0.3,0.1-0.6,0.2-0.7s0.4-0.2,0.6-0.2c0.2,0,0.4,0.1,0.6,0.2s0.3,0.4,0.3,0.7s-0.1,0.6-0.3,0.7
		c-0.2,0.2-0.4,0.2-0.6,0.2c-0.2,0-0.5-0.1-0.6-0.2C110.3,235.2,110.2,234.9,110.2,234.6z M111.8,246.9h-1.5v-9.6h1.5V246.9z"/>
	<path d="M122.8,237.2v0.9l-1.8,0.2c0.2,0.2,0.3,0.5,0.4,0.8c0.1,0.3,0.2,0.7,0.2,1.1c0,0.9-0.3,1.7-1,2.3s-1.5,0.8-2.7,0.8
		c-0.3,0-0.6,0-0.8-0.1c-0.6,0.3-0.9,0.7-0.9,1.2c0,0.3,0.1,0.5,0.3,0.6c0.2,0.1,0.6,0.2,1.1,0.2h1.7c1,0,1.8,0.2,2.4,0.7
		s0.8,1.1,0.8,1.9c0,1.1-0.4,1.9-1.3,2.4s-2.1,0.8-3.7,0.8c-1.3,0-2.2-0.2-2.9-0.7s-1-1.1-1-2c0-0.6,0.2-1.1,0.6-1.5
		s0.9-0.7,1.6-0.9c-0.2-0.1-0.5-0.3-0.6-0.5s-0.3-0.5-0.3-0.8c0-0.4,0.1-0.7,0.3-0.9s0.5-0.5,0.9-0.8c-0.5-0.2-0.9-0.6-1.2-1
		s-0.5-1.1-0.5-1.7c0-1.1,0.3-1.9,0.9-2.4c0.6-0.6,1.5-0.9,2.7-0.9c0.5,0,1,0.1,1.4,0.2H122.8z M115.1,248.5c0,0.5,0.2,0.9,0.7,1.2
		s1.1,0.4,1.9,0.4c1.2,0,2.1-0.2,2.7-0.5s0.9-0.9,0.9-1.5c0-0.5-0.2-0.9-0.5-1.1c-0.3-0.2-0.9-0.3-1.8-0.3h-1.7
		c-0.7,0-1.2,0.2-1.5,0.5S115.1,247.9,115.1,248.5z M115.9,240.3c0,0.7,0.2,1.2,0.6,1.5s0.9,0.5,1.6,0.5c1.4,0,2.1-0.7,2.1-2.1
		c0-1.4-0.7-2.2-2.2-2.2c-0.7,0-1.2,0.2-1.6,0.6S115.9,239.6,115.9,240.3z"/>
	<path d="M126.1,237.2v6.2c0,0.8,0.2,1.4,0.5,1.8s0.9,0.6,1.7,0.6c1,0,1.7-0.3,2.2-0.8s0.7-1.5,0.7-2.7v-5.1h1.5v9.6h-1.2l-0.2-1.3
		h-0.1c-0.3,0.5-0.7,0.8-1.2,1.1s-1.1,0.4-1.8,0.4c-1.2,0-2-0.3-2.6-0.8s-0.9-1.4-0.9-2.7v-6.3H126.1z"/>
	<path d="M135.7,234.6c0-0.3,0.1-0.6,0.2-0.7s0.4-0.2,0.6-0.2c0.2,0,0.4,0.1,0.6,0.2s0.3,0.4,0.3,0.7s-0.1,0.6-0.3,0.7
		c-0.2,0.2-0.4,0.2-0.6,0.2c-0.2,0-0.5-0.1-0.6-0.2C135.8,235.2,135.7,234.9,135.7,234.6z M137.3,246.9h-1.5v-9.6h1.5V246.9z"/>
	<path d="M144.4,247c-1.4,0-2.5-0.4-3.4-1.3s-1.2-2.1-1.2-3.6c0-1.6,0.4-2.8,1.1-3.7s1.8-1.4,3.1-1.4c1.2,0,2.2,0.4,2.9,1.2
		s1.1,1.8,1.1,3.1v0.9h-6.6c0,1.1,0.3,2,0.9,2.6s1.3,0.9,2.3,0.9c1,0,2.1-0.2,3.1-0.7v1.3c-0.5,0.2-1,0.4-1.5,0.5
		C145.6,247,145.1,247,144.4,247z M144,238.3c-0.8,0-1.4,0.3-1.9,0.8s-0.7,1.2-0.8,2.1h5c0-0.9-0.2-1.6-0.6-2.1
		C145.4,238.5,144.8,238.3,144,238.3z"/>
	<path d="M157,246.9v-6.2c0-0.8-0.2-1.4-0.5-1.8s-0.9-0.6-1.7-0.6c-1,0-1.7,0.3-2.2,0.8s-0.7,1.4-0.7,2.7v5.1h-1.5v-9.6h1.2l0.2,1.3
		h0.1c0.3-0.5,0.7-0.8,1.3-1.1c0.5-0.3,1.1-0.4,1.8-0.4c1.2,0,2,0.3,2.6,0.8s0.9,1.5,0.9,2.7v6.3H157z"/>
	<path d="M164.6,245.8c0.3,0,0.5,0,0.7-0.1c0.2,0,0.4-0.1,0.6-0.1v1.1c-0.2,0.1-0.4,0.1-0.7,0.2c-0.3,0-0.6,0.1-0.8,0.1
		c-1.9,0-2.8-1-2.8-2.9v-5.7h-1.4v-0.7l1.4-0.6l0.6-2.1h0.8v2.2h2.8v1.1h-2.8v5.7c0,0.6,0.1,1,0.4,1.3S164.1,245.8,164.6,245.8z"/>
	<path d="M171.9,247c-1.4,0-2.5-0.4-3.4-1.3c-0.8-0.9-1.2-2.1-1.2-3.6c0-1.6,0.4-2.8,1.1-3.7c0.8-0.9,1.8-1.4,3.1-1.4
		c1.2,0,2.2,0.4,2.9,1.2s1.1,1.8,1.1,3.1v0.9h-6.6c0,1.1,0.3,2,0.9,2.6s1.3,0.9,2.3,0.9c1,0,2.1-0.2,3.1-0.7v1.3
		c-0.5,0.2-1,0.4-1.5,0.5C173.1,247,172.6,247,171.9,247z M171.5,238.3c-0.8,0-1.4,0.3-1.8,0.8c-0.5,0.5-0.7,1.2-0.8,2.1h5
		c0-0.9-0.2-1.6-0.6-2.1C172.9,238.5,172.3,238.3,171.5,238.3z"/>
	<path d="M177.7,245.9c0-0.8,0.4-1.2,1.1-1.2c0.3,0,0.6,0.1,0.8,0.3c0.2,0.2,0.3,0.5,0.3,0.9c0,0.4-0.1,0.7-0.3,0.9
		c-0.2,0.2-0.4,0.3-0.8,0.3c-0.3,0-0.6-0.1-0.8-0.3C177.8,246.7,177.7,246.3,177.7,245.9z M179.3,243.3h-0.9l-0.4-9.3h1.8
		L179.3,243.3z"/>
</g>
<g>
	<path class="st5" d="M99.4,101.6c0,1.5-0.6,2.8-1.7,3.7s-2.7,1.3-4.6,1.3c-1.8,0-3.4-0.3-4.9-1v-3.4c1.2,0.5,2.1,0.9,2.9,1.1
		s1.5,0.3,2.2,0.3c0.8,0,1.4-0.2,1.8-0.5s0.6-0.8,0.6-1.4c0-0.3-0.1-0.6-0.3-0.9s-0.5-0.5-0.8-0.8s-1.1-0.6-2.2-1.2
		c-1-0.5-1.8-1-2.4-1.4s-0.9-1-1.3-1.6s-0.5-1.3-0.5-2.1c0-1.5,0.5-2.7,1.5-3.6s2.4-1.3,4.3-1.3c0.9,0,1.7,0.1,2.5,0.3
		s1.7,0.5,2.5,0.9L98.1,93c-0.9-0.4-1.7-0.6-2.3-0.8S94.7,92,94.1,92c-0.7,0-1.2,0.2-1.6,0.5S92,93.2,92,93.7c0,0.3,0.1,0.6,0.2,0.8
		s0.4,0.5,0.7,0.7s1.1,0.6,2.3,1.2c1.6,0.8,2.7,1.5,3.3,2.3S99.4,100.5,99.4,101.6z"/>
	<path class="st5" d="M102.1,89.9c0-1.2,0.6-1.7,1.9-1.7s1.9,0.6,1.9,1.7c0,0.6-0.2,1-0.5,1.3s-0.8,0.5-1.5,0.5
		C102.7,91.6,102.1,91,102.1,89.9z M105.8,106.3h-3.6V93.2h3.6V106.3z"/>
	<path class="st5" d="M120.9,93.2v1.8l-2.1,0.5c0.4,0.6,0.6,1.2,0.6,2c0,1.4-0.5,2.5-1.5,3.3s-2.3,1.2-4.1,1.2l-0.6,0l-0.5-0.1
		c-0.4,0.3-0.6,0.6-0.6,0.9c0,0.5,0.7,0.8,2,0.8h2.2c1.4,0,2.5,0.3,3.3,0.9s1.1,1.5,1.1,2.7c0,1.5-0.6,2.7-1.9,3.6s-3.1,1.3-5.5,1.3
		c-1.8,0-3.2-0.3-4.2-1s-1.4-1.5-1.4-2.7c0-0.8,0.2-1.4,0.7-2s1.2-0.9,2.2-1.1c-0.4-0.2-0.7-0.4-1-0.8s-0.4-0.7-0.4-1.1
		c0-0.5,0.1-0.9,0.4-1.2s0.7-0.7,1.3-1c-0.7-0.3-1.2-0.8-1.6-1.4s-0.6-1.4-0.6-2.3c0-1.4,0.5-2.5,1.4-3.3s2.3-1.2,4-1.2
		c0.4,0,0.8,0,1.3,0.1s0.8,0.1,1,0.1H120.9z M110.8,108.2c0,0.5,0.2,0.9,0.7,1.2s1.1,0.4,2,0.4c1.3,0,2.3-0.2,3-0.5s1.1-0.8,1.1-1.4
		c0-0.5-0.2-0.8-0.6-1s-1.1-0.3-2-0.3h-1.9c-0.7,0-1.2,0.2-1.6,0.5S110.8,107.7,110.8,108.2z M112.1,97.5c0,0.7,0.2,1.3,0.5,1.7
		s0.8,0.6,1.5,0.6c0.7,0,1.2-0.2,1.5-0.6s0.5-1,0.5-1.7c0-1.6-0.6-2.4-1.9-2.4C112.8,95.2,112.1,96,112.1,97.5z"/>
	<path class="st5" d="M132.4,106.3l-0.5-1.7h-0.2c-0.4,0.6-0.9,1.1-1.6,1.4s-1.5,0.5-2.4,0.5c-1.5,0-2.7-0.4-3.5-1.2s-1.2-2-1.2-3.6
		v-8.5h3.6v7.7c0,0.9,0.2,1.7,0.5,2.1s0.9,0.7,1.6,0.7c1,0,1.7-0.3,2.2-1s0.7-1.8,0.7-3.3v-6.2h3.6v13.1H132.4z"/>
	<path class="st5" d="M138.7,89.9c0-1.2,0.6-1.7,1.9-1.7s1.9,0.6,1.9,1.7c0,0.6-0.2,1-0.5,1.3s-0.8,0.5-1.5,0.5
		C139.4,91.6,138.7,91,138.7,89.9z M142.4,106.3h-3.6V93.2h3.6V106.3z"/>
	<path class="st5" d="M152.1,106.6c-2.1,0-3.8-0.6-4.9-1.7s-1.8-2.8-1.8-4.9c0-2.2,0.5-3.9,1.6-5.1s2.6-1.8,4.6-1.8
		c1.9,0,3.3,0.5,4.3,1.6s1.5,2.5,1.5,4.4v1.7H149c0,1,0.3,1.8,0.9,2.4s1.4,0.9,2.4,0.9c0.8,0,1.5-0.1,2.2-0.2s1.4-0.4,2.2-0.8v2.8
		c-0.6,0.3-1.3,0.5-2,0.7S153.1,106.6,152.1,106.6z M151.6,95.5c-0.8,0-1.4,0.2-1.8,0.7s-0.7,1.2-0.7,2h5c0-0.9-0.2-1.6-0.7-2
		S152.4,95.5,151.6,95.5z"/>
	<path class="st5" d="M172.5,106.3h-3.6v-7.7c0-0.9-0.2-1.7-0.5-2.1s-0.9-0.7-1.6-0.7c-1,0-1.7,0.3-2.2,1s-0.7,1.8-0.7,3.3v6.2h-3.6
		V93.2h2.7l0.5,1.7h0.2c0.4-0.6,0.9-1.1,1.6-1.4s1.5-0.5,2.4-0.5c1.5,0,2.7,0.4,3.5,1.2s1.2,2,1.2,3.6V106.3z"/>
	<path class="st5" d="M181.7,103.7c0.6,0,1.4-0.1,2.2-0.4v2.7c-0.9,0.4-2,0.6-3.3,0.6c-1.4,0-2.5-0.4-3.1-1.1s-1-1.8-1-3.3v-6.3
		h-1.7v-1.5l2-1.2l1-2.8h2.3v2.8h3.7v2.7h-3.7v6.3c0,0.5,0.1,0.9,0.4,1.1S181.2,103.7,181.7,103.7z"/>
	<path class="st5" d="M192.5,106.6c-2.1,0-3.8-0.6-4.9-1.7s-1.8-2.8-1.8-4.9c0-2.2,0.5-3.9,1.6-5.1S190,93,192,93
		c1.9,0,3.3,0.5,4.3,1.6s1.5,2.5,1.5,4.4v1.7h-8.4c0,1,0.3,1.8,0.9,2.4s1.4,0.9,2.4,0.9c0.8,0,1.5-0.1,2.2-0.2s1.4-0.4,2.2-0.8v2.8
		c-0.6,0.3-1.3,0.5-2,0.7S193.5,106.6,192.5,106.6z M192,95.5c-0.8,0-1.4,0.2-1.8,0.7s-0.7,1.2-0.7,2h5c0-0.9-0.2-1.6-0.7-2
		S192.7,95.5,192,95.5z"/>
</g>
</svg>
