<?xml version="1.0" encoding="utf-8"?>
<!-- Generator: Adobe Illustrator 23.0.1, SVG Export Plug-In . SVG Version: 6.00 Build 0)  -->
<svg version="1.1" id="Capa_1" xmlns="http://www.w3.org/2000/svg" xmlns:xlink="http://www.w3.org/1999/xlink" x="0px" y="0px"
	 viewBox="0 0 271 81" style="enable-background:new 0 0 271 81;" xml:space="preserve">
<style type="text/css">
	.st0{fill:#FFFFFF;}
	.st1{fill:none;stroke:#FFFFFF;stroke-width:0.75;stroke-miterlimit:10;}
</style>
<g>
	<path class="st0" d="M54.5,49.9c-1.6-0.9-2.8-2.1-3.7-3.7c-0.9-1.6-1.3-3.4-1.3-5.4s0.4-3.9,1.3-5.4c0.9-1.6,2.1-2.8,3.7-3.7
		c1.6-0.9,3.4-1.3,5.4-1.3s3.8,0.4,5.4,1.3c1.6,0.9,2.8,2.1,3.7,3.7c0.9,1.6,1.3,3.4,1.3,5.4s-0.4,3.8-1.3,5.4
		c-0.9,1.6-2.1,2.8-3.7,3.7s-3.4,1.3-5.4,1.3C57.9,51.3,56.1,50.8,54.5,49.9 M63.4,46.9c1-0.6,1.8-1.4,2.4-2.5s0.9-2.3,0.9-3.6
		c0-1.4-0.3-2.6-0.9-3.7c-0.6-1.1-1.4-1.9-2.4-2.5s-2.2-0.9-3.5-0.9s-2.4,0.3-3.5,0.9c-1,0.6-1.8,1.5-2.4,2.5
		c-0.6,1.1-0.9,2.3-0.9,3.7s0.3,2.6,0.9,3.6c0.6,1.1,1.4,1.9,2.4,2.5s2.2,0.9,3.5,0.9C61.2,47.8,62.4,47.5,63.4,46.9"/>
	<path class="st0" d="M91.1,31.4c1.4,0.8,2.5,1.9,3.3,3.3s1.2,3.2,1.2,5.2v9.3c0,0.6-0.2,1-0.5,1.4c-0.4,0.4-0.8,0.5-1.4,0.5
		s-1-0.2-1.4-0.5c-0.4-0.4-0.5-0.8-0.5-1.4v-9.3c0-2-0.5-3.6-1.6-4.6s-2.6-1.6-4.4-1.6c-1.1,0-2,0.2-2.9,0.6c-0.9,0.4-1.5,1-2,1.7
		s-0.7,1.5-0.7,2.5v10.7c0,0.6-0.2,1-0.5,1.4c-0.4,0.4-0.8,0.5-1.4,0.5s-1-0.2-1.4-0.5c-0.4-0.4-0.5-0.8-0.5-1.4V32.3
		c0-0.6,0.2-1,0.5-1.4c0.4-0.4,0.8-0.5,1.4-0.5s1,0.2,1.4,0.5c0.4,0.4,0.5,0.8,0.5,1.4v0.4c0.8-0.8,1.8-1.4,2.9-1.9
		c1.1-0.4,2.3-0.7,3.6-0.7C88.1,30.2,89.7,30.6,91.1,31.4"/>
	<path class="st0" d="M102.4,26.3c-0.5-0.5-0.7-1.1-0.7-1.8c0-0.7,0.2-1.3,0.7-1.8s1.1-0.7,1.8-0.7c0.7,0,1.3,0.2,1.8,0.7
		s0.7,1.1,0.7,1.8c0,0.7-0.2,1.3-0.7,1.8s-1.1,0.7-1.8,0.7C103.5,27.1,102.9,26.8,102.4,26.3 M102.8,50.6c-0.4-0.4-0.5-0.8-0.5-1.4
		V32.3c0-0.6,0.2-1,0.5-1.4c0.4-0.4,0.8-0.5,1.4-0.5s1,0.2,1.4,0.5c0.4,0.4,0.5,0.8,0.5,1.4v16.8c0,0.6-0.2,1-0.5,1.4
		c-0.4,0.4-0.8,0.6-1.4,0.6C103.6,51.1,103.2,50.9,102.8,50.6"/>
	<path class="st0" d="M128.3,31.4c1.4,0.8,2.5,1.9,3.3,3.3s1.2,3.2,1.2,5.2v9.3c0,0.6-0.2,1-0.5,1.4c-0.4,0.4-0.8,0.5-1.4,0.5
		c-0.6,0-1-0.2-1.4-0.5c-0.4-0.4-0.5-0.8-0.5-1.4v-9.3c0-2-0.5-3.6-1.6-4.6c-1.1-1-2.6-1.6-4.4-1.6c-1.1,0-2,0.2-2.9,0.6
		c-0.9,0.4-1.5,1-2,1.7s-0.7,1.5-0.7,2.5v10.7c0,0.6-0.2,1-0.5,1.4c-0.4,0.4-0.8,0.5-1.4,0.5s-1-0.2-1.4-0.5
		c-0.4-0.4-0.5-0.8-0.5-1.4V32.3c0-0.6,0.2-1,0.5-1.4c0.4-0.4,0.8-0.5,1.4-0.5s1,0.2,1.4,0.5c0.4,0.4,0.5,0.8,0.5,1.4v0.4
		c0.8-0.8,1.8-1.4,2.9-1.9c1.1-0.4,2.3-0.7,3.6-0.7C125.3,30.2,126.9,30.6,128.3,31.4"/>
	<path class="st0" d="M153.8,31.6c1.6,0.9,2.8,2.1,3.7,3.7s1.3,3.4,1.3,5.4v8.2c0,2-0.4,3.8-1.3,5.4c-0.9,1.6-2.1,2.9-3.7,3.9
		c-1.6,0.9-3.4,1.4-5.4,1.4c-1.8,0-3.5-0.4-5.1-1.1c-1.6-0.7-2.9-1.7-3.9-3.1c-0.3-0.4-0.4-0.7-0.4-1.1c0-0.5,0.3-1,0.8-1.4
		c0.4-0.2,0.7-0.3,1.1-0.3c0.6,0,1.1,0.3,1.6,0.8c0.7,0.9,1.5,1.6,2.6,2c1,0.5,2.2,0.7,3.5,0.7c1.2,0,2.4-0.3,3.4-0.9
		c1-0.6,1.8-1.5,2.4-2.6c0.6-1.1,0.9-2.5,0.9-4.1v-1.9c-0.8,1.4-1.8,2.5-3.1,3.3s-2.7,1.2-4.3,1.2c-1.9,0-3.5-0.4-5-1.3
		c-1.5-0.9-2.6-2.1-3.4-3.7c-0.8-1.6-1.2-3.4-1.2-5.4s0.4-3.9,1.3-5.4c0.9-1.6,2.1-2.8,3.7-3.7c1.6-0.9,3.4-1.3,5.4-1.3
		C150.4,30.3,152.2,30.7,153.8,31.6 M151.9,46.9c1-0.6,1.8-1.4,2.4-2.5c0.6-1.1,0.9-2.3,0.9-3.6c0-1.4-0.3-2.6-0.9-3.7
		c-0.6-1.1-1.4-1.9-2.4-2.5s-2.2-0.9-3.5-0.9s-2.4,0.3-3.5,0.9c-1,0.6-1.8,1.5-2.4,2.5c-0.6,1.1-0.9,2.3-0.9,3.7s0.3,2.6,0.9,3.6
		c0.6,1.1,1.4,1.9,2.4,2.5s2.2,0.9,3.5,0.9C149.7,47.8,150.9,47.5,151.9,46.9"/>
	<path class="st0" d="M44.7,32.7c-0.5-2.3-1.5-4.4-2.9-6.2c-1.4-1.7-3.1-3-5.1-3.9s-4.3-1.3-6.5-1.3h-3.1h-2.3h-1.5
		c-1,0-1.9,0.7-2,1.7c-0.1,0.5,0,1,0,1.5v1.3v2.9c0,0.5,0,1,0,1.5c-0.1,1.2,0.1,2.5,0.4,3.7c0.2,0.6,0.4,1.1,0.6,1.7
		c0.1,0.3,0.2,0.5,0.4,0.8c0,0.1,0.1,0.1,0,0.2c0,0.1-0.1,0.1-0.1,0.2c-0.1,0.1-0.1,0.3-0.2,0.4c-0.5,1.1-0.9,2.2-1,3.4
		c-0.1,0.6-0.1,1.2-0.1,1.9c0,0.3,0,0.7,0,1v1.4v2.5v1.8c0,0.7,0.2,1.3,0.7,1.8c0.5,0.4,1.2,0.5,1.8,0.5h1.8H28c1.2,0,2.4,0,3.5-0.1
		c2.3-0.2,4.5-0.8,6.5-1.9c1.8-1.1,3.4-2.6,4.6-4.3C44.9,41.5,45.5,36.9,44.7,32.7C44.4,31.2,44.9,33.8,44.7,32.7 M40.8,39.5
		c-0.5,2.2-1.7,4.3-3.4,5.8s-3.8,2.3-6,2.5c-1.2,0.1-2.4,0.1-3.6,0.1h-2.6c0,0,0-4.8,0-5.2c0-0.7,0-1.4,0.2-2.1
		c0-0.1,0.1-0.3,0.1-0.4c0-0.1,0-0.3,0.1-0.2c0.2,0.2,0.5,0.4,0.7,0.5c0.5,0.3,1,0.6,1.5,0.9c1,0.5,2.2,0.9,3.3,0.9
		c1,0,2.1-0.3,3-0.8c0.7-0.4,1.4-1.1,1.9-1.8c0.2-0.3,0.3-0.6,0.5-0.9c0.1-0.2,0.2-0.4,0.2-0.6c0.1-0.2,0.2-0.5,0.2-0.7l0,0
		c0.4-2-0.4-4.1-1.9-5.4c-1.6-1.4-3.8-1.8-5.7-1.1c-0.7,0.2-1.4,0.5-2,0.9c-0.6,0.3-1.2,0.8-1.7,1.2c-0.4-1.3-0.3-2.6-0.3-3.9v-2.8
		v-0.7v-0.4v-0.2h0.4h0.9h2.8c0.6,0,1.3,0,1.9,0c1.1,0.1,2.3,0.4,3.3,0.8c2,0.8,3.7,2.3,4.8,4.1C41.2,32.6,41.6,36.3,40.8,39.5
		C40.8,39.8,41.1,38.5,40.8,39.5 M31.2,34.6c0.7,0,1.4,0.5,1.7,1.1c0.3,0.7,0.1,1.5-0.5,2c-0.3,0.2-0.6,0.4-1,0.4
		c-0.5,0-0.9-0.1-1.4-0.3c-0.4-0.2-0.8-0.4-1.2-0.6c-0.2-0.1-0.4-0.3-0.6-0.4c-0.2-0.1-0.3-0.3-0.5-0.4c0.9-0.8,2-1.5,3.2-1.8
		c-0.2,0.1,0,0,0.1,0C31,34.6,31.1,34.6,31.2,34.6"/>
</g>
<g>
	<path class="st0" d="M244.8,36c-1.8,0-3.1,1.5-3.1,3.6c0,2.1,1.3,3.6,3.1,3.6c1.8,0,3.1-1.5,3.1-3.6v-0.1
		C247.9,37.5,246.6,36,244.8,36z"/>
	<path class="st0" d="M227.4,11.3c-16.1,0-29.2,13.1-29.2,29.2s13.1,29.2,29.2,29.2s29.2-13.1,29.2-29.2S243.5,11.3,227.4,11.3z
		 M216.7,33.9c0,1.1-0.4,1.8-1.1,2.5l-6.2,6.8h4.9c1.3,0,2.4,1,2.4,2.4c0,1.3-1,2.3-2.4,2.3h-9.7c-1.6,0-2.7-1-2.7-2.3v-0.1
		c0-1.1,0.4-1.8,1.1-2.5l6.1-6.8h-4.7c-1.3,0-2.4-1-2.4-2.3c0-1.3,1-2.4,2.4-2.4h9.4c1.6,0,2.7,1,2.7,2.3L216.7,33.9L216.7,33.9z
		 M230.9,48c-1.1,0-2.1-0.7-2.5-1.6c-0.9,0.9-2.2,1.7-4.1,1.7c-3.6,0-5.8-2.4-5.8-6.3V34c0-1.5,1.2-2.8,2.8-2.8s2.8,1.2,2.8,2.8v6.5
		c0,2.5,1.5,2.5,2,2.5c1.7,0,2.1-1.3,2.1-2.5V34c0-1.5,1.2-2.8,2.8-2.8s2.8,1.2,2.8,2.8v11.2h0C233.6,46.8,232.4,48,230.9,48z
		 M245.9,48.2c-1.6,0-3-0.5-4.1-1.4v3.1c0,1.5-1.2,2.8-2.8,2.8s-2.8-1.2-2.8-2.8V34c0-1.5,1.2-2.8,2.8-2.8c1.1,0,2.1,0.7,2.5,1.6
		c1.2-1.2,2.7-1.7,4.4-1.7c3.7,0,7.5,2.9,7.5,8.5C253.5,45.3,249.7,48.2,245.9,48.2z"/>
</g>
<line class="st1" x1="178" y1="8.7" x2="178" y2="72.3"/>
</svg>
