<?xml version="1.0" encoding="utf-8"?>
<!-- Generator: Adobe Illustrator 22.1.0, SVG Export Plug-In . SVG Version: 6.00 Build 0)  -->
<svg version="1.1" id="Capa_1" xmlns="http://www.w3.org/2000/svg" xmlns:xlink="http://www.w3.org/1999/xlink" x="0px" y="0px"
	 viewBox="0 0 178 81" style="enable-background:new 0 0 178 81;" xml:space="preserve">
<style type="text/css">
	.st0{fill:#00E8C1;}
	.st1{fill:#FFFFFF;}
</style>
<rect class="st0" width="178" height="81"/>
<g>
	<path class="st1" d="M53.5,49.9c-1.6-0.9-2.8-2.1-3.7-3.7c-0.9-1.6-1.3-3.4-1.3-5.4c0-2,0.4-3.9,1.3-5.4c0.9-1.6,2.1-2.8,3.7-3.7
		c1.6-0.9,3.4-1.3,5.4-1.3c2,0,3.8,0.4,5.4,1.3c1.6,0.9,2.8,2.1,3.7,3.7c0.9,1.6,1.3,3.4,1.3,5.4c0,2-0.4,3.8-1.3,5.4
		c-0.9,1.6-2.1,2.8-3.7,3.7c-1.6,0.9-3.4,1.3-5.4,1.3C56.9,51.3,55.1,50.8,53.5,49.9 M62.4,46.9c1-0.6,1.8-1.4,2.4-2.5
		c0.6-1.1,0.9-2.3,0.9-3.6c0-1.4-0.3-2.6-0.9-3.7c-0.6-1.1-1.4-1.9-2.4-2.5c-1-0.6-2.2-0.9-3.5-0.9c-1.3,0-2.4,0.3-3.5,0.9
		c-1,0.6-1.8,1.5-2.4,2.5c-0.6,1.1-0.9,2.3-0.9,3.7c0,1.4,0.3,2.6,0.9,3.6c0.6,1.1,1.4,1.9,2.4,2.5c1,0.6,2.2,0.9,3.5,0.9
		C60.2,47.8,61.4,47.5,62.4,46.9"/>
	<path class="st1" d="M90.1,31.4c1.4,0.8,2.5,1.9,3.3,3.3c0.8,1.4,1.2,3.2,1.2,5.2v9.3c0,0.6-0.2,1-0.5,1.4
		c-0.4,0.4-0.8,0.5-1.4,0.5c-0.6,0-1-0.2-1.4-0.5c-0.4-0.4-0.5-0.8-0.5-1.4v-9.3c0-2-0.5-3.6-1.6-4.6c-1.1-1-2.6-1.6-4.4-1.6
		c-1.1,0-2,0.2-2.9,0.6c-0.9,0.4-1.5,1-2,1.7c-0.5,0.7-0.7,1.5-0.7,2.5v10.7c0,0.6-0.2,1-0.5,1.4c-0.4,0.4-0.8,0.5-1.4,0.5
		c-0.6,0-1-0.2-1.4-0.5c-0.4-0.4-0.5-0.8-0.5-1.4V32.3c0-0.6,0.2-1,0.5-1.4c0.4-0.4,0.8-0.5,1.4-0.5c0.6,0,1,0.2,1.4,0.5
		c0.4,0.4,0.5,0.8,0.5,1.4v0.4c0.8-0.8,1.8-1.4,2.9-1.9c1.1-0.4,2.3-0.7,3.6-0.7C87.1,30.2,88.7,30.6,90.1,31.4"/>
	<path class="st1" d="M101.4,26.3c-0.5-0.5-0.7-1.1-0.7-1.8c0-0.7,0.2-1.3,0.7-1.8c0.5-0.5,1.1-0.7,1.8-0.7c0.7,0,1.3,0.2,1.8,0.7
		c0.5,0.5,0.7,1.1,0.7,1.8c0,0.7-0.2,1.3-0.7,1.8c-0.5,0.5-1.1,0.7-1.8,0.7C102.5,27.1,101.9,26.8,101.4,26.3 M101.8,50.6
		c-0.4-0.4-0.5-0.8-0.5-1.4V32.3c0-0.6,0.2-1,0.5-1.4c0.4-0.4,0.8-0.5,1.4-0.5c0.6,0,1,0.2,1.4,0.5c0.4,0.4,0.5,0.8,0.5,1.4v16.8
		c0,0.6-0.2,1-0.5,1.4c-0.4,0.4-0.8,0.6-1.4,0.6C102.6,51.1,102.2,50.9,101.8,50.6"/>
	<path class="st1" d="M127.3,31.4c1.4,0.8,2.5,1.9,3.3,3.3c0.8,1.4,1.2,3.2,1.2,5.2v9.3c0,0.6-0.2,1-0.5,1.4
		c-0.4,0.4-0.8,0.5-1.4,0.5c-0.6,0-1-0.2-1.4-0.5c-0.4-0.4-0.5-0.8-0.5-1.4v-9.3c0-2-0.5-3.6-1.6-4.6c-1.1-1-2.6-1.6-4.4-1.6
		c-1.1,0-2,0.2-2.9,0.6c-0.9,0.4-1.5,1-2,1.7c-0.5,0.7-0.7,1.5-0.7,2.5v10.7c0,0.6-0.2,1-0.5,1.4c-0.4,0.4-0.8,0.5-1.4,0.5
		c-0.6,0-1-0.2-1.4-0.5c-0.4-0.4-0.5-0.8-0.5-1.4V32.3c0-0.6,0.2-1,0.5-1.4c0.4-0.4,0.8-0.5,1.4-0.5c0.6,0,1,0.2,1.4,0.5
		c0.4,0.4,0.5,0.8,0.5,1.4v0.4c0.8-0.8,1.8-1.4,2.9-1.9c1.1-0.4,2.3-0.7,3.6-0.7C124.3,30.2,125.9,30.6,127.3,31.4"/>
	<path class="st1" d="M152.8,31.6c1.6,0.9,2.8,2.1,3.7,3.7c0.9,1.6,1.3,3.4,1.3,5.4v8.2c0,2-0.4,3.8-1.3,5.4
		c-0.9,1.6-2.1,2.9-3.7,3.9c-1.6,0.9-3.4,1.4-5.4,1.4c-1.8,0-3.5-0.4-5.1-1.1c-1.6-0.7-2.9-1.7-3.9-3.1c-0.3-0.4-0.4-0.7-0.4-1.1
		c0-0.5,0.3-1,0.8-1.4c0.4-0.2,0.7-0.3,1.1-0.3c0.6,0,1.1,0.3,1.6,0.8c0.7,0.9,1.5,1.6,2.6,2c1,0.5,2.2,0.7,3.5,0.7
		c1.2,0,2.4-0.3,3.4-0.9c1-0.6,1.8-1.5,2.4-2.6c0.6-1.1,0.9-2.5,0.9-4.1v-1.9c-0.8,1.4-1.8,2.5-3.1,3.3c-1.3,0.8-2.7,1.2-4.3,1.2
		c-1.9,0-3.5-0.4-5-1.3c-1.5-0.9-2.6-2.1-3.4-3.7c-0.8-1.6-1.2-3.4-1.2-5.4c0-2,0.4-3.9,1.3-5.4c0.9-1.6,2.1-2.8,3.7-3.7
		c1.6-0.9,3.4-1.3,5.4-1.3C149.4,30.3,151.2,30.7,152.8,31.6 M150.9,46.9c1-0.6,1.8-1.4,2.4-2.5c0.6-1.1,0.9-2.3,0.9-3.6
		c0-1.4-0.3-2.6-0.9-3.7c-0.6-1.1-1.4-1.9-2.4-2.5c-1-0.6-2.2-0.9-3.5-0.9c-1.3,0-2.4,0.3-3.5,0.9c-1,0.6-1.8,1.5-2.4,2.5
		c-0.6,1.1-0.9,2.3-0.9,3.7c0,1.4,0.3,2.6,0.9,3.6c0.6,1.1,1.4,1.9,2.4,2.5c1,0.6,2.2,0.9,3.5,0.9C148.7,47.8,149.9,47.5,150.9,46.9
		"/>
	<path class="st1" d="M43.7,32.7c-0.5-2.3-1.5-4.4-2.9-6.2c-1.4-1.7-3.1-3-5.1-3.9c-2-0.9-4.3-1.3-6.5-1.3h-3.1h-2.3h-1.5
		c-1,0-1.9,0.7-2,1.7c-0.1,0.5,0,1,0,1.5v1.3v2.9c0,0.5,0,1,0,1.5c-0.1,1.2,0.1,2.5,0.4,3.7c0.2,0.6,0.4,1.1,0.6,1.7
		c0.1,0.3,0.2,0.5,0.4,0.8c0,0.1,0.1,0.1,0,0.2c0,0.1-0.1,0.1-0.1,0.2c-0.1,0.1-0.1,0.3-0.2,0.4c-0.5,1.1-0.9,2.2-1,3.4
		c-0.1,0.6-0.1,1.2-0.1,1.9c0,0.3,0,0.7,0,1v1.4v2.5v1.8c0,0.7,0.2,1.3,0.7,1.8c0.5,0.4,1.2,0.5,1.8,0.5h1.8H27c1.2,0,2.4,0,3.5-0.1
		c2.3-0.2,4.5-0.8,6.5-1.9c1.8-1.1,3.4-2.6,4.6-4.3C43.9,41.5,44.5,36.9,43.7,32.7C43.4,31.2,43.9,33.8,43.7,32.7 M39.8,39.5
		c-0.5,2.2-1.7,4.3-3.4,5.8c-1.7,1.5-3.8,2.3-6,2.5c-1.2,0.1-2.4,0.1-3.6,0.1h-2.6c0,0,0-4.8,0-5.2c0-0.7,0-1.4,0.2-2.1
		c0-0.1,0.1-0.3,0.1-0.4c0-0.1,0-0.3,0.1-0.2c0.2,0.2,0.5,0.4,0.7,0.5c0.5,0.3,1,0.6,1.5,0.9c1,0.5,2.2,0.9,3.3,0.9
		c1,0,2.1-0.3,3-0.8c0.7-0.4,1.4-1.1,1.9-1.8c0.2-0.3,0.3-0.6,0.5-0.9c0.1-0.2,0.2-0.4,0.2-0.6c0.1-0.2,0.2-0.5,0.2-0.7c0,0,0,0,0,0
		c0.4-2-0.4-4.1-1.9-5.4c-1.6-1.4-3.8-1.8-5.7-1.1c-0.7,0.2-1.4,0.5-2,0.9c-0.6,0.3-1.2,0.8-1.7,1.2c-0.4-1.3-0.3-2.6-0.3-3.9v-2.8
		v-0.7v-0.4c0,0,0-0.2,0-0.2c0,0,0.4,0,0.4,0h0.9h2.8c0.6,0,1.3,0,1.9,0c1.1,0.1,2.3,0.4,3.3,0.8c2,0.8,3.7,2.3,4.8,4.1
		C40.2,32.6,40.6,36.3,39.8,39.5C39.8,39.8,40.1,38.5,39.8,39.5 M30.2,34.6c0.7,0,1.4,0.5,1.7,1.1c0.3,0.7,0.1,1.5-0.5,2
		c-0.3,0.2-0.6,0.4-1,0.4c-0.5,0-0.9-0.1-1.4-0.3c-0.4-0.2-0.8-0.4-1.2-0.6c-0.2-0.1-0.4-0.3-0.6-0.4c-0.2-0.1-0.3-0.3-0.5-0.4
		c0.9-0.8,2-1.5,3.2-1.8c-0.2,0.1,0,0,0.1,0C30,34.6,30.1,34.6,30.2,34.6"/>
</g>
</svg>
