<?xml version="1.0" encoding="utf-8"?>
<!-- Generator: Adobe Illustrator 22.1.0, SVG Export Plug-In . SVG Version: 6.00 Build 0)  -->
<svg version="1.1" id="Capa_1" xmlns="http://www.w3.org/2000/svg" xmlns:xlink="http://www.w3.org/1999/xlink" x="0px" y="0px"
	 viewBox="0 0 178 107" style="enable-background:new 0 0 178 107;" xml:space="preserve">
<style type="text/css">
	.st0{fill:#00E8C1;}
	.st1{fill:#FFFFFF;}
	.st2{fill:#00C6FF;}
	.st3{fill:#CCCCCC;}
</style>
<rect class="st0" width="178" height="81"/>
<g>
	<path class="st1" d="M53.5,49.9c-1.6-0.9-2.8-2.1-3.7-3.7c-0.9-1.6-1.3-3.4-1.3-5.4c0-2,0.4-3.9,1.3-5.4c0.9-1.6,2.1-2.8,3.7-3.7
		c1.6-0.9,3.4-1.3,5.4-1.3c2,0,3.8,0.4,5.4,1.3c1.6,0.9,2.8,2.1,3.7,3.7c0.9,1.6,1.3,3.4,1.3,5.4c0,2-0.4,3.8-1.3,5.4
		c-0.9,1.6-2.1,2.8-3.7,3.7c-1.6,0.9-3.4,1.3-5.4,1.3C56.9,51.3,55.1,50.8,53.5,49.9 M62.4,46.9c1-0.6,1.8-1.4,2.4-2.5
		c0.6-1.1,0.9-2.3,0.9-3.6c0-1.4-0.3-2.6-0.9-3.7c-0.6-1.1-1.4-1.9-2.4-2.5c-1-0.6-2.2-0.9-3.5-0.9c-1.3,0-2.4,0.3-3.5,0.9
		c-1,0.6-1.8,1.5-2.4,2.5c-0.6,1.1-0.9,2.3-0.9,3.7c0,1.4,0.3,2.6,0.9,3.6c0.6,1.1,1.4,1.9,2.4,2.5c1,0.6,2.2,0.9,3.5,0.9
		C60.2,47.8,61.4,47.5,62.4,46.9"/>
	<path class="st1" d="M90.1,31.4c1.4,0.8,2.5,1.9,3.3,3.3c0.8,1.4,1.2,3.2,1.2,5.2v9.3c0,0.6-0.2,1-0.5,1.4
		c-0.4,0.4-0.8,0.5-1.4,0.5c-0.6,0-1-0.2-1.4-0.5c-0.4-0.4-0.5-0.8-0.5-1.4v-9.3c0-2-0.5-3.6-1.6-4.6c-1.1-1-2.6-1.6-4.4-1.6
		c-1.1,0-2,0.2-2.9,0.6c-0.9,0.4-1.5,1-2,1.7c-0.5,0.7-0.7,1.5-0.7,2.5v10.7c0,0.6-0.2,1-0.5,1.4c-0.4,0.4-0.8,0.5-1.4,0.5
		c-0.6,0-1-0.2-1.4-0.5c-0.4-0.4-0.5-0.8-0.5-1.4V32.3c0-0.6,0.2-1,0.5-1.4c0.4-0.4,0.8-0.5,1.4-0.5c0.6,0,1,0.2,1.4,0.5
		c0.4,0.4,0.5,0.8,0.5,1.4v0.4c0.8-0.8,1.8-1.4,2.9-1.9c1.1-0.4,2.3-0.7,3.6-0.7C87.1,30.2,88.7,30.6,90.1,31.4"/>
	<path class="st1" d="M101.4,26.3c-0.5-0.5-0.7-1.1-0.7-1.8c0-0.7,0.2-1.3,0.7-1.8c0.5-0.5,1.1-0.7,1.8-0.7c0.7,0,1.3,0.2,1.8,0.7
		c0.5,0.5,0.7,1.1,0.7,1.8c0,0.7-0.2,1.3-0.7,1.8c-0.5,0.5-1.1,0.7-1.8,0.7C102.5,27.1,101.9,26.8,101.4,26.3 M101.8,50.6
		c-0.4-0.4-0.5-0.8-0.5-1.4V32.3c0-0.6,0.2-1,0.5-1.4c0.4-0.4,0.8-0.5,1.4-0.5c0.6,0,1,0.2,1.4,0.5c0.4,0.4,0.5,0.8,0.5,1.4v16.8
		c0,0.6-0.2,1-0.5,1.4c-0.4,0.4-0.8,0.6-1.4,0.6C102.6,51.1,102.2,50.9,101.8,50.6"/>
	<path class="st1" d="M127.3,31.4c1.4,0.8,2.5,1.9,3.3,3.3c0.8,1.4,1.2,3.2,1.2,5.2v9.3c0,0.6-0.2,1-0.5,1.4
		c-0.4,0.4-0.8,0.5-1.4,0.5c-0.6,0-1-0.2-1.4-0.5c-0.4-0.4-0.5-0.8-0.5-1.4v-9.3c0-2-0.5-3.6-1.6-4.6c-1.1-1-2.6-1.6-4.4-1.6
		c-1.1,0-2,0.2-2.9,0.6c-0.9,0.4-1.5,1-2,1.7c-0.5,0.7-0.7,1.5-0.7,2.5v10.7c0,0.6-0.2,1-0.5,1.4c-0.4,0.4-0.8,0.5-1.4,0.5
		c-0.6,0-1-0.2-1.4-0.5c-0.4-0.4-0.5-0.8-0.5-1.4V32.3c0-0.6,0.2-1,0.5-1.4c0.4-0.4,0.8-0.5,1.4-0.5c0.6,0,1,0.2,1.4,0.5
		c0.4,0.4,0.5,0.8,0.5,1.4v0.4c0.8-0.8,1.8-1.4,2.9-1.9c1.1-0.4,2.3-0.7,3.6-0.7C124.3,30.2,125.9,30.6,127.3,31.4"/>
	<path class="st1" d="M152.8,31.6c1.6,0.9,2.8,2.1,3.7,3.7c0.9,1.6,1.3,3.4,1.3,5.4v8.2c0,2-0.4,3.8-1.3,5.4
		c-0.9,1.6-2.1,2.9-3.7,3.9c-1.6,0.9-3.4,1.4-5.4,1.4c-1.8,0-3.5-0.4-5.1-1.1c-1.6-0.7-2.9-1.7-3.9-3.1c-0.3-0.4-0.4-0.7-0.4-1.1
		c0-0.5,0.3-1,0.8-1.4c0.4-0.2,0.7-0.3,1.1-0.3c0.6,0,1.1,0.3,1.6,0.8c0.7,0.9,1.5,1.6,2.6,2c1,0.5,2.2,0.7,3.5,0.7
		c1.2,0,2.4-0.3,3.4-0.9c1-0.6,1.8-1.5,2.4-2.6c0.6-1.1,0.9-2.5,0.9-4.1v-1.9c-0.8,1.4-1.8,2.5-3.1,3.3c-1.3,0.8-2.7,1.2-4.3,1.2
		c-1.9,0-3.5-0.4-5-1.3c-1.5-0.9-2.6-2.1-3.4-3.7c-0.8-1.6-1.2-3.4-1.2-5.4c0-2,0.4-3.9,1.3-5.4c0.9-1.6,2.1-2.8,3.7-3.7
		c1.6-0.9,3.4-1.3,5.4-1.3C149.4,30.3,151.2,30.7,152.8,31.6 M150.9,46.9c1-0.6,1.8-1.4,2.4-2.5c0.6-1.1,0.9-2.3,0.9-3.6
		c0-1.4-0.3-2.6-0.9-3.7c-0.6-1.1-1.4-1.9-2.4-2.5c-1-0.6-2.2-0.9-3.5-0.9c-1.3,0-2.4,0.3-3.5,0.9c-1,0.6-1.8,1.5-2.4,2.5
		c-0.6,1.1-0.9,2.3-0.9,3.7c0,1.4,0.3,2.6,0.9,3.6c0.6,1.1,1.4,1.9,2.4,2.5c1,0.6,2.2,0.9,3.5,0.9C148.7,47.8,149.9,47.5,150.9,46.9
		"/>
	<path class="st1" d="M43.7,32.7c-0.5-2.3-1.5-4.4-2.9-6.2c-1.4-1.7-3.1-3-5.1-3.9c-2-0.9-4.3-1.3-6.5-1.3h-3.1h-2.3h-1.5
		c-1,0-1.9,0.7-2,1.7c-0.1,0.5,0,1,0,1.5v1.3v2.9c0,0.5,0,1,0,1.5c-0.1,1.2,0.1,2.5,0.4,3.7c0.2,0.6,0.4,1.1,0.6,1.7
		c0.1,0.3,0.2,0.5,0.4,0.8c0,0.1,0.1,0.1,0,0.2c0,0.1-0.1,0.1-0.1,0.2c-0.1,0.1-0.1,0.3-0.2,0.4c-0.5,1.1-0.9,2.2-1,3.4
		c-0.1,0.6-0.1,1.2-0.1,1.9c0,0.3,0,0.7,0,1v1.4v2.5v1.8c0,0.7,0.2,1.3,0.7,1.8c0.5,0.4,1.2,0.5,1.8,0.5h1.8H27c1.2,0,2.4,0,3.5-0.1
		c2.3-0.2,4.5-0.8,6.5-1.9c1.8-1.1,3.4-2.6,4.6-4.3C43.9,41.5,44.5,36.9,43.7,32.7C43.4,31.2,43.9,33.8,43.7,32.7 M39.8,39.5
		c-0.5,2.2-1.7,4.3-3.4,5.8c-1.7,1.5-3.8,2.3-6,2.5c-1.2,0.1-2.4,0.1-3.6,0.1h-2.6c0,0,0-4.8,0-5.2c0-0.7,0-1.4,0.2-2.1
		c0-0.1,0.1-0.3,0.1-0.4c0-0.1,0-0.3,0.1-0.2c0.2,0.2,0.5,0.4,0.7,0.5c0.5,0.3,1,0.6,1.5,0.9c1,0.5,2.2,0.9,3.3,0.9
		c1,0,2.1-0.3,3-0.8c0.7-0.4,1.4-1.1,1.9-1.8c0.2-0.3,0.3-0.6,0.5-0.9c0.1-0.2,0.2-0.4,0.2-0.6c0.1-0.2,0.2-0.5,0.2-0.7c0,0,0,0,0,0
		c0.4-2-0.4-4.1-1.9-5.4c-1.6-1.4-3.8-1.8-5.7-1.1c-0.7,0.2-1.4,0.5-2,0.9c-0.6,0.3-1.2,0.8-1.7,1.2c-0.4-1.3-0.3-2.6-0.3-3.9v-2.8
		v-0.7v-0.4c0,0,0-0.2,0-0.2c0,0,0.4,0,0.4,0h0.9h2.8c0.6,0,1.3,0,1.9,0c1.1,0.1,2.3,0.4,3.3,0.8c2,0.8,3.7,2.3,4.8,4.1
		C40.2,32.6,40.6,36.3,39.8,39.5C39.8,39.8,40.1,38.5,39.8,39.5 M30.2,34.6c0.7,0,1.4,0.5,1.7,1.1c0.3,0.7,0.1,1.5-0.5,2
		c-0.3,0.2-0.6,0.4-1,0.4c-0.5,0-0.9-0.1-1.4-0.3c-0.4-0.2-0.8-0.4-1.2-0.6c-0.2-0.1-0.4-0.3-0.6-0.4c-0.2-0.1-0.3-0.3-0.5-0.4
		c0.9-0.8,2-1.5,3.2-1.8c-0.2,0.1,0,0,0.1,0C30,34.6,30.1,34.6,30.2,34.6"/>
</g>
<g>
	<g>
		<path class="st2" d="M113.3,98.8L113.3,98.8c0-0.8,0.3-1.3,0.9-1.9l6.2-6.9h-5.3c-0.9,0-1.6-0.7-1.6-1.5c0-0.9,0.7-1.6,1.6-1.6
			h8.4c1.1,0,1.9,0.6,1.9,1.5v0.1c0,0.7-0.3,1.2-0.9,1.9l-6.3,6.9h5.6c0.9,0,1.6,0.7,1.6,1.6c0,0.9-0.7,1.5-1.6,1.5h-8.6
			C114.1,100.3,113.3,99.7,113.3,98.8z"/>
		<path class="st2" d="M123.8,100.8h-8.6c-1.4,0-2.4-0.9-2.4-2.1v-0.1c0-1,0.4-1.6,1-2.2l5.4-6h-4.1c-1.2,0-2.1-0.9-2.1-2.1
			c0-1.2,0.9-2.1,2.1-2.1h8.4c1.4,0,2.4,0.9,2.4,2.1v0.1c0,1-0.4,1.6-1,2.2l-5.5,6h4.4c1.2,0,2.1,0.9,2.1,2.1
			C125.9,99.9,124.9,100.8,123.8,100.8z M115.1,87.4c-0.6,0-1,0.5-1,1c0,0.5,0.5,1,1,1h6.5l-7.1,7.8c-0.5,0.6-0.7,0.9-0.7,1.5v0.1
			c0,0.7,0.7,1,1.3,1h8.6c0.6,0,1-0.4,1-1c0-0.6-0.5-1-1-1H117l7.1-7.8c0.5-0.6,0.7-0.9,0.7-1.5v-0.1c0-0.7-0.7-1-1.3-1H115.1z"/>
	</g>
	<g>
		<path class="st2" d="M140.3,98.5c0,1.1-0.9,1.9-1.9,1.9c-1.1,0-1.9-0.9-1.9-1.9v-0.2c-0.9,1.1-2,2.2-3.9,2.2c-2.9,0-4.6-1.9-4.6-5
			v-7c0-1.1,0.9-1.9,1.9-1.9c1.1,0,1.9,0.9,1.9,1.9v5.7c0,1.8,0.9,2.7,2.3,2.7c1.5,0,2.4-0.9,2.4-2.7v-5.7c0-1.1,0.9-1.9,1.9-1.9
			c1.1,0,1.9,0.9,1.9,1.9V98.5z"/>
		<path class="st2" d="M132.5,101.1c-3.1,0-5.1-2.1-5.1-5.5v-7c0-1.3,1.1-2.4,2.4-2.4s2.4,1.1,2.4,2.4v5.7c0,2.2,1.3,2.2,1.8,2.2
			c1.5,0,1.8-1.2,1.8-2.2v-5.7c0-1.3,1.1-2.4,2.4-2.4c1.3,0,2.4,1.1,2.4,2.4v9.9c0,1.3-1.1,2.4-2.4,2.4c-1,0-1.8-0.6-2.2-1.4
			C135.3,100.4,134.2,101.1,132.5,101.1z M129.9,87.2c-0.8,0-1.4,0.6-1.4,1.4v7c0,2.8,1.5,4.5,4,4.5c1.8,0,2.7-0.9,3.5-2l1-1.2v1.7
			c0,0.8,0.6,1.4,1.4,1.4c0.8,0,1.4-0.6,1.4-1.4v-9.9c0-0.8-0.6-1.4-1.4-1.4c-0.8,0-1.4,0.6-1.4,1.4v5.7c0,2-1.1,3.3-2.9,3.3
			c-1.8,0-2.8-1.2-2.8-3.3v-5.7C131.2,87.8,130.6,87.2,129.9,87.2z"/>
	</g>
	<g>
		<path class="st2" d="M143.7,88.6c0-1.1,0.9-1.9,1.9-1.9c1.1,0,1.9,0.9,1.9,1.9v0.2c0.9-1.3,2.2-2.2,4.2-2.2c3.1,0,6.1,2.5,6.1,7
			v0.1c0,4.5-2.9,7-6.1,7c-2,0-3.3-0.9-4.2-2v4c0,1.1-0.9,1.9-1.9,1.9c-1.1,0-1.9-0.9-1.9-1.9V88.6z M154,93.6L154,93.6
			c0-2.3-1.5-3.8-3.3-3.8s-3.3,1.5-3.3,3.7v0.1c0,2.2,1.5,3.7,3.3,3.7S154,95.9,154,93.6z"/>
		<path class="st2" d="M145.6,105c-1.3,0-2.4-1.1-2.4-2.4v-14c0-1.3,1.1-2.4,2.4-2.4c1,0,1.8,0.6,2.2,1.4c1.1-1,2.3-1.5,3.9-1.5
			c3.3,0,6.7,2.6,6.7,7.5c0,5-3.4,7.5-6.7,7.5c-1.4,0-2.6-0.4-3.7-1.3v2.7C148,103.9,146.9,105,145.6,105z M145.6,87.2
			c-0.8,0-1.4,0.6-1.4,1.4v14c0,0.8,0.6,1.4,1.4,1.4c0.8,0,1.4-0.6,1.4-1.4v-5.5l1,1.1c1,1.2,2.2,1.8,3.8,1.8c2.7,0,5.6-2,5.6-6.4
			c0-4.3-2.8-6.5-5.6-6.5c-1.6,0-2.8,0.6-3.8,2l-1,1.3v-1.8C147,87.8,146.3,87.2,145.6,87.2z M150.7,97.8c-2.2,0-3.8-1.8-3.8-4.3
			c0-2.5,1.6-4.3,3.8-4.3c2.2,0,3.8,1.8,3.8,4.3v0.1C154.5,96,152.9,97.8,150.7,97.8z M150.7,90.4c-1.6,0-2.7,1.3-2.7,3.2
			c0,1.9,1.1,3.2,2.7,3.2c1.6,0,2.7-1.3,2.7-3.2v-0.1C153.5,91.7,152.3,90.4,150.7,90.4z"/>
	</g>
</g>
<g>
	<path class="st3" d="M95.4,93.9l-0.1,0.5c-0.1,0.4-0.4,0.7-0.8,0.7c-0.5,0-0.7-0.3-0.6-0.9l1.9-7.2c0.1-0.5,0.4-0.7,0.8-0.7
		c0.5,0,0.7,0.3,0.6,0.9l-0.6,2.4c0.6-0.6,1.2-1,2-1c1.4,0,2.5,1,2.5,2.7c0,2.2-1.7,3.9-3.5,3.9C96.4,95.2,95.7,94.7,95.4,93.9z
		 M99.5,91.4c0-1-0.6-1.6-1.5-1.6c-1.2,0-2.3,1.2-2.3,2.5c0,0.9,0.7,1.6,1.6,1.6C98.5,94,99.5,92.8,99.5,91.4z"/>
	<path class="st3" d="M102.2,95.8c0.3,0,0.6-0.2,1-0.7l-0.9-5.4c0-0.1,0-0.3,0-0.4c0-0.4,0.3-0.7,0.7-0.7c0.4,0,0.7,0.3,0.7,0.6
		l0.6,4.1l2.6-4.3c0.2-0.3,0.4-0.5,0.8-0.5c0.4,0,0.6,0.2,0.6,0.6c0,0.1-0.1,0.3-0.2,0.5l-3.5,5.5c-0.9,1.3-1.6,1.8-2.6,1.8
		c-0.3,0-0.7,0-0.9-0.2c-0.2-0.1-0.4-0.3-0.4-0.6c0-0.3,0.3-0.6,0.6-0.6c0.1,0,0.2,0,0.3,0.1C101.8,95.7,102,95.8,102.2,95.8z"/>
</g>
</svg>
