<?xml version="1.0" encoding="utf-8"?>
<!-- Generator: Adobe Illustrator 22.1.0, SVG Export Plug-In . SVG Version: 6.00 Build 0)  -->
<svg version="1.1" id="Capa_1" xmlns="http://www.w3.org/2000/svg" xmlns:xlink="http://www.w3.org/1999/xlink" x="0px" y="0px"
	 viewBox="0 0 178 178" style="enable-background:new 0 0 178 178;" xml:space="preserve">
<style type="text/css">
	.st0{fill:#FFFFFF;}
</style>
<g>
	<path class="st0" d="M142.2,75.4c-5.4,0-9.4,4.6-9.4,11c0,6.5,4,11.1,9.4,11.1c5.5,0,9.5-4.6,9.5-11v-0.2
		C151.7,80,147.7,75.4,142.2,75.4z"/>
	<path class="st0" d="M89,0C39.8,0,0,39.8,0,89s39.8,89,89,89s89-39.8,89-89S138.2,0,89,0z M56.5,68.8c0,3.3-1.3,5.4-3.4,7.7
		L34.2,97.1h15c4,0,7.2,3.2,7.2,7.2c0,3.9-3.2,7.1-7.2,7.1H19.7c-4.8,0-8.3-3-8.3-7.1V104c0-3.3,1.3-5.4,3.4-7.7l18.7-20.7H19.3
		c-4,0-7.2-3.2-7.2-7.1c0-4,3.2-7.2,7.2-7.2h28.8c4.8,0,8.3,3,8.3,7.1V68.8z M99.6,112c-3.4,0-6.3-2-7.7-4.9
		c-2.8,2.8-6.7,5.2-12.5,5.2c-10.9,0-17.6-7.3-17.6-19.1v-24c0-4.6,3.8-8.4,8.4-8.4s8.4,3.8,8.4,8.4V89c0,7.6,4.6,7.6,6.1,7.6
		c5.3,0,6.4-4.1,6.4-7.6V69.3c0-4.6,3.8-8.4,8.4-8.4c4.6,0,8.4,3.8,8.4,8.4v34.3h0.1C108,108.2,104.2,112,99.6,112z M145.6,112.4
		c-4.9,0-9-1.4-12.6-4.3v9.4c0,4.6-3.8,8.4-8.4,8.4c-4.6,0-8.4-3.8-8.4-8.4V69.3c0-4.6,3.8-8.4,8.4-8.4c3.4,0,6.4,2,7.7,5
		c3.7-3.6,8.1-5.3,13.4-5.3c11.4,0,23,8.9,23,25.8C168.6,103.5,157,112.4,145.6,112.4z"/>
</g>
</svg>
